<svg width="368" height="235" viewBox="0 0 368 235" fill="none" xmlns="http://www.w3.org/2000/svg">
<g filter="url(#filter0_f_55_3)">
<path d="M336 61V55H337V61H338C339.105 61 340 61.8954 340 63V65C340 66.1046 339.105 67 338 67H337V71H336V67H335C333.895 67 333 66.1046 333 65V63C333 61.8954 333.895 61 335 61H336Z" fill="#FF5757"/>
<path d="M181 151L181 162H182L182 151H183C184.105 151 185 150.105 185 149V135C185 133.895 184.105 133 183 133H182L182 128H181L181 133H180C178.895 133 178 133.895 178 135V149C178 150.105 178.895 151 180 151H181Z" fill="#FF5757"/>
<path d="M205 147V140H206V147H207C208.105 147 209 147.895 209 149V152C209 153.105 208.105 154 207 154H206V159H205V154H204C202.895 154 202 153.105 202 152V149C202 147.895 202.895 147 204 147H205Z" fill="#FF5757"/>
<path d="M336 61.75H336.25H336.75H337H338C338.69 61.75 339.25 62.3096 339.25 63V65C339.25 65.6904 338.69 66.25 338 66.25H337H336.75H336.25H336H335C334.31 66.25 333.75 65.6904 333.75 65V63C333.75 62.3096 334.31 61.75 335 61.75H336ZM181.75 150.25H181.25H181H180C179.31 150.25 178.75 149.69 178.75 149V135C178.75 134.31 179.31 133.75 180 133.75H181H181.25H181.75H182H183C183.69 133.75 184.25 134.31 184.25 135V149C184.25 149.69 183.69 150.25 183 150.25H182H181.75ZM205 147.75H205.25H205.75H206H207C207.69 147.75 208.25 148.31 208.25 149V152C208.25 152.69 207.69 153.25 207 153.25H206H205.75H205.25H205H204C203.31 153.25 202.75 152.69 202.75 152V149C202.75 148.31 203.31 147.75 204 147.75H205Z" stroke="#FF5757" stroke-width="1.5"/>
</g>
<path d="M336 61.75H336.25H336.75H337H338C338.69 61.75 339.25 62.3096 339.25 63V65C339.25 65.6904 338.69 66.25 338 66.25H337H336.75H336.25H336H335C334.31 66.25 333.75 65.6904 333.75 65V63C333.75 62.3096 334.31 61.75 335 61.75H336ZM181.75 150.25H181.25H181H180C179.31 150.25 178.75 149.69 178.75 149V135C178.75 134.31 179.31 133.75 180 133.75H181H181.25H181.75H182H183C183.69 133.75 184.25 134.31 184.25 135V149C184.25 149.69 183.69 150.25 183 150.25H182H181.75ZM205 147.75H205.25H205.75H206H207C207.69 147.75 208.25 148.31 208.25 149V152C208.25 152.69 207.69 153.25 207 153.25H206H205.75H205.25H205H204C203.31 153.25 202.75 152.69 202.75 152V149C202.75 148.31 203.31 147.75 204 147.75H205Z" fill="#FF5757" stroke="#FF5757" stroke-width="1.5"/>
<path d="M314 58.75H314.25H314.75H315H316C316.69 58.75 317.25 59.3096 317.25 60V81C317.25 81.6904 316.69 82.25 316 82.25H315H314.75H314.25H314H313C312.31 82.25 311.75 81.6904 311.75 81V60C311.75 59.3096 312.31 58.75 313 58.75H314ZM298 69.75H298.25H298.75H299H300C300.69 69.75 301.25 70.3096 301.25 71V86C301.25 86.6904 300.69 87.25 300 87.25H299H298.75H298.25H298H297C296.31 87.25 295.75 86.6904 295.75 86V71C295.75 70.3096 296.31 69.75 297 69.75H298ZM253 73.75H253.25H253.75H254H255C255.69 73.75 256.25 74.3096 256.25 75V104C256.25 104.69 255.69 105.25 255 105.25H254H253.75H253.25H253H252C251.31 105.25 250.75 104.69 250.75 104V75C250.75 74.3096 251.31 73.75 252 73.75H253ZM230.75 141.25H230.25H230H229C228.31 141.25 227.75 140.69 227.75 140V131C227.75 130.31 228.31 129.75 229 129.75H230H230.25H230.75H231H232C232.69 129.75 233.25 130.31 233.25 131V140C233.25 140.69 232.69 141.25 232 141.25H231H230.75ZM279 72.75H279.25H279.75H280H281C281.69 72.75 282.25 73.3096 282.25 74V94C282.25 94.6904 281.69 95.25 281 95.25H280H279.75H279.25H279H278C277.31 95.25 276.75 94.6904 276.75 94V74C276.75 73.3096 277.31 72.75 278 72.75H279Z" fill="#37B160" stroke="#37B160" stroke-width="1.5"/>
<g filter="url(#filter1_f_55_3)">
<path d="M206.046 137.5L205.568 138.078L205.635 138.134L205.713 138.172L206.046 137.5ZM230.329 149.5L229.997 150.172L230.087 150.217L230.187 150.236L230.329 149.5ZM253.534 154L253.391 154.736L253.462 154.75H253.534V154ZM279.436 154V154.75H279.522L279.605 154.731L279.436 154ZM298.863 149.5L299.032 150.231L299.314 150.165L299.479 149.928L298.863 149.5ZM314.512 127L314.834 126.322L314.259 126.05L313.897 126.572L314.512 127ZM336.637 137.5L336.316 138.178L336.468 138.25H336.637V137.5ZM150.463 178.5L149.973 179.067L150.074 179.155L150.201 179.202L150.463 178.5ZM181.223 190L180.96 190.702L181.253 190.812L181.538 190.681L181.223 190ZM206.046 178.5L206.361 179.181L206.51 179.111L206.617 178.986L206.046 178.5ZM230.9 150.486C231.169 150.171 231.131 149.698 230.816 149.429C230.5 149.16 230.027 149.198 229.758 149.514L230.9 150.486ZM253.534 130L253.263 129.3L253.147 129.345L253.051 129.426L253.534 130ZM279.436 120L279.706 120.7L279.85 120.644L279.96 120.536L279.436 120ZM298.863 101L298.432 100.386L298.382 100.421L298.338 100.464L298.863 101ZM314.512 90L314.347 89.2684L314.202 89.3011L314.081 89.3864L314.512 90ZM336.637 85L336.803 85.7315L336.865 85.7174L336.924 85.693L336.637 85ZM362.287 75.193C362.67 75.0345 362.851 74.5958 362.693 74.2131C362.535 73.8304 362.096 73.6486 361.713 73.807L362.287 75.193ZM186.959 121.738L186.38 121.262L186.959 121.738ZM142.69 175.631L142.11 175.155L142.69 175.631ZM205.713 138.172C210.455 140.516 214.155 142.344 217.855 144.172C221.555 146.001 225.255 147.829 229.997 150.172L230.662 148.828C225.92 146.484 222.22 144.656 218.52 142.828C214.82 140.999 211.12 139.171 206.378 136.828L205.713 138.172ZM230.187 150.236L253.391 154.736L253.676 153.264L230.472 148.764L230.187 150.236ZM253.534 154.75H279.436V153.25H253.534V154.75ZM279.605 154.731L299.032 150.231L298.694 148.769L279.267 153.269L279.605 154.731ZM299.479 149.928L315.128 127.428L313.897 126.572L298.247 149.072L299.479 149.928ZM314.191 127.678L336.316 138.178L336.959 136.822L314.834 126.322L314.191 127.678ZM336.637 138.25H362V136.75H336.637V138.25ZM150.201 179.202L180.96 190.702L181.485 189.298L150.726 177.798L150.201 179.202ZM181.538 190.681L206.361 179.181L205.73 177.819L180.907 189.319L181.538 190.681ZM206.617 178.986L230.9 150.486L229.758 149.514L205.475 178.014L206.617 178.986ZM230.812 150.074L254.016 130.574L253.051 129.426L229.847 148.926L230.812 150.074ZM253.804 130.7L279.706 120.7L279.166 119.3L253.263 129.3L253.804 130.7ZM279.96 120.536L299.387 101.536L298.338 100.464L278.912 119.464L279.96 120.536ZM299.294 101.614L314.944 90.6136L314.081 89.3864L298.432 100.386L299.294 101.614ZM314.678 90.7315L336.803 85.7315L336.472 84.2684L314.347 89.2684L314.678 90.7315ZM336.924 85.693L362.287 75.193L361.713 73.807L336.35 84.307L336.924 85.693ZM187.539 122.214L283 6.00001L281.841 5.0479L186.38 121.262L187.539 122.214ZM186.482 122.316C190.209 125.394 193.117 127.795 196.025 130.197C198.933 132.599 201.841 135 205.568 138.078L206.523 136.922C202.796 133.844 199.888 131.442 196.98 129.04C194.072 126.639 191.164 124.237 187.437 121.159L186.482 122.316ZM99 230L143.269 176.107L142.11 175.155L97.8409 229.048L99 230ZM143.269 176.107L145.123 173.85L143.964 172.898L142.11 175.155L143.269 176.107ZM145.123 173.85L187.539 122.214L186.38 121.262L143.964 172.898L145.123 173.85ZM144.052 173.941L149.973 179.067L150.954 177.933L145.034 172.807L144.052 173.941Z" fill="#FFE0A3"/>
</g>
<path d="M206.046 137.5L205.568 138.078L205.635 138.134L205.713 138.172L206.046 137.5ZM230.329 149.5L229.997 150.172L230.087 150.217L230.187 150.236L230.329 149.5ZM253.534 154L253.391 154.736L253.462 154.75H253.534V154ZM279.436 154V154.75H279.522L279.605 154.731L279.436 154ZM298.863 149.5L299.032 150.231L299.314 150.165L299.479 149.928L298.863 149.5ZM314.512 127L314.834 126.322L314.259 126.05L313.897 126.572L314.512 127ZM336.637 137.5L336.316 138.178L336.468 138.25H336.637V137.5ZM150.463 178.5L149.973 179.067L150.074 179.155L150.201 179.202L150.463 178.5ZM181.223 190L180.96 190.702L181.253 190.812L181.538 190.681L181.223 190ZM206.046 178.5L206.361 179.181L206.51 179.111L206.617 178.986L206.046 178.5ZM230.9 150.486C231.169 150.171 231.131 149.698 230.816 149.429C230.5 149.16 230.027 149.198 229.758 149.514L230.9 150.486ZM253.534 130L253.263 129.3L253.147 129.345L253.051 129.426L253.534 130ZM279.436 120L279.706 120.7L279.85 120.644L279.96 120.536L279.436 120ZM298.863 101L298.432 100.386L298.382 100.421L298.338 100.464L298.863 101ZM314.512 90L314.347 89.2684L314.202 89.3011L314.081 89.3864L314.512 90ZM336.637 85L336.803 85.7315L336.865 85.7174L336.924 85.693L336.637 85ZM362.287 75.193C362.67 75.0345 362.851 74.5958 362.693 74.2131C362.535 73.8304 362.096 73.6486 361.713 73.807L362.287 75.193ZM186.959 121.738L186.38 121.262L186.959 121.738ZM142.69 175.631L142.11 175.155L142.69 175.631ZM205.713 138.172C210.455 140.516 214.155 142.344 217.855 144.172C221.555 146.001 225.255 147.829 229.997 150.172L230.662 148.828C225.92 146.484 222.22 144.656 218.52 142.828C214.82 140.999 211.12 139.171 206.378 136.828L205.713 138.172ZM230.187 150.236L253.391 154.736L253.676 153.264L230.472 148.764L230.187 150.236ZM253.534 154.75H279.436V153.25H253.534V154.75ZM279.605 154.731L299.032 150.231L298.694 148.769L279.267 153.269L279.605 154.731ZM299.479 149.928L315.128 127.428L313.897 126.572L298.247 149.072L299.479 149.928ZM314.191 127.678L336.316 138.178L336.959 136.822L314.834 126.322L314.191 127.678ZM336.637 138.25H362V136.75H336.637V138.25ZM150.201 179.202L180.96 190.702L181.485 189.298L150.726 177.798L150.201 179.202ZM181.538 190.681L206.361 179.181L205.73 177.819L180.907 189.319L181.538 190.681ZM206.617 178.986L230.9 150.486L229.758 149.514L205.475 178.014L206.617 178.986ZM230.812 150.074L254.016 130.574L253.051 129.426L229.847 148.926L230.812 150.074ZM253.804 130.7L279.706 120.7L279.166 119.3L253.263 129.3L253.804 130.7ZM279.96 120.536L299.387 101.536L298.338 100.464L278.912 119.464L279.96 120.536ZM299.294 101.614L314.944 90.6136L314.081 89.3864L298.432 100.386L299.294 101.614ZM314.678 90.7315L336.803 85.7315L336.472 84.2684L314.347 89.2684L314.678 90.7315ZM336.924 85.693L362.287 75.193L361.713 73.807L336.35 84.307L336.924 85.693ZM187.539 122.214L283 6.00001L281.841 5.0479L186.38 121.262L187.539 122.214ZM186.482 122.316C190.209 125.394 193.117 127.795 196.025 130.197C198.933 132.599 201.841 135 205.568 138.078L206.523 136.922C202.796 133.844 199.888 131.442 196.98 129.04C194.072 126.639 191.164 124.237 187.437 121.159L186.482 122.316ZM99 230L143.269 176.107L142.11 175.155L97.8409 229.048L99 230ZM143.269 176.107L145.123 173.85L143.964 172.898L142.11 175.155L143.269 176.107ZM145.123 173.85L187.539 122.214L186.38 121.262L143.964 172.898L145.123 173.85ZM144.052 173.941L149.973 179.067L150.954 177.933L145.034 172.807L144.052 173.941Z" fill="#FFE0A3"/>
<path d="M25.8079 101L25.3067 101.558L25.6647 101.88L26.1063 101.688L25.8079 101ZM51.1707 90L51.4692 90.6881L51.5349 90.6595L51.5941 90.6191L51.1707 90ZM73.8354 74.5L74.2587 75.1191L74.3173 75.079L74.3673 75.0287L73.8354 74.5ZM92.7226 55.5L92.5056 54.7821L92.3242 54.8369L92.1907 54.9713L92.7226 55.5ZM117.546 48L117.952 47.3693L117.66 47.1819L117.329 47.2821L117.546 48ZM136.973 60.5L137.594 60.0806L137.508 59.9527L137.378 59.8693L136.973 60.5ZM150.463 80.5L149.842 80.9194L149.844 80.9236L150.463 80.5ZM164.494 101L163.875 101.424L163.919 101.488L163.976 101.542L164.494 101ZM181.223 117L180.704 117.542L180.724 117.561L180.745 117.578L181.223 117ZM8.14464 149.264C7.7382 149.184 7.34396 149.449 7.26408 149.855C7.1842 150.262 7.44892 150.656 7.85536 150.736L8.14464 149.264ZM25.8079 153.5L25.9806 152.77L25.9666 152.767L25.9526 152.764L25.8079 153.5ZM51.1707 159.5L50.9981 160.23L51.0832 160.25H51.1707V159.5ZM73.8354 159.5V160.25H74.1355L74.3528 160.043L73.8354 159.5ZM92.7226 141.5L92.9655 140.79L92.5348 140.643L92.2051 140.957L92.7226 141.5ZM117.546 150L118.037 149.433L117.927 149.338L117.789 149.29L117.546 150ZM24.75 103L24.75 147H26.25L26.25 103H24.75ZM24 111.75H27V110.25H24V111.75ZM28.25 113V122H29.75V113H28.25ZM27 123.25H24V124.75H27V123.25ZM22.75 122V113H21.25V122H22.75ZM24 123.25C23.3096 123.25 22.75 122.69 22.75 122H21.25C21.25 123.519 22.4812 124.75 24 124.75V123.25ZM28.25 122C28.25 122.69 27.6904 123.25 27 123.25V124.75C28.5188 124.75 29.75 123.519 29.75 122H28.25ZM27 111.75C27.6904 111.75 28.25 112.31 28.25 113H29.75C29.75 111.481 28.5188 110.25 27 110.25V111.75ZM24 110.25C22.4812 110.25 21.25 111.481 21.25 113H22.75C22.75 112.31 23.3096 111.75 24 111.75V110.25ZM50.75 95L50.75 157H52.25L52.25 95H50.75ZM50 106.75H53V105.25H50V106.75ZM54.25 108V123H55.75V108H54.25ZM53 124.25H50V125.75H53V124.25ZM48.75 123V108H47.25V123H48.75ZM50 124.25C49.3096 124.25 48.75 123.69 48.75 123H47.25C47.25 124.519 48.4812 125.75 50 125.75V124.25ZM54.25 123C54.25 123.69 53.6904 124.25 53 124.25V125.75C54.5188 125.75 55.75 124.519 55.75 123H54.25ZM53 106.75C53.6904 106.75 54.25 107.31 54.25 108H55.75C55.75 106.481 54.5188 105.25 53 105.25V106.75ZM50 105.25C48.4812 105.25 47.25 106.481 47.25 108H48.75C48.75 107.31 49.3096 106.75 50 106.75V105.25ZM91.75 75V117H93.25V75H91.75ZM91 80.75H94V79.25H91V80.75ZM95.25 82V110H96.75V82H95.25ZM94 111.25H91V112.75H94V111.25ZM89.75 110V82H88.25V110H89.75ZM91 111.25C90.3096 111.25 89.75 110.69 89.75 110H88.25C88.25 111.519 89.4812 112.75 91 112.75V111.25ZM95.25 110C95.25 110.69 94.6904 111.25 94 111.25V112.75C95.5188 112.75 96.75 111.519 96.75 110H95.25ZM94 80.75C94.6904 80.75 95.25 81.3096 95.25 82H96.75C96.75 80.4812 95.5188 79.25 94 79.25V80.75ZM91 79.25C89.4812 79.25 88.25 80.4812 88.25 82H89.75C89.75 81.3096 90.3096 80.75 91 80.75V79.25ZM72.75 85V144H74.25V85H72.75ZM72 96.75H75V95.25H72V96.75ZM76.25 98V119H77.75V98H76.25ZM75 120.25H72V121.75H75V120.25ZM70.75 119V98H69.25V119H70.75ZM72 120.25C71.3096 120.25 70.75 119.69 70.75 119H69.25C69.25 120.519 70.4812 121.75 72 121.75V120.25ZM76.25 119C76.25 119.69 75.6904 120.25 75 120.25V121.75C76.5188 121.75 77.75 120.519 77.75 119H76.25ZM75 96.75C75.6904 96.75 76.25 97.3096 76.25 98H77.75C77.75 96.4812 76.5188 95.25 75 95.25V96.75ZM72 95.25C70.4812 95.25 69.25 96.4812 69.25 98H70.75C70.75 97.3096 71.3096 96.75 72 96.75V95.25ZM116.75 57V136H118.25V57H116.75ZM116 66.75H119V65.25H116V66.75ZM120.25 68V94H121.75V68H120.25ZM119 95.25H116V96.75H119V95.25ZM114.75 94V68H113.25V94H114.75ZM116 95.25C115.31 95.25 114.75 94.6904 114.75 94H113.25C113.25 95.5188 114.481 96.75 116 96.75V95.25ZM120.25 94C120.25 94.6904 119.69 95.25 119 95.25V96.75C120.519 96.75 121.75 95.5188 121.75 94H120.25ZM119 66.75C119.69 66.75 120.25 67.3096 120.25 68H121.75C121.75 66.4812 120.519 65.25 119 65.25V66.75ZM116 65.25C114.481 65.25 113.25 66.4812 113.25 68H114.75C114.75 67.3096 115.31 66.75 116 66.75V65.25ZM139.25 75V89H140.75V75H139.25ZM133.75 89V75H132.25V89H133.75ZM135 90.25C134.31 90.25 133.75 89.6904 133.75 89H132.25C132.25 90.5188 133.481 91.75 135 91.75V90.25ZM139.25 89C139.25 89.6904 138.69 90.25 138 90.25V91.75C139.519 91.75 140.75 90.5188 140.75 89H139.25ZM138 73.75C138.69 73.75 139.25 74.3096 139.25 75H140.75C140.75 73.4812 139.519 72.25 138 72.25V73.75ZM135 72.25C133.481 72.25 132.25 73.4812 132.25 75H133.75C133.75 74.3096 134.31 73.75 135 73.75V72.25ZM153.25 92V113H154.75V92H153.25ZM147.75 113V92H146.25V113H147.75ZM149 114.25C148.31 114.25 147.75 113.69 147.75 113H146.25C146.25 114.519 147.481 115.75 149 115.75V114.25ZM153.25 113C153.25 113.69 152.69 114.25 152 114.25V115.75C153.519 115.75 154.75 114.519 154.75 113H153.25ZM152 90.75C152.69 90.75 153.25 91.3096 153.25 92H154.75C154.75 90.4812 153.519 89.25 152 89.25V90.75ZM149 89.25C147.481 89.25 146.25 90.4812 146.25 92H147.75C147.75 91.3096 148.31 90.75 149 90.75V89.25ZM167.25 116V121H168.75V116H167.25ZM161.75 121V116H160.25V121H161.75ZM163 122.25C162.31 122.25 161.75 121.69 161.75 121H160.25C160.25 122.519 161.481 123.75 163 123.75V122.25ZM167.25 121C167.25 121.69 166.69 122.25 166 122.25V123.75C167.519 123.75 168.75 122.519 168.75 121H167.25ZM166 114.75C166.69 114.75 167.25 115.31 167.25 116H168.75C168.75 114.481 167.519 113.25 166 113.25V114.75ZM163 113.25C161.481 113.25 160.25 114.481 160.25 116H161.75C161.75 115.31 162.31 114.75 163 114.75V113.25ZM7.49875 85.5579L25.3067 101.558L26.3092 100.442L8.50125 84.4421L7.49875 85.5579ZM26.1063 101.688L51.4692 90.6881L50.8723 89.3119L25.5095 100.312L26.1063 101.688ZM51.5941 90.6191L74.2587 75.1191L73.412 73.8809L50.7474 89.3809L51.5941 90.6191ZM74.3673 75.0287L93.2545 56.0287L92.1907 54.9713L73.3035 73.9712L74.3673 75.0287ZM92.9395 56.2179L117.763 48.7179L117.329 47.2821L92.5056 54.7821L92.9395 56.2179ZM117.14 48.6307L136.567 61.1307L137.378 59.8693L117.952 47.3693L117.14 48.6307ZM136.351 60.9194L149.842 80.9194L151.085 80.0806L137.594 60.0806L136.351 60.9194ZM149.844 80.9236L163.875 101.424L165.113 100.576L151.082 80.0764L149.844 80.9236ZM163.976 101.542L180.704 117.542L181.741 116.458L165.012 100.458L163.976 101.542ZM7.85536 150.736L25.6633 154.236L25.9526 152.764L8.14464 149.264L7.85536 150.736ZM25.6353 154.23L50.9981 160.23L51.3434 158.77L25.9806 152.77L25.6353 154.23ZM51.1707 160.25H73.8354V158.75H51.1707V160.25ZM74.3528 160.043L93.24 142.043L92.2051 140.957L73.3179 158.957L74.3528 160.043ZM92.4796 142.21L117.303 150.71L117.789 149.29L92.9655 140.79L92.4796 142.21ZM180.745 117.578L186.482 122.316L187.437 121.159L181.7 116.422L180.745 117.578ZM117.055 150.567L144.052 173.941L145.034 172.807L118.037 149.433L117.055 150.567ZM135 73.75H136.5V72.25H135V73.75ZM136.5 73.75H138V72.25H136.5V73.75ZM135.75 71V73H137.25V71H135.75ZM135.75 91V129H137.25V91H135.75ZM138 90.25H136.5V91.75H138V90.25ZM136.5 90.25H135V91.75H136.5V90.25ZM149 90.75H150.5V89.25H149V90.75ZM150.5 90.75H152V89.25H150.5V90.75ZM149.75 84V90H151.25V84H149.75ZM149.75 115V125H151.25V115H149.75ZM152 114.25H150.5V115.75H152V114.25ZM150.5 114.25H149V115.75H150.5V114.25ZM163 114.75H164.5V113.25H163V114.75ZM164.5 114.75H166V113.25H164.5V114.75ZM166 122.25H164.5V123.75H166V122.25ZM164.5 122.25H163V123.75H164.5V122.25ZM163.75 123V144H165.25V123H163.75ZM164.5 108C163.75 108 163.75 108 163.75 108C163.75 108 163.75 108 163.75 108C163.75 108 163.75 108 163.75 108C163.75 108.001 163.75 108.001 163.75 108.001C163.75 108.001 163.75 108.001 163.75 108.001C163.75 108.001 163.75 108.002 163.75 108.002C163.75 108.002 163.75 108.002 163.75 108.003C163.75 108.003 163.75 108.003 163.75 108.003C163.75 108.004 163.75 108.004 163.75 108.004C163.75 108.004 163.75 108.005 163.75 108.005C163.75 108.005 163.75 108.006 163.75 108.006C163.75 108.007 163.75 108.007 163.75 108.007C163.75 108.008 163.75 108.008 163.75 108.009C163.75 108.009 163.75 108.009 163.75 108.01C163.75 108.01 163.75 108.011 163.75 108.011C163.75 108.012 163.75 108.012 163.75 108.013C163.75 108.013 163.75 108.014 163.75 108.015C163.75 108.015 163.75 108.016 163.75 108.016C163.75 108.017 163.75 108.018 163.75 108.018C163.75 108.019 163.75 108.019 163.75 108.02C163.75 108.021 163.75 108.021 163.75 108.022C163.75 108.023 163.75 108.024 163.75 108.024C163.75 108.025 163.75 108.026 163.75 108.027C163.75 108.027 163.75 108.028 163.75 108.029C163.75 108.03 163.75 108.03 163.75 108.031C163.75 108.032 163.75 108.033 163.75 108.034C163.75 108.035 163.75 108.036 163.75 108.036C163.75 108.037 163.75 108.038 163.75 108.039C163.75 108.04 163.75 108.041 163.75 108.042C163.75 108.043 163.75 108.044 163.75 108.045C163.75 108.046 163.75 108.047 163.75 108.048C163.75 108.049 163.75 108.05 163.75 108.051C163.75 108.052 163.75 108.053 163.75 108.054C163.75 108.055 163.75 108.056 163.75 108.057C163.75 108.058 163.75 108.06 163.75 108.061C163.75 108.062 163.75 108.063 163.75 108.064C163.75 108.065 163.75 108.066 163.75 108.068C163.75 108.069 163.75 108.07 163.75 108.071C163.75 108.073 163.75 108.074 163.75 108.075C163.75 108.076 163.75 108.078 163.75 108.079C163.75 108.08 163.75 108.081 163.75 108.083C163.75 108.084 163.75 108.085 163.75 108.087C163.75 108.088 163.75 108.089 163.75 108.091C163.75 108.092 163.75 108.094 163.75 108.095C163.75 108.096 163.75 108.098 163.75 108.099C163.75 108.101 163.75 108.102 163.75 108.104C163.75 108.105 163.75 108.106 163.75 108.108C163.75 108.109 163.75 108.111 163.75 108.112C163.75 108.114 163.75 108.116 163.75 108.117C163.75 108.119 163.75 108.12 163.75 108.122C163.75 108.123 163.75 108.125 163.75 108.127C163.75 108.128 163.75 108.13 163.75 108.131C163.75 108.133 163.75 108.135 163.75 108.136C163.75 108.138 163.75 108.14 163.75 108.141C163.75 108.143 163.75 108.145 163.75 108.146C163.75 108.148 163.75 108.15 163.75 108.152C163.75 108.153 163.75 108.155 163.75 108.157C163.75 108.159 163.75 108.161 163.75 108.162C163.75 108.164 163.75 108.166 163.75 108.168C163.75 108.17 163.75 108.171 163.75 108.173C163.75 108.175 163.75 108.177 163.75 108.179C163.75 108.181 163.75 108.183 163.75 108.185C163.75 108.187 163.75 108.188 163.75 108.19C163.75 108.192 163.75 108.194 163.75 108.196C163.75 108.198 163.75 108.2 163.75 108.202C163.75 108.204 163.75 108.206 163.75 108.208C163.75 108.21 163.75 108.212 163.75 108.214C163.75 108.216 163.75 108.218 163.75 108.221C163.75 108.223 163.75 108.225 163.75 108.227C163.75 108.229 163.75 108.231 163.75 108.233C163.75 108.235 163.75 108.237 163.75 108.24C163.75 108.242 163.75 108.244 163.75 108.246C163.75 108.248 163.75 108.25 163.75 108.253C163.75 108.255 163.75 108.257 163.75 108.259C163.75 108.262 163.75 108.264 163.75 108.266C163.75 108.268 163.75 108.271 163.75 108.273C163.75 108.275 163.75 108.278 163.75 108.28C163.75 108.282 163.75 108.284 163.75 108.287C163.75 108.289 163.75 108.291 163.75 108.294C163.75 108.296 163.75 108.299 163.75 108.301C163.75 108.303 163.75 108.306 163.75 108.308C163.75 108.311 163.75 108.313 163.75 108.315C163.75 108.318 163.75 108.32 163.75 108.323C163.75 108.325 163.75 108.328 163.75 108.33C163.75 108.333 163.75 108.335 163.75 108.338C163.75 108.34 163.75 108.343 163.75 108.345C163.75 108.348 163.75 108.35 163.75 108.353C163.75 108.356 163.75 108.358 163.75 108.361C163.75 108.363 163.75 108.366 163.75 108.369C163.75 108.371 163.75 108.374 163.75 108.376C163.75 108.379 163.75 108.382 163.75 108.384C163.75 108.387 163.75 108.39 163.75 108.392C163.75 108.395 163.75 108.398 163.75 108.4C163.75 108.403 163.75 108.406 163.75 108.409C163.75 108.411 163.75 108.414 163.75 108.417C163.75 108.42 163.75 108.422 163.75 108.425C163.75 108.428 163.75 108.431 163.75 108.434C163.75 108.436 163.75 108.439 163.75 108.442C163.75 108.445 163.75 108.448 163.75 108.451C163.75 108.453 163.75 108.456 163.75 108.459C163.75 108.462 163.75 108.465 163.75 108.468C163.75 108.471 163.75 108.474 163.75 108.476C163.75 108.479 163.75 108.482 163.75 108.485C163.75 108.488 163.75 108.491 163.75 108.494C163.75 108.497 163.75 108.5 163.75 108.503C163.75 108.506 163.75 108.509 163.75 108.512C163.75 108.515 163.75 108.518 163.75 108.521C163.75 108.524 163.75 108.527 163.75 108.53C163.75 108.533 163.75 108.536 163.75 108.539C163.75 108.543 163.75 108.546 163.75 108.549C163.75 108.552 163.75 108.555 163.75 108.558C163.75 108.561 163.75 108.564 163.75 108.567C163.75 108.571 163.75 108.574 163.75 108.577C163.75 108.58 163.75 108.583 163.75 108.586C163.75 108.59 163.75 108.593 163.75 108.596C163.75 108.599 163.75 108.603 163.75 108.606C163.75 108.609 163.75 108.612 163.75 108.615C163.75 108.619 163.75 108.622 163.75 108.625C163.75 108.629 163.75 108.632 163.75 108.635C163.75 108.638 163.75 108.642 163.75 108.645C163.75 108.648 163.75 108.652 163.75 108.655C163.75 108.658 163.75 108.662 163.75 108.665C163.75 108.668 163.75 108.672 163.75 108.675C163.75 108.679 163.75 108.682 163.75 108.685C163.75 108.689 163.75 108.692 163.75 108.696C163.75 108.699 163.75 108.702 163.75 108.706C163.75 108.709 163.75 108.713 163.75 108.716C163.75 108.72 163.75 108.723 163.75 108.727C163.75 108.73 163.75 108.734 163.75 108.737C163.75 108.741 163.75 108.744 163.75 108.748C163.75 108.751 163.75 108.755 163.75 108.758C163.75 108.762 163.75 108.765 163.75 108.769C163.75 108.772 163.75 108.776 163.75 108.779C163.75 108.783 163.75 108.787 163.75 108.79C163.75 108.794 163.75 108.797 163.75 108.801C163.75 108.805 163.75 108.808 163.75 108.812C163.75 108.816 163.75 108.819 163.75 108.823C163.75 108.827 163.75 108.83 163.75 108.834C163.75 108.838 163.75 108.841 163.75 108.845C163.75 108.849 163.75 108.852 163.75 108.856C163.75 108.86 163.75 108.863 163.75 108.867C163.75 108.871 163.75 108.875 163.75 108.878C163.75 108.882 163.75 108.886 163.75 108.89C163.75 108.893 163.75 108.897 163.75 108.901C163.75 108.905 163.75 108.909 163.75 108.912C163.75 108.916 163.75 108.92 163.75 108.924C163.75 108.928 163.75 108.931 163.75 108.935C163.75 108.939 163.75 108.943 163.75 108.947C163.75 108.951 163.75 108.955 163.75 108.958C163.75 108.962 163.75 108.966 163.75 108.97C163.75 108.974 163.75 108.978 163.75 108.982C163.75 108.986 163.75 108.99 163.75 108.994C163.75 108.998 163.75 109.001 163.75 109.005C163.75 109.009 163.75 109.013 163.75 109.017C163.75 109.021 163.75 109.025 163.75 109.029C163.75 109.033 163.75 109.037 163.75 109.041C163.75 109.045 163.75 109.049 163.75 109.053C163.75 109.057 163.75 109.061 163.75 109.065C163.75 109.069 163.75 109.073 163.75 109.077C163.75 109.081 163.75 109.085 163.75 109.089C163.75 109.094 163.75 109.098 163.75 109.102C163.75 109.106 163.75 109.11 163.75 109.114C163.75 109.118 163.75 109.122 163.75 109.126C163.75 109.13 163.75 109.134 163.75 109.139C163.75 109.143 163.75 109.147 163.75 109.151C163.75 109.155 163.75 109.159 163.75 109.163C163.75 109.168 163.75 109.172 163.75 109.176C163.75 109.18 163.75 109.184 163.75 109.189C163.75 109.193 163.75 109.197 163.75 109.201C163.75 109.205 163.75 109.21 163.75 109.214C163.75 109.218 163.75 109.222 163.75 109.226C163.75 109.231 163.75 109.235 163.75 109.239C163.75 109.243 163.75 109.248 163.75 109.252C163.75 109.256 163.75 109.261 163.75 109.265C163.75 109.269 163.75 109.273 163.75 109.278C163.75 109.282 163.75 109.286 163.75 109.291C163.75 109.295 163.75 109.299 163.75 109.304C163.75 109.308 163.75 109.312 163.75 109.317C163.75 109.321 163.75 109.325 163.75 109.33C163.75 109.334 163.75 109.338 163.75 109.343C163.75 109.347 163.75 109.351 163.75 109.356C163.75 109.36 163.75 109.365 163.75 109.369C163.75 109.373 163.75 109.378 163.75 109.382C163.75 109.387 163.75 109.391 163.75 109.395C163.75 109.4 163.75 109.404 163.75 109.409C163.75 109.413 163.75 109.418 163.75 109.422C163.75 109.427 163.75 109.431 163.75 109.435C163.75 109.44 163.75 109.444 163.75 109.449C163.75 109.453 163.75 109.458 163.75 109.462C163.75 109.467 163.75 109.471 163.75 109.476C163.75 109.48 163.75 109.485 163.75 109.489C163.75 109.494 163.75 109.498 163.75 109.503C163.75 109.507 163.75 109.512 163.75 109.517C163.75 109.521 163.75 109.526 163.75 109.53C163.75 109.535 163.75 109.539 163.75 109.544C163.75 109.548 163.75 109.553 163.75 109.558C163.75 109.562 163.75 109.567 163.75 109.571C163.75 109.576 163.75 109.581 163.75 109.585C163.75 109.59 163.75 109.594 163.75 109.599C163.75 109.604 163.75 109.608 163.75 109.613C163.75 109.618 163.75 109.622 163.75 109.627C163.75 109.631 163.75 109.636 163.75 109.641C163.75 109.645 163.75 109.65 163.75 109.655C163.75 109.659 163.75 109.664 163.75 109.669C163.75 109.673 163.75 109.678 163.75 109.683C163.75 109.688 163.75 109.692 163.75 109.697C163.75 109.702 163.75 109.706 163.75 109.711C163.75 109.716 163.75 109.72 163.75 109.725C163.75 109.73 163.75 109.735 163.75 109.739C163.75 109.744 163.75 109.749 163.75 109.754C163.75 109.758 163.75 109.763 163.75 109.768C163.75 109.773 163.75 109.777 163.75 109.782C163.75 109.787 163.75 109.792 163.75 109.796C163.75 109.801 163.75 109.806 163.75 109.811C163.75 109.816 163.75 109.82 163.75 109.825C163.75 109.83 163.75 109.835 163.75 109.84C163.75 109.844 163.75 109.849 163.75 109.854C163.75 109.859 163.75 109.864 163.75 109.868C163.75 109.873 163.75 109.878 163.75 109.883C163.75 109.888 163.75 109.893 163.75 109.898C163.75 109.902 163.75 109.907 163.75 109.912C163.75 109.917 163.75 109.922 163.75 109.927C163.75 109.932 163.75 109.936 163.75 109.941C163.75 109.946 163.75 109.951 163.75 109.956C163.75 109.961 163.75 109.966 163.75 109.971C163.75 109.976 163.75 109.98 163.75 109.985C163.75 109.99 163.75 109.995 163.75 110C163.75 110.005 163.75 110.01 163.75 110.015C163.75 110.02 163.75 110.025 163.75 110.03C163.75 110.035 163.75 110.039 163.75 110.044C163.75 110.049 163.75 110.054 163.75 110.059C163.75 110.064 163.75 110.069 163.75 110.074C163.75 110.079 163.75 110.084 163.75 110.089C163.75 110.094 163.75 110.099 163.75 110.104C163.75 110.109 163.75 110.114 163.75 110.119C163.75 110.124 163.75 110.129 163.75 110.134C163.75 110.139 163.75 110.144 163.75 110.149C163.75 110.154 163.75 110.159 163.75 110.164C163.75 110.169 163.75 110.174 163.75 110.179C163.75 110.184 163.75 110.189 163.75 110.194C163.75 110.199 163.75 110.204 163.75 110.209C163.75 110.214 163.75 110.219 163.75 110.224C163.75 110.229 163.75 110.234 163.75 110.239C163.75 110.244 163.75 110.249 163.75 110.254C163.75 110.259 163.75 110.264 163.75 110.269C163.75 110.274 163.75 110.28 163.75 110.285C163.75 110.29 163.75 110.295 163.75 110.3C163.75 110.305 163.75 110.31 163.75 110.315C163.75 110.32 163.75 110.325 163.75 110.33C163.75 110.335 163.75 110.34 163.75 110.346C163.75 110.351 163.75 110.356 163.75 110.361C163.75 110.366 163.75 110.371 163.75 110.376C163.75 110.381 163.75 110.386 163.75 110.391C163.75 110.397 163.75 110.402 163.75 110.407C163.75 110.412 163.75 110.417 163.75 110.422C163.75 110.427 163.75 110.432 163.75 110.438C163.75 110.443 163.75 110.448 163.75 110.453C163.75 110.458 163.75 110.463 163.75 110.468C163.75 110.473 163.75 110.479 163.75 110.484C163.75 110.489 163.75 110.494 163.75 110.499C163.75 110.504 163.75 110.509 163.75 110.515C163.75 110.52 163.75 110.525 163.75 110.53C163.75 110.535 163.75 110.54 163.75 110.546C163.75 110.551 163.75 110.556 163.75 110.561C163.75 110.566 163.75 110.571 163.75 110.577C163.75 110.582 163.75 110.587 163.75 110.592C163.75 110.597 163.75 110.602 163.75 110.608C163.75 110.613 163.75 110.618 163.75 110.623C163.75 110.628 163.75 110.634 163.75 110.639C163.75 110.644 163.75 110.649 163.75 110.654C163.75 110.66 163.75 110.665 163.75 110.67C163.75 110.675 163.75 110.68 163.75 110.686C163.75 110.691 163.75 110.696 163.75 110.701C163.75 110.706 163.75 110.712 163.75 110.717C163.75 110.722 163.75 110.727 163.75 110.732C163.75 110.738 163.75 110.743 163.75 110.748C163.75 110.753 163.75 110.759 163.75 110.764C163.75 110.769 163.75 110.774 163.75 110.779C163.75 110.785 163.75 110.79 163.75 110.795C163.75 110.8 163.75 110.806 163.75 110.811C163.75 110.816 163.75 110.821 163.75 110.827C163.75 110.832 163.75 110.837 163.75 110.842C163.75 110.847 163.75 110.853 163.75 110.858C163.75 110.863 163.75 110.868 163.75 110.874C163.75 110.879 163.75 110.884 163.75 110.889C163.75 110.895 163.75 110.9 163.75 110.905C163.75 110.91 163.75 110.916 163.75 110.921C163.75 110.926 163.75 110.931 163.75 110.937C163.75 110.942 163.75 110.947 163.75 110.952C163.75 110.958 163.75 110.963 163.75 110.968C163.75 110.973 163.75 110.979 163.75 110.984C163.75 110.989 163.75 110.994 163.75 111C163.75 111.005 163.75 111.01 163.75 111.016C163.75 111.021 163.75 111.026 163.75 111.031C163.75 111.037 163.75 111.042 163.75 111.047C163.75 111.052 163.75 111.058 163.75 111.063C163.75 111.068 163.75 111.073 163.75 111.079C163.75 111.084 163.75 111.089 163.75 111.094C163.75 111.1 163.75 111.105 163.75 111.11C163.75 111.116 163.75 111.121 163.75 111.126C163.75 111.131 163.75 111.137 163.75 111.142C163.75 111.147 163.75 111.152 163.75 111.158C163.75 111.163 163.75 111.168 163.75 111.174C163.75 111.179 163.75 111.184 163.75 111.189C163.75 111.195 163.75 111.2 163.75 111.205C163.75 111.21 163.75 111.216 163.75 111.221C163.75 111.226 163.75 111.232 163.75 111.237C163.75 111.242 163.75 111.247 163.75 111.253C163.75 111.258 163.75 111.263 163.75 111.268C163.75 111.274 163.75 111.279 163.75 111.284C163.75 111.29 163.75 111.295 163.75 111.3C163.75 111.305 163.75 111.311 163.75 111.316C163.75 111.321 163.75 111.326 163.75 111.332C163.75 111.337 163.75 111.342 163.75 111.348C163.75 111.353 163.75 111.358 163.75 111.363C163.75 111.369 163.75 111.374 163.75 111.379C163.75 111.384 163.75 111.39 163.75 111.395C163.75 111.4 163.75 111.406 163.75 111.411C163.75 111.416 163.75 111.421 163.75 111.427C163.75 111.432 163.75 111.437 163.75 111.442C163.75 111.448 163.75 111.453 163.75 111.458C163.75 111.463 163.75 111.469 163.75 111.474C163.75 111.479 163.75 111.484 163.75 111.49C163.75 111.495 163.75 111.5 163.75 111.506C163.75 111.511 163.75 111.516 163.75 111.521C163.75 111.527 163.75 111.532 163.75 111.537C163.75 111.542 163.75 111.548 163.75 111.553C163.75 111.558 163.75 111.563 163.75 111.569C163.75 111.574 163.75 111.579 163.75 111.584C163.75 111.59 163.75 111.595 163.75 111.6C163.75 111.605 163.75 111.611 163.75 111.616C163.75 111.621 163.75 111.626 163.75 111.631C163.75 111.637 163.75 111.642 163.75 111.647C163.75 111.652 163.75 111.658 163.75 111.663C163.75 111.668 163.75 111.673 163.75 111.679C163.75 111.684 163.75 111.689 163.75 111.694C163.75 111.7 163.75 111.705 163.75 111.71C163.75 111.715 163.75 111.72 163.75 111.726C163.75 111.731 163.75 111.736 163.75 111.741C163.75 111.747 163.75 111.752 163.75 111.757C163.75 111.762 163.75 111.767 163.75 111.773C163.75 111.778 163.75 111.783 163.75 111.788C163.75 111.793 163.75 111.799 163.75 111.804C163.75 111.809 163.75 111.814 163.75 111.819C163.75 111.825 163.75 111.83 163.75 111.835C163.75 111.84 163.75 111.845 163.75 111.851C163.75 111.856 163.75 111.861 163.75 111.866C163.75 111.871 163.75 111.876 163.75 111.882C163.75 111.887 163.75 111.892 163.75 111.897C163.75 111.902 163.75 111.908 163.75 111.913C163.75 111.918 163.75 111.923 163.75 111.928C163.75 111.933 163.75 111.939 163.75 111.944C163.75 111.949 163.75 111.954 163.75 111.959C163.75 111.964 163.75 111.97 163.75 111.975C163.75 111.98 163.75 111.985 163.75 111.99C163.75 111.995 163.75 112 163.75 112.006C163.75 112.011 163.75 112.016 163.75 112.021C163.75 112.026 163.75 112.031 163.75 112.036C163.75 112.041 163.75 112.047 163.75 112.052C163.75 112.057 163.75 112.062 163.75 112.067C163.75 112.072 163.75 112.077 163.75 112.082C163.75 112.088 163.75 112.093 163.75 112.098C163.75 112.103 163.75 112.108 163.75 112.113C163.75 112.118 163.75 112.123 163.75 112.128C163.75 112.133 163.75 112.139 163.75 112.144C163.75 112.149 163.75 112.154 163.75 112.159C163.75 112.164 163.75 112.169 163.75 112.174C163.75 112.179 163.75 112.184 163.75 112.189C163.75 112.194 163.75 112.199 163.75 112.205C163.75 112.21 163.75 112.215 163.75 112.22C163.75 112.225 163.75 112.23 163.75 112.235C163.75 112.24 163.75 112.245 163.75 112.25C163.75 112.255 163.75 112.26 163.75 112.265C163.75 112.27 163.75 112.275 163.75 112.28C163.75 112.285 163.75 112.29 163.75 112.295C163.75 112.3 163.75 112.305 163.75 112.31C163.75 112.315 163.75 112.32 163.75 112.325C163.75 112.33 163.75 112.335 163.75 112.34C163.75 112.345 163.75 112.35 163.75 112.355C163.75 112.36 163.75 112.365 163.75 112.37C163.75 112.375 163.75 112.38 163.75 112.385C163.75 112.39 163.75 112.395 163.75 112.4C163.75 112.405 163.75 112.41 163.75 112.415C163.75 112.42 163.75 112.425 163.75 112.43C163.75 112.435 163.75 112.44 163.75 112.445C163.75 112.449 163.75 112.454 163.75 112.459C163.75 112.464 163.75 112.469 163.75 112.474C163.75 112.479 163.75 112.484 163.75 112.489C163.75 112.494 163.75 112.499 163.75 112.504C163.75 112.508 163.75 112.513 163.75 112.518C163.75 112.523 163.75 112.528 163.75 112.533C163.75 112.538 163.75 112.543 163.75 112.547C163.75 112.552 163.75 112.557 163.75 112.562C163.75 112.567 163.75 112.572 163.75 112.577C163.75 112.582 163.75 112.586 163.75 112.591C163.75 112.596 163.75 112.601 163.75 112.606C163.75 112.611 163.75 112.615 163.75 112.62C163.75 112.625 163.75 112.63 163.75 112.635C163.75 112.639 163.75 112.644 163.75 112.649C163.75 112.654 163.75 112.659 163.75 112.663C163.75 112.668 163.75 112.673 163.75 112.678C163.75 112.683 163.75 112.687 163.75 112.692C163.75 112.697 163.75 112.702 163.75 112.706C163.75 112.711 163.75 112.716 163.75 112.721C163.75 112.725 163.75 112.73 163.75 112.735C163.75 112.74 163.75 112.744 163.75 112.749C163.75 112.754 163.75 112.759 163.75 112.763C163.75 112.768 163.75 112.773 163.75 112.777C163.75 112.782 163.75 112.787 163.75 112.792C163.75 112.796 163.75 112.801 163.75 112.806C163.75 112.81 163.75 112.815 163.75 112.82C163.75 112.824 163.75 112.829 163.75 112.834C163.75 112.838 163.75 112.843 163.75 112.848C163.75 112.852 163.75 112.857 163.75 112.862C163.75 112.866 163.75 112.871 163.75 112.875C163.75 112.88 163.75 112.885 163.75 112.889C163.75 112.894 163.75 112.898 163.75 112.903C163.75 112.908 163.75 112.912 163.75 112.917C163.75 112.921 163.75 112.926 163.75 112.931C163.75 112.935 163.75 112.94 163.75 112.944C163.75 112.949 163.75 112.953 163.75 112.958C163.75 112.963 163.75 112.967 163.75 112.972C163.75 112.976 163.75 112.981 163.75 112.985C163.75 112.99 163.75 112.994 163.75 112.999C163.75 113.003 163.75 113.008 163.75 113.012C163.75 113.017 163.75 113.021 163.75 113.026C163.75 113.03 163.75 113.035 163.75 113.039C163.75 113.044 163.75 113.048 163.75 113.053C163.75 113.057 163.75 113.062 163.75 113.066C163.75 113.07 163.75 113.075 163.75 113.079C163.75 113.084 163.75 113.088 163.75 113.093C163.75 113.097 163.75 113.101 163.75 113.106C163.75 113.11 163.75 113.115 163.75 113.119C163.75 113.123 163.75 113.128 163.75 113.132C163.75 113.136 163.75 113.141 163.75 113.145C163.75 113.15 163.75 113.154 163.75 113.158C163.75 113.163 163.75 113.167 163.75 113.171C163.75 113.176 163.75 113.18 163.75 113.184C163.75 113.189 163.75 113.193 163.75 113.197C163.75 113.201 163.75 113.206 163.75 113.21C163.75 113.214 163.75 113.219 163.75 113.223C163.75 113.227 163.75 113.231 163.75 113.236C163.75 113.24 163.75 113.244 163.75 113.248C163.75 113.253 163.75 113.257 163.75 113.261C163.75 113.265 163.75 113.27 163.75 113.274C163.75 113.278 163.75 113.282 163.75 113.286C163.75 113.291 163.75 113.295 163.75 113.299C163.75 113.303 163.75 113.307 163.75 113.312C163.75 113.316 163.75 113.32 163.75 113.324C163.75 113.328 163.75 113.332 163.75 113.336C163.75 113.341 163.75 113.345 163.75 113.349C163.75 113.353 163.75 113.357 163.75 113.361C163.75 113.365 163.75 113.369 163.75 113.373C163.75 113.377 163.75 113.382 163.75 113.386C163.75 113.39 163.75 113.394 163.75 113.398C163.75 113.402 163.75 113.406 163.75 113.41C163.75 113.414 163.75 113.418 163.75 113.422C163.75 113.426 163.75 113.43 163.75 113.434C163.75 113.438 163.75 113.442 163.75 113.446C163.75 113.45 163.75 113.454 163.75 113.458C163.75 113.462 163.75 113.466 163.75 113.47C163.75 113.474 163.75 113.478 163.75 113.482C163.75 113.486 163.75 113.49 163.75 113.493C163.75 113.497 163.75 113.501 163.75 113.505C163.75 113.509 163.75 113.513 163.75 113.517C163.75 113.521 163.75 113.525 163.75 113.528C163.75 113.532 163.75 113.536 163.75 113.54C163.75 113.544 163.75 113.548 163.75 113.552C163.75 113.555 163.75 113.559 163.75 113.563C163.75 113.567 163.75 113.571 163.75 113.574C163.75 113.578 163.75 113.582 163.75 113.586C163.75 113.59 163.75 113.593 163.75 113.597C163.75 113.601 163.75 113.605 163.75 113.608C163.75 113.612 163.75 113.616 163.75 113.62C163.75 113.623 163.75 113.627 163.75 113.631C163.75 113.634 163.75 113.638 163.75 113.642C163.75 113.645 163.75 113.649 163.75 113.653C163.75 113.656 163.75 113.66 163.75 113.664C163.75 113.667 163.75 113.671 163.75 113.675C163.75 113.678 163.75 113.682 163.75 113.685C163.75 113.689 163.75 113.693 163.75 113.696C163.75 113.7 163.75 113.703 163.75 113.707C163.75 113.711 163.75 113.714 163.75 113.718C163.75 113.721 163.75 113.725 163.75 113.728C163.75 113.732 163.75 113.735 163.75 113.739C163.75 113.742 163.75 113.746 163.75 113.749C163.75 113.753 163.75 113.756 163.75 113.76C163.75 113.763 163.75 113.767 163.75 113.77C163.75 113.774 163.75 113.777 163.75 113.78C163.75 113.784 163.75 113.787 163.75 113.791C163.75 113.794 163.75 113.797 163.75 113.801C163.75 113.804 163.75 113.808 163.75 113.811C163.75 113.814 163.75 113.818 163.75 113.821C163.75 113.824 163.75 113.828 163.75 113.831C163.75 113.834 163.75 113.838 163.75 113.841C163.75 113.844 163.75 113.848 163.75 113.851C163.75 113.854 163.75 113.857 163.75 113.861C163.75 113.864 163.75 113.867 163.75 113.87C163.75 113.874 163.75 113.877 163.75 113.88C163.75 113.883 163.75 113.886 163.75 113.89C163.75 113.893 163.75 113.896 163.75 113.899C163.75 113.902 163.75 113.906 163.75 113.909C163.75 113.912 163.75 113.915 163.75 113.918C163.75 113.921 163.75 113.924 163.75 113.928C163.75 113.931 163.75 113.934 163.75 113.937C163.75 113.94 163.75 113.943 163.75 113.946C163.75 113.949 163.75 113.952 163.75 113.955C163.75 113.958 163.75 113.961 163.75 113.964C163.75 113.967 163.75 113.97 163.75 113.973C163.75 113.976 163.75 113.979 163.75 113.982C163.75 113.985 163.75 113.988 163.75 113.991C163.75 113.994 163.75 113.997 163.75 114H165.25C165.25 113.997 165.25 113.994 165.25 113.991C165.25 113.988 165.25 113.985 165.25 113.982C165.25 113.979 165.25 113.976 165.25 113.973C165.25 113.97 165.25 113.967 165.25 113.964C165.25 113.961 165.25 113.958 165.25 113.955C165.25 113.952 165.25 113.949 165.25 113.946C165.25 113.943 165.25 113.94 165.25 113.937C165.25 113.934 165.25 113.931 165.25 113.928C165.25 113.924 165.25 113.921 165.25 113.918C165.25 113.915 165.25 113.912 165.25 113.909C165.25 113.906 165.25 113.902 165.25 113.899C165.25 113.896 165.25 113.893 165.25 113.89C165.25 113.886 165.25 113.883 165.25 113.88C165.25 113.877 165.25 113.874 165.25 113.87C165.25 113.867 165.25 113.864 165.25 113.861C165.25 113.857 165.25 113.854 165.25 113.851C165.25 113.848 165.25 113.844 165.25 113.841C165.25 113.838 165.25 113.834 165.25 113.831C165.25 113.828 165.25 113.824 165.25 113.821C165.25 113.818 165.25 113.814 165.25 113.811C165.25 113.808 165.25 113.804 165.25 113.801C165.25 113.797 165.25 113.794 165.25 113.791C165.25 113.787 165.25 113.784 165.25 113.78C165.25 113.777 165.25 113.774 165.25 113.77C165.25 113.767 165.25 113.763 165.25 113.76C165.25 113.756 165.25 113.753 165.25 113.749C165.25 113.746 165.25 113.742 165.25 113.739C165.25 113.735 165.25 113.732 165.25 113.728C165.25 113.725 165.25 113.721 165.25 113.718C165.25 113.714 165.25 113.711 165.25 113.707C165.25 113.703 165.25 113.7 165.25 113.696C165.25 113.693 165.25 113.689 165.25 113.685C165.25 113.682 165.25 113.678 165.25 113.675C165.25 113.671 165.25 113.667 165.25 113.664C165.25 113.66 165.25 113.656 165.25 113.653C165.25 113.649 165.25 113.645 165.25 113.642C165.25 113.638 165.25 113.634 165.25 113.631C165.25 113.627 165.25 113.623 165.25 113.62C165.25 113.616 165.25 113.612 165.25 113.608C165.25 113.605 165.25 113.601 165.25 113.597C165.25 113.593 165.25 113.59 165.25 113.586C165.25 113.582 165.25 113.578 165.25 113.574C165.25 113.571 165.25 113.567 165.25 113.563C165.25 113.559 165.25 113.555 165.25 113.552C165.25 113.548 165.25 113.544 165.25 113.54C165.25 113.536 165.25 113.532 165.25 113.528C165.25 113.525 165.25 113.521 165.25 113.517C165.25 113.513 165.25 113.509 165.25 113.505C165.25 113.501 165.25 113.497 165.25 113.493C165.25 113.49 165.25 113.486 165.25 113.482C165.25 113.478 165.25 113.474 165.25 113.47C165.25 113.466 165.25 113.462 165.25 113.458C165.25 113.454 165.25 113.45 165.25 113.446C165.25 113.442 165.25 113.438 165.25 113.434C165.25 113.43 165.25 113.426 165.25 113.422C165.25 113.418 165.25 113.414 165.25 113.41C165.25 113.406 165.25 113.402 165.25 113.398C165.25 113.394 165.25 113.39 165.25 113.386C165.25 113.382 165.25 113.377 165.25 113.373C165.25 113.369 165.25 113.365 165.25 113.361C165.25 113.357 165.25 113.353 165.25 113.349C165.25 113.345 165.25 113.341 165.25 113.336C165.25 113.332 165.25 113.328 165.25 113.324C165.25 113.32 165.25 113.316 165.25 113.312C165.25 113.307 165.25 113.303 165.25 113.299C165.25 113.295 165.25 113.291 165.25 113.286C165.25 113.282 165.25 113.278 165.25 113.274C165.25 113.27 165.25 113.265 165.25 113.261C165.25 113.257 165.25 113.253 165.25 113.248C165.25 113.244 165.25 113.24 165.25 113.236C165.25 113.231 165.25 113.227 165.25 113.223C165.25 113.219 165.25 113.214 165.25 113.21C165.25 113.206 165.25 113.201 165.25 113.197C165.25 113.193 165.25 113.189 165.25 113.184C165.25 113.18 165.25 113.176 165.25 113.171C165.25 113.167 165.25 113.163 165.25 113.158C165.25 113.154 165.25 113.15 165.25 113.145C165.25 113.141 165.25 113.136 165.25 113.132C165.25 113.128 165.25 113.123 165.25 113.119C165.25 113.115 165.25 113.11 165.25 113.106C165.25 113.101 165.25 113.097 165.25 113.093C165.25 113.088 165.25 113.084 165.25 113.079C165.25 113.075 165.25 113.07 165.25 113.066C165.25 113.062 165.25 113.057 165.25 113.053C165.25 113.048 165.25 113.044 165.25 113.039C165.25 113.035 165.25 113.03 165.25 113.026C165.25 113.021 165.25 113.017 165.25 113.012C165.25 113.008 165.25 113.003 165.25 112.999C165.25 112.994 165.25 112.99 165.25 112.985C165.25 112.981 165.25 112.976 165.25 112.972C165.25 112.967 165.25 112.963 165.25 112.958C165.25 112.953 165.25 112.949 165.25 112.944C165.25 112.94 165.25 112.935 165.25 112.931C165.25 112.926 165.25 112.921 165.25 112.917C165.25 112.912 165.25 112.908 165.25 112.903C165.25 112.898 165.25 112.894 165.25 112.889C165.25 112.885 165.25 112.88 165.25 112.875C165.25 112.871 165.25 112.866 165.25 112.862C165.25 112.857 165.25 112.852 165.25 112.848C165.25 112.843 165.25 112.838 165.25 112.834C165.25 112.829 165.25 112.824 165.25 112.82C165.25 112.815 165.25 112.81 165.25 112.806C165.25 112.801 165.25 112.796 165.25 112.792C165.25 112.787 165.25 112.782 165.25 112.777C165.25 112.773 165.25 112.768 165.25 112.763C165.25 112.759 165.25 112.754 165.25 112.749C165.25 112.744 165.25 112.74 165.25 112.735C165.25 112.73 165.25 112.725 165.25 112.721C165.25 112.716 165.25 112.711 165.25 112.706C165.25 112.702 165.25 112.697 165.25 112.692C165.25 112.687 165.25 112.683 165.25 112.678C165.25 112.673 165.25 112.668 165.25 112.663C165.25 112.659 165.25 112.654 165.25 112.649C165.25 112.644 165.25 112.639 165.25 112.635C165.25 112.63 165.25 112.625 165.25 112.62C165.25 112.615 165.25 112.611 165.25 112.606C165.25 112.601 165.25 112.596 165.25 112.591C165.25 112.586 165.25 112.582 165.25 112.577C165.25 112.572 165.25 112.567 165.25 112.562C165.25 112.557 165.25 112.552 165.25 112.547C165.25 112.543 165.25 112.538 165.25 112.533C165.25 112.528 165.25 112.523 165.25 112.518C165.25 112.513 165.25 112.508 165.25 112.504C165.25 112.499 165.25 112.494 165.25 112.489C165.25 112.484 165.25 112.479 165.25 112.474C165.25 112.469 165.25 112.464 165.25 112.459C165.25 112.454 165.25 112.449 165.25 112.445C165.25 112.44 165.25 112.435 165.25 112.43C165.25 112.425 165.25 112.42 165.25 112.415C165.25 112.41 165.25 112.405 165.25 112.4C165.25 112.395 165.25 112.39 165.25 112.385C165.25 112.38 165.25 112.375 165.25 112.37C165.25 112.365 165.25 112.36 165.25 112.355C165.25 112.35 165.25 112.345 165.25 112.34C165.25 112.335 165.25 112.33 165.25 112.325C165.25 112.32 165.25 112.315 165.25 112.31C165.25 112.305 165.25 112.3 165.25 112.295C165.25 112.29 165.25 112.285 165.25 112.28C165.25 112.275 165.25 112.27 165.25 112.265C165.25 112.26 165.25 112.255 165.25 112.25C165.25 112.245 165.25 112.24 165.25 112.235C165.25 112.23 165.25 112.225 165.25 112.22C165.25 112.215 165.25 112.21 165.25 112.205C165.25 112.199 165.25 112.194 165.25 112.189C165.25 112.184 165.25 112.179 165.25 112.174C165.25 112.169 165.25 112.164 165.25 112.159C165.25 112.154 165.25 112.149 165.25 112.144C165.25 112.139 165.25 112.133 165.25 112.128C165.25 112.123 165.25 112.118 165.25 112.113C165.25 112.108 165.25 112.103 165.25 112.098C165.25 112.093 165.25 112.088 165.25 112.082C165.25 112.077 165.25 112.072 165.25 112.067C165.25 112.062 165.25 112.057 165.25 112.052C165.25 112.047 165.25 112.041 165.25 112.036C165.25 112.031 165.25 112.026 165.25 112.021C165.25 112.016 165.25 112.011 165.25 112.006C165.25 112 165.25 111.995 165.25 111.99C165.25 111.985 165.25 111.98 165.25 111.975C165.25 111.97 165.25 111.964 165.25 111.959C165.25 111.954 165.25 111.949 165.25 111.944C165.25 111.939 165.25 111.933 165.25 111.928C165.25 111.923 165.25 111.918 165.25 111.913C165.25 111.908 165.25 111.902 165.25 111.897C165.25 111.892 165.25 111.887 165.25 111.882C165.25 111.876 165.25 111.871 165.25 111.866C165.25 111.861 165.25 111.856 165.25 111.851C165.25 111.845 165.25 111.84 165.25 111.835C165.25 111.83 165.25 111.825 165.25 111.819C165.25 111.814 165.25 111.809 165.25 111.804C165.25 111.799 165.25 111.793 165.25 111.788C165.25 111.783 165.25 111.778 165.25 111.773C165.25 111.767 165.25 111.762 165.25 111.757C165.25 111.752 165.25 111.747 165.25 111.741C165.25 111.736 165.25 111.731 165.25 111.726C165.25 111.72 165.25 111.715 165.25 111.71C165.25 111.705 165.25 111.7 165.25 111.694C165.25 111.689 165.25 111.684 165.25 111.679C165.25 111.673 165.25 111.668 165.25 111.663C165.25 111.658 165.25 111.652 165.25 111.647C165.25 111.642 165.25 111.637 165.25 111.631C165.25 111.626 165.25 111.621 165.25 111.616C165.25 111.611 165.25 111.605 165.25 111.6C165.25 111.595 165.25 111.59 165.25 111.584C165.25 111.579 165.25 111.574 165.25 111.569C165.25 111.563 165.25 111.558 165.25 111.553C165.25 111.548 165.25 111.542 165.25 111.537C165.25 111.532 165.25 111.527 165.25 111.521C165.25 111.516 165.25 111.511 165.25 111.506C165.25 111.5 165.25 111.495 165.25 111.49C165.25 111.484 165.25 111.479 165.25 111.474C165.25 111.469 165.25 111.463 165.25 111.458C165.25 111.453 165.25 111.448 165.25 111.442C165.25 111.437 165.25 111.432 165.25 111.427C165.25 111.421 165.25 111.416 165.25 111.411C165.25 111.406 165.25 111.4 165.25 111.395C165.25 111.39 165.25 111.384 165.25 111.379C165.25 111.374 165.25 111.369 165.25 111.363C165.25 111.358 165.25 111.353 165.25 111.348C165.25 111.342 165.25 111.337 165.25 111.332C165.25 111.326 165.25 111.321 165.25 111.316C165.25 111.311 165.25 111.305 165.25 111.3C165.25 111.295 165.25 111.29 165.25 111.284C165.25 111.279 165.25 111.274 165.25 111.268C165.25 111.263 165.25 111.258 165.25 111.253C165.25 111.247 165.25 111.242 165.25 111.237C165.25 111.232 165.25 111.226 165.25 111.221C165.25 111.216 165.25 111.21 165.25 111.205C165.25 111.2 165.25 111.195 165.25 111.189C165.25 111.184 165.25 111.179 165.25 111.174C165.25 111.168 165.25 111.163 165.25 111.158C165.25 111.152 165.25 111.147 165.25 111.142C165.25 111.137 165.25 111.131 165.25 111.126C165.25 111.121 165.25 111.116 165.25 111.11C165.25 111.105 165.25 111.1 165.25 111.094C165.25 111.089 165.25 111.084 165.25 111.079C165.25 111.073 165.25 111.068 165.25 111.063C165.25 111.058 165.25 111.052 165.25 111.047C165.25 111.042 165.25 111.037 165.25 111.031C165.25 111.026 165.25 111.021 165.25 111.016C165.25 111.01 165.25 111.005 165.25 111C165.25 110.994 165.25 110.989 165.25 110.984C165.25 110.979 165.25 110.973 165.25 110.968C165.25 110.963 165.25 110.958 165.25 110.952C165.25 110.947 165.25 110.942 165.25 110.937C165.25 110.931 165.25 110.926 165.25 110.921C165.25 110.916 165.25 110.91 165.25 110.905C165.25 110.9 165.25 110.895 165.25 110.889C165.25 110.884 165.25 110.879 165.25 110.874C165.25 110.868 165.25 110.863 165.25 110.858C165.25 110.853 165.25 110.847 165.25 110.842C165.25 110.837 165.25 110.832 165.25 110.827C165.25 110.821 165.25 110.816 165.25 110.811C165.25 110.806 165.25 110.8 165.25 110.795C165.25 110.79 165.25 110.785 165.25 110.779C165.25 110.774 165.25 110.769 165.25 110.764C165.25 110.759 165.25 110.753 165.25 110.748C165.25 110.743 165.25 110.738 165.25 110.732C165.25 110.727 165.25 110.722 165.25 110.717C165.25 110.712 165.25 110.706 165.25 110.701C165.25 110.696 165.25 110.691 165.25 110.686C165.25 110.68 165.25 110.675 165.25 110.67C165.25 110.665 165.25 110.66 165.25 110.654C165.25 110.649 165.25 110.644 165.25 110.639C165.25 110.634 165.25 110.628 165.25 110.623C165.25 110.618 165.25 110.613 165.25 110.608C165.25 110.602 165.25 110.597 165.25 110.592C165.25 110.587 165.25 110.582 165.25 110.577C165.25 110.571 165.25 110.566 165.25 110.561C165.25 110.556 165.25 110.551 165.25 110.546C165.25 110.54 165.25 110.535 165.25 110.53C165.25 110.525 165.25 110.52 165.25 110.515C165.25 110.509 165.25 110.504 165.25 110.499C165.25 110.494 165.25 110.489 165.25 110.484C165.25 110.479 165.25 110.473 165.25 110.468C165.25 110.463 165.25 110.458 165.25 110.453C165.25 110.448 165.25 110.443 165.25 110.438C165.25 110.432 165.25 110.427 165.25 110.422C165.25 110.417 165.25 110.412 165.25 110.407C165.25 110.402 165.25 110.397 165.25 110.391C165.25 110.386 165.25 110.381 165.25 110.376C165.25 110.371 165.25 110.366 165.25 110.361C165.25 110.356 165.25 110.351 165.25 110.346C165.25 110.34 165.25 110.335 165.25 110.33C165.25 110.325 165.25 110.32 165.25 110.315C165.25 110.31 165.25 110.305 165.25 110.3C165.25 110.295 165.25 110.29 165.25 110.285C165.25 110.28 165.25 110.274 165.25 110.269C165.25 110.264 165.25 110.259 165.25 110.254C165.25 110.249 165.25 110.244 165.25 110.239C165.25 110.234 165.25 110.229 165.25 110.224C165.25 110.219 165.25 110.214 165.25 110.209C165.25 110.204 165.25 110.199 165.25 110.194C165.25 110.189 165.25 110.184 165.25 110.179C165.25 110.174 165.25 110.169 165.25 110.164C165.25 110.159 165.25 110.154 165.25 110.149C165.25 110.144 165.25 110.139 165.25 110.134C165.25 110.129 165.25 110.124 165.25 110.119C165.25 110.114 165.25 110.109 165.25 110.104C165.25 110.099 165.25 110.094 165.25 110.089C165.25 110.084 165.25 110.079 165.25 110.074C165.25 110.069 165.25 110.064 165.25 110.059C165.25 110.054 165.25 110.049 165.25 110.044C165.25 110.039 165.25 110.035 165.25 110.03C165.25 110.025 165.25 110.02 165.25 110.015C165.25 110.01 165.25 110.005 165.25 110C165.25 109.995 165.25 109.99 165.25 109.985C165.25 109.98 165.25 109.976 165.25 109.971C165.25 109.966 165.25 109.961 165.25 109.956C165.25 109.951 165.25 109.946 165.25 109.941C165.25 109.936 165.25 109.932 165.25 109.927C165.25 109.922 165.25 109.917 165.25 109.912C165.25 109.907 165.25 109.902 165.25 109.898C165.25 109.893 165.25 109.888 165.25 109.883C165.25 109.878 165.25 109.873 165.25 109.868C165.25 109.864 165.25 109.859 165.25 109.854C165.25 109.849 165.25 109.844 165.25 109.84C165.25 109.835 165.25 109.83 165.25 109.825C165.25 109.82 165.25 109.816 165.25 109.811C165.25 109.806 165.25 109.801 165.25 109.796C165.25 109.792 165.25 109.787 165.25 109.782C165.25 109.777 165.25 109.773 165.25 109.768C165.25 109.763 165.25 109.758 165.25 109.754C165.25 109.749 165.25 109.744 165.25 109.739C165.25 109.735 165.25 109.73 165.25 109.725C165.25 109.72 165.25 109.716 165.25 109.711C165.25 109.706 165.25 109.702 165.25 109.697C165.25 109.692 165.25 109.688 165.25 109.683C165.25 109.678 165.25 109.673 165.25 109.669C165.25 109.664 165.25 109.659 165.25 109.655C165.25 109.65 165.25 109.645 165.25 109.641C165.25 109.636 165.25 109.631 165.25 109.627C165.25 109.622 165.25 109.618 165.25 109.613C165.25 109.608 165.25 109.604 165.25 109.599C165.25 109.594 165.25 109.59 165.25 109.585C165.25 109.581 165.25 109.576 165.25 109.571C165.25 109.567 165.25 109.562 165.25 109.558C165.25 109.553 165.25 109.548 165.25 109.544C165.25 109.539 165.25 109.535 165.25 109.53C165.25 109.526 165.25 109.521 165.25 109.517C165.25 109.512 165.25 109.507 165.25 109.503C165.25 109.498 165.25 109.494 165.25 109.489C165.25 109.485 165.25 109.48 165.25 109.476C165.25 109.471 165.25 109.467 165.25 109.462C165.25 109.458 165.25 109.453 165.25 109.449C165.25 109.444 165.25 109.44 165.25 109.435C165.25 109.431 165.25 109.427 165.25 109.422C165.25 109.418 165.25 109.413 165.25 109.409C165.25 109.404 165.25 109.4 165.25 109.395C165.25 109.391 165.25 109.387 165.25 109.382C165.25 109.378 165.25 109.373 165.25 109.369C165.25 109.365 165.25 109.36 165.25 109.356C165.25 109.351 165.25 109.347 165.25 109.343C165.25 109.338 165.25 109.334 165.25 109.33C165.25 109.325 165.25 109.321 165.25 109.317C165.25 109.312 165.25 109.308 165.25 109.304C165.25 109.299 165.25 109.295 165.25 109.291C165.25 109.286 165.25 109.282 165.25 109.278C165.25 109.273 165.25 109.269 165.25 109.265C165.25 109.261 165.25 109.256 165.25 109.252C165.25 109.248 165.25 109.243 165.25 109.239C165.25 109.235 165.25 109.231 165.25 109.226C165.25 109.222 165.25 109.218 165.25 109.214C165.25 109.21 165.25 109.205 165.25 109.201C165.25 109.197 165.25 109.193 165.25 109.189C165.25 109.184 165.25 109.18 165.25 109.176C165.25 109.172 165.25 109.168 165.25 109.163C165.25 109.159 165.25 109.155 165.25 109.151C165.25 109.147 165.25 109.143 165.25 109.139C165.25 109.134 165.25 109.13 165.25 109.126C165.25 109.122 165.25 109.118 165.25 109.114C165.25 109.11 165.25 109.106 165.25 109.102C165.25 109.098 165.25 109.094 165.25 109.089C165.25 109.085 165.25 109.081 165.25 109.077C165.25 109.073 165.25 109.069 165.25 109.065C165.25 109.061 165.25 109.057 165.25 109.053C165.25 109.049 165.25 109.045 165.25 109.041C165.25 109.037 165.25 109.033 165.25 109.029C165.25 109.025 165.25 109.021 165.25 109.017C165.25 109.013 165.25 109.009 165.25 109.005C165.25 109.001 165.25 108.998 165.25 108.994C165.25 108.99 165.25 108.986 165.25 108.982C165.25 108.978 165.25 108.974 165.25 108.97C165.25 108.966 165.25 108.962 165.25 108.958C165.25 108.955 165.25 108.951 165.25 108.947C165.25 108.943 165.25 108.939 165.25 108.935C165.25 108.931 165.25 108.928 165.25 108.924C165.25 108.92 165.25 108.916 165.25 108.912C165.25 108.909 165.25 108.905 165.25 108.901C165.25 108.897 165.25 108.893 165.25 108.89C165.25 108.886 165.25 108.882 165.25 108.878C165.25 108.875 165.25 108.871 165.25 108.867C165.25 108.863 165.25 108.86 165.25 108.856C165.25 108.852 165.25 108.849 165.25 108.845C165.25 108.841 165.25 108.838 165.25 108.834C165.25 108.83 165.25 108.827 165.25 108.823C165.25 108.819 165.25 108.816 165.25 108.812C165.25 108.808 165.25 108.805 165.25 108.801C165.25 108.797 165.25 108.794 165.25 108.79C165.25 108.787 165.25 108.783 165.25 108.779C165.25 108.776 165.25 108.772 165.25 108.769C165.25 108.765 165.25 108.762 165.25 108.758C165.25 108.755 165.25 108.751 165.25 108.748C165.25 108.744 165.25 108.741 165.25 108.737C165.25 108.734 165.25 108.73 165.25 108.727C165.25 108.723 165.25 108.72 165.25 108.716C165.25 108.713 165.25 108.709 165.25 108.706C165.25 108.702 165.25 108.699 165.25 108.696C165.25 108.692 165.25 108.689 165.25 108.685C165.25 108.682 165.25 108.679 165.25 108.675C165.25 108.672 165.25 108.668 165.25 108.665C165.25 108.662 165.25 108.658 165.25 108.655C165.25 108.652 165.25 108.648 165.25 108.645C165.25 108.642 165.25 108.638 165.25 108.635C165.25 108.632 165.25 108.629 165.25 108.625C165.25 108.622 165.25 108.619 165.25 108.615C165.25 108.612 165.25 108.609 165.25 108.606C165.25 108.603 165.25 108.599 165.25 108.596C165.25 108.593 165.25 108.59 165.25 108.586C165.25 108.583 165.25 108.58 165.25 108.577C165.25 108.574 165.25 108.571 165.25 108.567C165.25 108.564 165.25 108.561 165.25 108.558C165.25 108.555 165.25 108.552 165.25 108.549C165.25 108.546 165.25 108.543 165.25 108.539C165.25 108.536 165.25 108.533 165.25 108.53C165.25 108.527 165.25 108.524 165.25 108.521C165.25 108.518 165.25 108.515 165.25 108.512C165.25 108.509 165.25 108.506 165.25 108.503C165.25 108.5 165.25 108.497 165.25 108.494C165.25 108.491 165.25 108.488 165.25 108.485C165.25 108.482 165.25 108.479 165.25 108.476C165.25 108.474 165.25 108.471 165.25 108.468C165.25 108.465 165.25 108.462 165.25 108.459C165.25 108.456 165.25 108.453 165.25 108.451C165.25 108.448 165.25 108.445 165.25 108.442C165.25 108.439 165.25 108.436 165.25 108.434C165.25 108.431 165.25 108.428 165.25 108.425C165.25 108.422 165.25 108.42 165.25 108.417C165.25 108.414 165.25 108.411 165.25 108.409C165.25 108.406 165.25 108.403 165.25 108.4C165.25 108.398 165.25 108.395 165.25 108.392C165.25 108.39 165.25 108.387 165.25 108.384C165.25 108.382 165.25 108.379 165.25 108.376C165.25 108.374 165.25 108.371 165.25 108.369C165.25 108.366 165.25 108.363 165.25 108.361C165.25 108.358 165.25 108.356 165.25 108.353C165.25 108.35 165.25 108.348 165.25 108.345C165.25 108.343 165.25 108.34 165.25 108.338C165.25 108.335 165.25 108.333 165.25 108.33C165.25 108.328 165.25 108.325 165.25 108.323C165.25 108.32 165.25 108.318 165.25 108.315C165.25 108.313 165.25 108.311 165.25 108.308C165.25 108.306 165.25 108.303 165.25 108.301C165.25 108.299 165.25 108.296 165.25 108.294C165.25 108.291 165.25 108.289 165.25 108.287C165.25 108.284 165.25 108.282 165.25 108.28C165.25 108.278 165.25 108.275 165.25 108.273C165.25 108.271 165.25 108.268 165.25 108.266C165.25 108.264 165.25 108.262 165.25 108.259C165.25 108.257 165.25 108.255 165.25 108.253C165.25 108.25 165.25 108.248 165.25 108.246C165.25 108.244 165.25 108.242 165.25 108.24C165.25 108.237 165.25 108.235 165.25 108.233C165.25 108.231 165.25 108.229 165.25 108.227C165.25 108.225 165.25 108.223 165.25 108.221C165.25 108.218 165.25 108.216 165.25 108.214C165.25 108.212 165.25 108.21 165.25 108.208C165.25 108.206 165.25 108.204 165.25 108.202C165.25 108.2 165.25 108.198 165.25 108.196C165.25 108.194 165.25 108.192 165.25 108.19C165.25 108.188 165.25 108.187 165.25 108.185C165.25 108.183 165.25 108.181 165.25 108.179C165.25 108.177 165.25 108.175 165.25 108.173C165.25 108.171 165.25 108.17 165.25 108.168C165.25 108.166 165.25 108.164 165.25 108.162C165.25 108.161 165.25 108.159 165.25 108.157C165.25 108.155 165.25 108.153 165.25 108.152C165.25 108.15 165.25 108.148 165.25 108.146C165.25 108.145 165.25 108.143 165.25 108.141C165.25 108.14 165.25 108.138 165.25 108.136C165.25 108.135 165.25 108.133 165.25 108.131C165.25 108.13 165.25 108.128 165.25 108.127C165.25 108.125 165.25 108.123 165.25 108.122C165.25 108.12 165.25 108.119 165.25 108.117C165.25 108.116 165.25 108.114 165.25 108.112C165.25 108.111 165.25 108.109 165.25 108.108C165.25 108.106 165.25 108.105 165.25 108.104C165.25 108.102 165.25 108.101 165.25 108.099C165.25 108.098 165.25 108.096 165.25 108.095C165.25 108.094 165.25 108.092 165.25 108.091C165.25 108.089 165.25 108.088 165.25 108.087C165.25 108.085 165.25 108.084 165.25 108.083C165.25 108.081 165.25 108.08 165.25 108.079C165.25 108.078 165.25 108.076 165.25 108.075C165.25 108.074 165.25 108.073 165.25 108.071C165.25 108.07 165.25 108.069 165.25 108.068C165.25 108.066 165.25 108.065 165.25 108.064C165.25 108.063 165.25 108.062 165.25 108.061C165.25 108.06 165.25 108.058 165.25 108.057C165.25 108.056 165.25 108.055 165.25 108.054C165.25 108.053 165.25 108.052 165.25 108.051C165.25 108.05 165.25 108.049 165.25 108.048C165.25 108.047 165.25 108.046 165.25 108.045C165.25 108.044 165.25 108.043 165.25 108.042C165.25 108.041 165.25 108.04 165.25 108.039C165.25 108.038 165.25 108.037 165.25 108.036C165.25 108.036 165.25 108.035 165.25 108.034C165.25 108.033 165.25 108.032 165.25 108.031C165.25 108.03 165.25 108.03 165.25 108.029C165.25 108.028 165.25 108.027 165.25 108.027C165.25 108.026 165.25 108.025 165.25 108.024C165.25 108.024 165.25 108.023 165.25 108.022C165.25 108.021 165.25 108.021 165.25 108.02C165.25 108.019 165.25 108.019 165.25 108.018C165.25 108.018 165.25 108.017 165.25 108.016C165.25 108.016 165.25 108.015 165.25 108.015C165.25 108.014 165.25 108.013 165.25 108.013C165.25 108.012 165.25 108.012 165.25 108.011C165.25 108.011 165.25 108.01 165.25 108.01C165.25 108.009 165.25 108.009 165.25 108.009C165.25 108.008 165.25 108.008 165.25 108.007C165.25 108.007 165.25 108.007 165.25 108.006C165.25 108.006 165.25 108.005 165.25 108.005C165.25 108.005 165.25 108.004 165.25 108.004C165.25 108.004 165.25 108.004 165.25 108.003C165.25 108.003 165.25 108.003 165.25 108.003C165.25 108.002 165.25 108.002 165.25 108.002C165.25 108.002 165.25 108.001 165.25 108.001C165.25 108.001 165.25 108.001 165.25 108.001C165.25 108.001 165.25 108.001 165.25 108C165.25 108 165.25 108 165.25 108C165.25 108 165.25 108 165.25 108C165.25 108 165.25 108 164.5 108Z" fill="#979797"/>
<rect y="6" width="362" height="224" fill="url(#paint0_linear_55_3)"/>
<defs>
<filter id="filter0_f_55_3" x="173" y="50" width="172" height="117" filterUnits="userSpaceOnUse" color-interpolation-filters="sRGB">
<feFlood flood-opacity="0" result="BackgroundImageFix"/>
<feBlend mode="normal" in="SourceGraphic" in2="BackgroundImageFix" result="shape"/>
<feGaussianBlur stdDeviation="2.5" result="effect1_foregroundBlur_55_3"/>
</filter>
<filter id="filter1_f_55_3" x="92.8409" y="0.0479012" width="274.909" height="234.952" filterUnits="userSpaceOnUse" color-interpolation-filters="sRGB">
<feFlood flood-opacity="0" result="BackgroundImageFix"/>
<feBlend mode="normal" in="SourceGraphic" in2="BackgroundImageFix" result="shape"/>
<feGaussianBlur stdDeviation="2.5" result="effect1_foregroundBlur_55_3"/>
</filter>
<linearGradient id="paint0_linear_55_3" x1="1.77922e-08" y1="129.5" x2="361.999" y2="126.886" gradientUnits="userSpaceOnUse">
<stop stop-opacity="0.8"/>
<stop offset="0.500838" stop-opacity="0.5"/>
<stop offset="1" stop-opacity="0"/>
</linearGradient>
</defs>
</svg>
