<svg width="372" height="257" viewBox="0 0 372 257" fill="none" xmlns="http://www.w3.org/2000/svg">
<g clip-path="url(#clip0_17_145)">
<path opacity="0.6" d="M250.25 65C250.25 100.484 221.484 129.25 186 129.25C150.516 129.25 121.75 100.484 121.75 65C121.75 29.5157 150.516 0.75 186 0.75C221.484 0.75 250.25 29.5157 250.25 65Z" fill="url(#paint0_linear_17_145)" stroke="url(#paint1_linear_17_145)" stroke-width="1.5"/>
<path d="M215.205 56.9563C216.481 48.4413 209.993 43.8628 201.129 40.8078L204.005 29.2703L196.985 27.5234L194.182 38.7562C192.338 38.2931 190.444 37.8625 188.555 37.4319L191.379 26.1259L184.359 24.375L181.483 35.9084C179.955 35.5591 178.452 35.2178 176.998 34.8522L177.006 34.8156L167.321 32.3984L165.452 39.8978C165.452 39.8978 170.664 41.0922 170.554 41.1653C173.398 41.8763 173.91 43.7572 173.825 45.2522L170.55 58.3944C170.745 58.4431 170.997 58.5163 171.282 58.6259L170.538 58.4431L165.948 76.8544C165.598 77.7156 164.717 79.0116 162.726 78.52C162.799 78.6216 157.623 77.2484 157.623 77.2484L154.138 85.2841L163.278 87.5631C164.977 87.9897 166.642 88.4366 168.279 88.855L165.375 100.522L172.391 102.269L175.267 90.7319C177.184 91.2478 179.045 91.7272 180.865 92.1822L177.997 103.671L185.017 105.418L187.922 93.7747C199.898 96.0416 208.9 95.1275 212.691 84.2969C215.746 75.5788 212.54 70.5453 206.239 67.2669C210.83 66.2106 214.283 63.1922 215.205 56.9563ZM199.158 79.4544C196.993 88.1766 182.307 83.46 177.546 82.2778L181.405 66.82C186.167 68.0103 201.429 70.3625 199.158 79.4544ZM201.332 56.8303C199.353 64.7644 187.133 60.7303 183.173 59.7431L186.666 45.7275C190.627 46.7147 203.396 48.555 201.332 56.8303Z" fill="#FBEEDD"/>
</g>
<g clip-path="url(#clip1_17_145)">
<path opacity="0.6" d="M129.25 192C129.25 227.484 100.484 256.25 65 256.25C29.5157 256.25 0.75 227.484 0.75 192C0.75 156.516 29.5157 127.75 65 127.75C100.484 127.75 129.25 156.516 129.25 192Z" fill="url(#paint2_linear_17_145)" stroke="url(#paint3_linear_17_145)" stroke-width="1.5"/>
<path d="M67.0231 143.25V179.284L97.4797 192.894L67.0231 143.25Z" fill="white" fill-opacity="0.602"/>
<path d="M67.0231 143.25L36.5625 192.894L67.0231 179.284V143.25Z" fill="white"/>
<path d="M67.0231 216.245V240.73L97.5 198.565L67.0231 216.245Z" fill="white" fill-opacity="0.602"/>
<path d="M67.0231 240.73V216.241L36.5625 198.565L67.0231 240.73Z" fill="white"/>
<path d="M67.0231 210.578L97.4797 192.894L67.0231 179.293V210.578Z" fill="white" fill-opacity="0.2"/>
<path d="M36.5625 192.894L67.0231 210.578V179.293L36.5625 192.894Z" fill="white" fill-opacity="0.602"/>
</g>
<g clip-path="url(#clip2_17_145)">
<path opacity="0.6" d="M371.25 192C371.25 227.484 342.484 256.25 307 256.25C271.516 256.25 242.75 227.484 242.75 192C242.75 156.516 271.516 127.75 307 127.75C342.484 127.75 371.25 156.516 371.25 192Z" fill="url(#paint4_linear_17_145)" stroke="url(#paint5_linear_17_145)" stroke-width="1.5"/>
<path fill-rule="evenodd" clip-rule="evenodd" d="M314.808 197.618V197.61C314.361 197.643 312.058 197.781 306.919 197.781C302.816 197.781 299.927 197.659 298.912 197.61V197.622C283.117 196.928 271.327 194.177 271.327 190.887C271.327 187.6 283.117 184.85 298.912 184.143V194.884C299.943 194.957 302.901 195.132 306.988 195.132C311.891 195.132 314.349 194.929 314.808 194.888V184.151C330.571 184.854 342.332 187.604 342.332 190.887C342.332 194.177 330.571 196.92 314.808 197.618ZM314.808 183.034V173.422H336.802V158.765H276.917V173.422H298.912V183.03C281.037 183.851 267.594 187.393 267.594 191.634C267.594 195.876 281.037 199.414 298.912 200.239V231.041H314.808V200.231C332.655 199.41 346.065 195.872 346.065 191.634C346.065 187.397 332.655 183.859 314.808 183.034Z" fill="#EBFFF9"/>
</g>
<path d="M64 112C64 112.552 64.4477 113 65 113C65.5523 113 66 112.552 66 112H64ZM102.707 78.7071C103.098 78.3166 103.098 77.6834 102.707 77.2929L96.3431 70.9289C95.9526 70.5384 95.3195 70.5384 94.9289 70.9289C94.5384 71.3195 94.5384 71.9526 94.9289 72.3431L100.586 78L94.9289 83.6569C94.5384 84.0474 94.5384 84.6805 94.9289 85.0711C95.3195 85.4616 95.9526 85.4616 96.3431 85.0711L102.707 78.7071ZM99 79H102V77H99V79ZM66 112C66 93.7746 80.7746 79 99 79V77C79.67 77 64 92.67 64 112H66Z" fill="url(#paint6_linear_17_145)"/>
<path d="M211.912 205.87C212.302 205.48 212.302 204.846 211.912 204.456C211.521 204.065 210.888 204.065 210.497 204.456L211.912 205.87ZM161 202.042C160.448 202.042 160 202.489 160 203.042L160 212.042C160 212.594 160.448 213.042 161 213.042C161.552 213.042 162 212.594 162 212.042L162 204.042L170 204.042C170.552 204.042 171 203.594 171 203.042C171 202.489 170.552 202.042 170 202.042L161 202.042ZM163.828 204.456L161.707 202.335L160.293 203.749L162.414 205.87L163.828 204.456ZM210.497 204.456C197.61 217.343 176.716 217.343 163.828 204.456L162.414 205.87C176.083 219.538 198.243 219.538 211.912 205.87L210.497 204.456Z" fill="url(#paint7_linear_17_145)"/>
<path d="M272.017 73.0609C271.465 73.0465 271.006 73.4823 270.991 74.0344C270.977 74.5865 271.413 75.0458 271.965 75.0602L272.017 73.0609ZM304.284 112.628C304.664 113.028 305.297 113.045 305.697 112.665L312.226 106.47C312.627 106.09 312.643 105.457 312.263 105.056C311.883 104.656 311.25 104.639 310.849 105.019L305.046 110.526L299.54 104.722C299.159 104.322 298.526 104.305 298.126 104.685C297.725 105.065 297.709 105.698 298.089 106.099L304.284 112.628ZM304.088 108.914L304.009 111.913L306.009 111.966L306.087 108.967L304.088 108.914ZM271.965 75.0602C290.184 75.5381 304.566 90.695 304.088 108.914L306.087 108.967C306.594 89.6433 291.34 73.5678 272.017 73.0609L271.965 75.0602Z" fill="url(#paint8_linear_17_145)"/>
<defs>
<linearGradient id="paint0_linear_17_145" x1="159.92" y1="6.41975" x2="235.352" y2="134.815" gradientUnits="userSpaceOnUse">
<stop stop-color="#FFC175" stop-opacity="0.6"/>
<stop offset="1" stop-color="#91560F" stop-opacity="0"/>
</linearGradient>
<linearGradient id="paint1_linear_17_145" x1="142.667" y1="10.0309" x2="238.16" y2="117.16" gradientUnits="userSpaceOnUse">
<stop stop-color="#FFBD6D"/>
<stop offset="1" stop-color="#91560F" stop-opacity="0"/>
</linearGradient>
<linearGradient id="paint2_linear_17_145" x1="38.9198" y1="133.42" x2="114.352" y2="261.815" gradientUnits="userSpaceOnUse">
<stop stop-color="#7D98FF" stop-opacity="0.6"/>
<stop offset="1" stop-color="#627EEA" stop-opacity="0"/>
</linearGradient>
<linearGradient id="paint3_linear_17_145" x1="21.6667" y1="137.031" x2="105.67" y2="230.855" gradientUnits="userSpaceOnUse">
<stop stop-color="#627EEA"/>
<stop offset="1" stop-color="#627EEA" stop-opacity="0"/>
</linearGradient>
<linearGradient id="paint4_linear_17_145" x1="280.92" y1="133.42" x2="356.352" y2="261.815" gradientUnits="userSpaceOnUse">
<stop stop-color="#26A17B" stop-opacity="0.6"/>
<stop offset="1" stop-color="#26A17B" stop-opacity="0"/>
</linearGradient>
<linearGradient id="paint5_linear_17_145" x1="263.667" y1="137.031" x2="347.67" y2="230.855" gradientUnits="userSpaceOnUse">
<stop stop-color="#26A17B"/>
<stop offset="1" stop-color="#26A17B" stop-opacity="0"/>
</linearGradient>
<linearGradient id="paint6_linear_17_145" x1="83.5" y1="78" x2="83.5" y2="112" gradientUnits="userSpaceOnUse">
<stop stop-color="#979797"/>
<stop offset="1" stop-color="#979797" stop-opacity="0"/>
</linearGradient>
<linearGradient id="paint7_linear_17_145" x1="174.081" y1="216.123" x2="198.123" y2="192.081" gradientUnits="userSpaceOnUse">
<stop stop-color="#979797"/>
<stop offset="1" stop-color="#979797" stop-opacity="0"/>
</linearGradient>
<linearGradient id="paint8_linear_17_145" x1="305.494" y1="93.4457" x2="271.506" y2="92.5542" gradientUnits="userSpaceOnUse">
<stop stop-color="#979797"/>
<stop offset="1" stop-color="#979797" stop-opacity="0"/>
</linearGradient>
<clipPath id="clip0_17_145">
<rect width="130" height="130" fill="white" transform="translate(121)"/>
</clipPath>
<clipPath id="clip1_17_145">
<rect width="130" height="130" fill="white" transform="translate(0 127)"/>
</clipPath>
<clipPath id="clip2_17_145">
<rect width="130" height="130" fill="white" transform="translate(242 127)"/>
</clipPath>
</defs>
</svg>
