<svg width="377" height="242" viewBox="0 0 377 242" fill="none" xmlns="http://www.w3.org/2000/svg">
<path d="M0.500015 241L0.500015 241.75L2.00002 241.75L2.00002 241L0.500015 241ZM2.00002 241L2 -3.27835e-08L0.500005 3.27835e-08L0.500015 241L2.00002 241Z" fill="url(#paint0_linear_15_91)"/>
<path d="M2.00002 240.25H1.25002V241.75H2.00002V240.25ZM2.00002 241.75H365V240.25H2.00002V241.75Z" fill="url(#paint1_linear_15_91)"/>
<g filter="url(#filter0_f_15_91)">
<path d="M123.5 159C123.617 158.883 123.82 158.723 124.095 158.528C127.337 156.23 140.617 149.078 142 150C143.026 150.684 144.287 157.688 145.461 162.524M235 176C235.099 176.028 235.244 176.027 235.427 175.999C237.882 167.493 241.151 153.547 241.5 152.5C242 151 248.5 145 249.5 145.5C250.5 146 253 158.5 254.5 159C256 159.5 260.5 151.5 261.5 150C262.5 148.5 270.5 123.5 270.5 122.5C270.5 121.5 287 92.5 287.5 91C288 89.5 293 56.5 294 56C295 55.5 301 62.5 302.5 62.5C304 62.5 310.5 52.5 311.5 53C312.5 53.5 315.5 74 316.5 74.5C317.5 75 322 67.5 324 67C326 66.5 334 87.5 335.5 88C337 88.5 341.5 83.5 342 82C342.5 80.5 345.5 62.5 346.5 62.5C347.11 62.5 349.769 71.0656 351.976 77.7423M53.7086 119.802C53.3738 112.727 53.1247 107.874 53 107.5C52.5 106 49 99.5 47.5 100C46 100.5 43.5 115 42 114C40.5 113 40 58 39 56C38 54 36.5 61.5 35.5 62.5C34.5 63.5 32.5 31.5 32.5 28.5C32.5 25.5 31 24 29 21C27 18 27 62.5 26 67C25 71.5 24 95.5 22.5 100C21.6349 102.595 12.786 116.335 5.45058 127.5M86.5727 124.634C87.1011 117.774 87.8006 107.5 88.5 107.5C89.5 107.5 91.5 121.5 92.5 122.5C92.5821 122.582 92.691 122.718 92.8225 122.899M186.098 168.989C187.454 160.601 189.177 143.758 191.5 145.5C194.5 147.75 198 165 199 167C199.204 167.408 199.825 168.108 200.7 168.968" stroke="url(#paint2_linear_15_91)" stroke-width="1.5" stroke-linecap="round"/>
</g>
<path d="M123.5 159C123.617 158.883 123.82 158.723 124.095 158.528C127.337 156.23 140.617 149.078 142 150C143.026 150.684 144.287 157.688 145.461 162.524M235 176C235.099 176.028 235.244 176.027 235.427 175.999C237.882 167.493 241.151 153.547 241.5 152.5C242 151 248.5 145 249.5 145.5C250.5 146 253 158.5 254.5 159C256 159.5 260.5 151.5 261.5 150C262.5 148.5 270.5 123.5 270.5 122.5C270.5 121.5 287 92.5 287.5 91C288 89.5 293 56.5 294 56C295 55.5 301 62.5 302.5 62.5C304 62.5 310.5 52.5 311.5 53C312.5 53.5 315.5 74 316.5 74.5C317.5 75 322 67.5 324 67C326 66.5 334 87.5 335.5 88C337 88.5 341.5 83.5 342 82C342.5 80.5 345.5 62.5 346.5 62.5C347.11 62.5 349.769 71.0656 351.976 77.7423M53.7086 119.802C53.3738 112.727 53.1247 107.874 53 107.5C52.5 106 49 99.5 47.5 100C46 100.5 43.5 115 42 114C40.5 113 40 58 39 56C38 54 36.5 61.5 35.5 62.5C34.5 63.5 32.5 31.5 32.5 28.5C32.5 25.5 31 24 29 21C27 18 27 62.5 26 67C25 71.5 24 95.5 22.5 100C21.6349 102.595 12.786 116.335 5.45058 127.5M86.5727 124.634C87.1011 117.774 87.8006 107.5 88.5 107.5C89.5 107.5 91.5 121.5 92.5 122.5C92.5821 122.582 92.691 122.718 92.8225 122.899M186.098 168.989C187.454 160.601 189.177 143.758 191.5 145.5C194.5 147.75 198 165 199 167C199.204 167.408 199.825 168.108 200.7 168.968" stroke="url(#paint3_linear_15_91)" stroke-width="1.5" stroke-linecap="round"/>
<g filter="url(#filter1_f_15_91)">
<path d="M92.5 122.5C92.5821 122.582 92.691 122.718 92.8225 122.899C94.2935 124.93 98.5821 132.664 99.5 134.5C100.5 136.5 102.5 157 103.5 159C104.5 161 111 173.5 112.5 173.5C114 173.5 122 160.5 123.5 159C123.617 158.883 123.82 158.723 124.095 158.528M364 74.5C364 74.5 356 85.5 355 85.5C354.61 85.5 353.385 82.0064 351.976 77.7423M235 176C235.099 176.028 235.244 176.027 235.427 175.999C234.364 179.685 233.453 182.349 233 182.5C231.5 183 226 173.5 224.5 173.5C223 173.5 215 179 213 178.5C211.408 178.102 204.115 172.32 200.7 168.968M53.7086 119.802C54.716 141.092 56.4989 182.5 58 182.5C60 182.5 60.5 142.5 61.5 142.5C62.5 142.5 60.5 212.5 61.5 215.5C62.5 218.5 66.5 225 68.5 224.5C70.5 224 74.5 192 75 189C75.5 186 81.5 169 83 167C84.5 165 85.5 132.5 86 130.5C86.1503 129.899 86.3457 127.582 86.5727 124.634M145.461 162.524C146.003 164.756 146.526 166.526 147 167C148.5 168.5 166 184.5 168.5 185C171 185.5 183.5 175 185 173.5C185.339 173.161 185.703 171.435 186.098 168.989" stroke="url(#paint4_linear_15_91)" stroke-width="1.5" stroke-linecap="round"/>
</g>
<path d="M92.5 122.5C92.5821 122.582 92.691 122.718 92.8225 122.899C94.2935 124.93 98.5821 132.664 99.5 134.5C100.5 136.5 102.5 157 103.5 159C104.5 161 111 173.5 112.5 173.5C114 173.5 122 160.5 123.5 159C123.617 158.883 123.82 158.723 124.095 158.528M364 74.5C364 74.5 356 85.5 355 85.5C354.61 85.5 353.385 82.0064 351.976 77.7423M235 176C235.099 176.028 235.244 176.027 235.427 175.999C234.364 179.685 233.453 182.349 233 182.5C231.5 183 226 173.5 224.5 173.5C223 173.5 215 179 213 178.5C211.408 178.102 204.115 172.32 200.7 168.968M53.7086 119.802C54.716 141.092 56.4989 182.5 58 182.5C60 182.5 60.5 142.5 61.5 142.5C62.5 142.5 60.5 212.5 61.5 215.5C62.5 218.5 66.5 225 68.5 224.5C70.5 224 74.5 192 75 189C75.5 186 81.5 169 83 167C84.5 165 85.5 132.5 86 130.5C86.1503 129.899 86.3457 127.582 86.5727 124.634M145.461 162.524C146.003 164.756 146.526 166.526 147 167C148.5 168.5 166 184.5 168.5 185C171 185.5 183.5 175 185 173.5C185.339 173.161 185.703 171.435 186.098 168.989" stroke="url(#paint5_linear_15_91)" stroke-width="1.5" stroke-linecap="round"/>
<g filter="url(#filter2_f_15_91)">
<path d="M70 124.5L69.7628 125.212L70 124.5ZM87.5 124.5L87.6819 125.228L87.5 124.5ZM93.5 123L93.2628 123.712L93.5 123ZM127.5 160L127.737 159.288L127.5 160ZM235 176L234.794 176.721L235 176ZM283.5 153.5L284.072 153.985V153.985L283.5 153.5ZM317.5 107L318.124 107.416L317.5 107ZM349.5 79L349.084 78.376L349.5 79ZM362 73.5L362.237 74.2115L362 73.5ZM53.7086 119.802L53.2048 119.246L53.7086 119.802ZM86.5727 124.634L86.6449 125.381L86.5727 124.634ZM124.095 158.528L124.418 157.851L124.095 158.528ZM145.461 162.524L145.149 161.842L145.461 162.524ZM186.098 168.989L186.303 169.711L186.098 168.989ZM200.7 168.968L200.827 168.228L200.7 168.968ZM235.427 175.999L235.538 176.741L235.427 175.999ZM351.976 77.7423L351.66 77.0619L351.976 77.7423ZM5.12533 157.978C4.76651 158.185 4.64338 158.643 4.85031 159.002C5.05725 159.361 5.51588 159.484 5.8747 159.277L5.12533 157.978ZM124.124 159.446C124.441 159.18 124.481 158.707 124.215 158.39C123.948 158.073 123.475 158.032 123.158 158.299L124.124 159.446ZM123.496 158.035C123.163 158.28 123.091 158.75 123.336 159.084C123.582 159.417 124.051 159.489 124.385 159.243L123.496 158.035ZM124.619 159.604C124.994 159.778 125.44 159.615 125.615 159.239C125.789 158.863 125.625 158.417 125.25 158.243L124.619 159.604ZM126.916 158.978C126.533 158.821 126.095 159.005 125.938 159.388C125.781 159.772 125.965 160.21 126.348 160.366L126.916 158.978ZM128.363 161.37C128.692 161.621 129.163 161.557 129.414 161.227C129.665 160.898 129.601 160.427 129.271 160.176L128.363 161.37ZM131.637 162.13C131.308 161.879 130.837 161.943 130.586 162.273C130.335 162.602 130.399 163.073 130.729 163.324L131.637 162.13ZM133.753 164.426C134.166 164.451 134.521 164.136 134.546 163.722C134.57 163.309 134.255 162.954 133.841 162.929L133.753 164.426ZM136.42 162.968C136.005 162.972 135.674 163.312 135.678 163.726C135.683 164.14 136.023 164.472 136.437 164.468L136.42 162.968ZM139.085 164.402C139.499 164.388 139.823 164.041 139.809 163.627C139.794 163.213 139.447 162.889 139.033 162.903L139.085 164.402ZM141.657 162.798C141.243 162.816 140.922 163.165 140.939 163.579C140.957 163.993 141.307 164.314 141.721 164.296L141.657 162.798ZM143.902 164.014C144.289 163.866 144.482 163.432 144.334 163.045C144.187 162.659 143.753 162.465 143.366 162.613L143.902 164.014ZM144.551 162.112C144.172 162.281 144.002 162.724 144.171 163.103C144.34 163.481 144.783 163.651 145.162 163.482L144.551 162.112ZM147.282 162.502C147.656 162.325 147.816 161.878 147.639 161.504C147.462 161.129 147.015 160.969 146.641 161.146L147.282 162.502ZM149.627 159.718C149.254 159.897 149.097 160.345 149.276 160.719C149.456 161.092 149.904 161.249 150.278 161.069L149.627 159.718ZM153.264 159.636C153.638 159.458 153.797 159.011 153.619 158.637C153.441 158.263 152.993 158.104 152.619 158.282L153.264 159.636ZM155.65 156.88C155.271 157.046 155.098 157.488 155.264 157.868C155.43 158.247 155.872 158.42 156.251 158.254L155.65 156.88ZM158.574 158.378C158.932 158.587 159.391 158.465 159.6 158.108C159.809 157.75 159.687 157.291 159.33 157.082L158.574 158.378ZM162.158 158.806C161.807 158.586 161.344 158.693 161.125 159.045C160.905 159.396 161.012 159.859 161.364 160.078L162.158 158.806ZM164.142 161.829C164.491 162.051 164.955 161.947 165.177 161.597C165.398 161.247 165.295 160.784 164.945 160.562L164.142 161.829ZM167.718 162.325C167.369 162.102 166.905 162.205 166.683 162.555C166.461 162.904 166.564 163.368 166.913 163.59L167.718 162.325ZM169.689 165.353C170.039 165.575 170.503 165.47 170.724 165.12C170.946 164.771 170.842 164.307 170.492 164.086L169.689 165.353ZM173.27 165.835C172.918 165.615 172.456 165.722 172.236 166.073C172.017 166.424 172.124 166.887 172.475 167.107L173.27 165.835ZM175.282 168.838C175.636 169.052 176.097 168.939 176.312 168.585C176.526 168.23 176.413 167.769 176.059 167.555L175.282 168.838ZM178.867 169.188C178.502 168.991 178.047 169.127 177.85 169.491C177.653 169.856 177.789 170.311 178.153 170.508L178.867 169.188ZM181.718 170.948C182.121 170.852 182.37 170.448 182.273 170.045C182.177 169.642 181.773 169.393 181.37 169.489L181.718 170.948ZM184.383 168.693C183.984 168.804 183.751 169.218 183.862 169.617C183.973 170.016 184.387 170.249 184.786 170.138L184.383 168.693ZM188.148 169.184C188.546 169.07 188.777 168.655 188.663 168.256C188.549 167.858 188.133 167.628 187.735 167.742L188.148 169.184ZM191.439 166.699C191.039 166.807 190.802 167.218 190.909 167.618C191.017 168.018 191.428 168.255 191.828 168.148L191.439 166.699ZM195.108 168.136C195.506 168.252 195.922 168.022 196.037 167.625C196.152 167.227 195.923 166.811 195.525 166.696L195.108 168.136ZM199.106 167.78C198.709 167.663 198.292 167.89 198.175 168.287C198.057 168.684 198.284 169.101 198.681 169.219L199.106 167.78ZM200.664 169.721C201.074 169.782 201.456 169.5 201.517 169.09C201.578 168.68 201.295 168.299 200.885 168.238L200.664 169.721ZM200.98 168.249C200.567 168.218 200.207 168.528 200.177 168.941C200.146 169.354 200.456 169.714 200.869 169.745L200.98 168.249ZM202.75 169.75C203.164 169.75 203.5 169.414 203.5 169C203.5 168.586 203.164 168.25 202.75 168.25V169.75ZM206.25 168.25C205.836 168.25 205.5 168.586 205.5 169C205.5 169.414 205.836 169.75 206.25 169.75V168.25ZM209.206 169.975C209.611 170.063 210.011 169.807 210.099 169.402C210.188 168.998 209.932 168.598 209.527 168.509L209.206 169.975ZM212.26 169.156C211.858 169.056 211.451 169.302 211.352 169.704C211.253 170.106 211.498 170.513 211.9 170.612L212.26 169.156ZM214.601 171.293C215.002 171.396 215.411 171.154 215.514 170.753C215.616 170.351 215.374 169.943 214.973 169.84L214.601 171.293ZM217.682 170.541C217.281 170.437 216.871 170.677 216.767 171.077C216.662 171.478 216.902 171.888 217.303 171.993L217.682 170.541ZM219.999 172.702C220.399 172.808 220.81 172.569 220.916 172.169C221.022 171.768 220.783 171.358 220.383 171.252L219.999 172.702ZM223.082 171.97C222.682 171.863 222.271 172.101 222.164 172.501C222.057 172.901 222.294 173.312 222.695 173.419L223.082 171.97ZM225.39 174.143C225.79 174.251 226.201 174.014 226.309 173.614C226.417 173.214 226.18 172.802 225.78 172.694L225.39 174.143ZM228.476 173.424C228.076 173.315 227.664 173.551 227.556 173.951C227.447 174.351 227.683 174.763 228.083 174.872L228.476 173.424ZM230.777 175.607C231.176 175.716 231.589 175.481 231.698 175.082C231.808 174.682 231.573 174.269 231.173 174.16L230.777 175.607ZM233.864 174.902C233.465 174.791 233.052 175.025 232.941 175.424C232.83 175.823 233.063 176.236 233.462 176.347L233.864 174.902ZM235.046 176.766C235.459 176.798 235.821 176.49 235.854 176.077C235.886 175.664 235.578 175.303 235.165 175.27L235.046 176.766ZM235.246 175.267C234.834 175.308 234.533 175.675 234.574 176.088C234.616 176.5 234.983 176.8 235.395 176.759L235.246 175.267ZM237.387 176.192C237.775 176.046 237.971 175.614 237.825 175.226C237.68 174.838 237.247 174.642 236.859 174.788L237.387 176.192ZM240.085 173.42C239.708 173.591 239.541 174.035 239.712 174.413C239.882 174.79 240.327 174.957 240.704 174.786L240.085 173.42ZM243.936 173.287C244.311 173.111 244.472 172.664 244.296 172.29C244.12 171.915 243.673 171.754 243.298 171.93L243.936 173.287ZM246.537 170.43C246.159 170.598 245.988 171.041 246.155 171.419C246.323 171.798 246.766 171.969 247.145 171.801L246.537 170.43ZM249.78 171.146C250.191 171.101 250.489 170.731 250.444 170.319C250.399 169.908 250.029 169.61 249.617 169.655L249.78 171.146ZM251.988 169.359C251.577 169.415 251.29 169.793 251.346 170.204C251.402 170.614 251.781 170.901 252.191 170.845L251.988 169.359ZM254.591 170.491C255 170.426 255.278 170.041 255.213 169.632C255.148 169.223 254.763 168.944 254.354 169.01L254.591 170.491ZM256.686 168.59C256.281 168.676 256.022 169.074 256.109 169.479C256.195 169.885 256.594 170.143 256.999 170.057L256.686 168.59ZM259.451 168.924C259.785 168.679 259.857 168.209 259.612 167.875C259.367 167.541 258.897 167.469 258.564 167.714L259.451 168.924ZM260.499 166.256C260.169 166.507 260.104 166.977 260.355 167.307C260.605 167.637 261.076 167.702 261.406 167.451L260.499 166.256ZM263.345 165.998C263.679 165.753 263.752 165.284 263.507 164.95C263.262 164.616 262.793 164.543 262.458 164.788L263.345 165.998ZM264.511 163.37C264.159 163.589 264.05 164.051 264.269 164.403C264.487 164.755 264.949 164.864 265.301 164.645L264.511 163.37ZM267.449 164.339C267.863 164.37 268.222 164.059 268.252 163.646C268.282 163.233 267.972 162.874 267.559 162.843L267.449 164.339ZM270.503 162.969C270.089 162.978 269.76 163.321 269.768 163.735C269.777 164.149 270.119 164.478 270.534 164.469L270.503 162.969ZM273.498 163.419C273.837 163.18 273.917 162.712 273.678 162.374C273.438 162.036 272.97 161.955 272.632 162.195L273.498 163.419ZM274.643 160.689C274.317 160.944 274.259 161.415 274.514 161.742C274.769 162.068 275.24 162.126 275.567 161.871L274.643 160.689ZM277.567 160.254C277.885 159.988 277.927 159.515 277.662 159.197C277.396 158.879 276.923 158.837 276.605 159.103L277.567 160.254ZM278.513 157.454C278.204 157.73 278.178 158.204 278.454 158.513C278.731 158.822 279.205 158.848 279.513 158.572L278.513 157.454ZM281.401 156.815C281.698 156.526 281.705 156.051 281.416 155.754C281.127 155.457 280.652 155.45 280.355 155.739L281.401 156.815ZM282.105 153.946C281.824 154.251 281.845 154.726 282.15 155.006C282.455 155.286 282.929 155.266 283.209 154.961L282.105 153.946ZM284.999 152.884C285.264 152.566 285.222 152.093 284.904 151.828C284.586 151.562 284.113 151.605 283.848 151.922L284.999 152.884ZM285.678 149.702C285.416 150.023 285.465 150.496 285.786 150.757C286.107 151.018 286.58 150.97 286.841 150.649L285.678 149.702ZM288.65 148.4C288.908 148.076 288.854 147.604 288.53 147.346C288.206 147.088 287.734 147.142 287.476 147.466L288.65 148.4ZM289.256 145.207C289.001 145.534 289.059 146.005 289.386 146.26C289.712 146.515 290.184 146.457 290.438 146.131L289.256 145.207ZM292.208 143.846C292.461 143.517 292.399 143.046 292.071 142.794C291.742 142.542 291.271 142.603 291.019 142.932L292.208 143.846ZM292.764 140.645C292.514 140.975 292.579 141.445 292.909 141.695C293.239 141.945 293.709 141.88 293.96 141.55L292.764 140.645ZM295.695 139.244C295.943 138.913 295.876 138.443 295.544 138.194C295.212 137.946 294.742 138.014 294.494 138.346L295.695 139.244ZM296.212 136.036C295.966 136.369 296.036 136.839 296.369 137.085C296.702 137.331 297.172 137.261 297.418 136.928L296.212 136.036ZM299.128 134.604C299.373 134.269 299.3 133.8 298.966 133.555C298.631 133.311 298.162 133.383 297.917 133.718L299.128 134.604ZM299.612 131.391C299.369 131.727 299.443 132.196 299.779 132.439C300.114 132.682 300.583 132.607 300.826 132.272L299.612 131.391ZM302.516 129.93C302.758 129.594 302.681 129.125 302.345 128.883C302.008 128.642 301.54 128.719 301.298 129.055L302.516 129.93ZM302.974 126.713C302.734 127.05 302.812 127.518 303.15 127.759C303.487 127.999 303.955 127.92 304.196 127.583L302.974 126.713ZM305.863 125.234C306.102 124.895 306.022 124.427 305.684 124.188C305.346 123.949 304.878 124.029 304.638 124.368L305.863 125.234ZM306.299 122.011C306.061 122.35 306.143 122.817 306.482 123.055C306.821 123.293 307.289 123.211 307.527 122.872L306.299 122.011ZM309.18 120.507C309.417 120.168 309.334 119.7 308.994 119.463C308.654 119.227 308.186 119.31 307.95 119.65L309.18 120.507ZM309.591 117.286C309.356 117.626 309.441 118.094 309.781 118.329C310.122 118.565 310.589 118.48 310.825 118.139L309.591 117.286ZM312.462 115.766C312.696 115.424 312.61 114.958 312.268 114.723C311.927 114.488 311.46 114.575 311.225 114.916L312.462 115.766ZM312.855 112.536C312.622 112.878 312.71 113.345 313.052 113.578C313.394 113.811 313.861 113.723 314.094 113.381L312.855 112.536ZM315.714 111C315.946 110.657 315.856 110.19 315.513 109.958C315.17 109.726 314.704 109.816 314.472 110.159L315.714 111ZM316.082 107.771C315.851 108.115 315.943 108.581 316.287 108.812C316.63 109.043 317.096 108.951 317.327 108.607L316.082 107.771ZM318.923 106.49C319.204 106.186 319.187 105.712 318.884 105.43C318.58 105.148 318.105 105.165 317.824 105.469L318.923 106.49ZM319.721 103.512C319.429 103.805 319.43 104.28 319.723 104.573C320.017 104.865 320.492 104.864 320.784 104.57L319.721 103.512ZM322.694 102.678C322.989 102.389 322.994 101.914 322.705 101.618C322.415 101.322 321.94 101.317 321.644 101.607L322.694 102.678ZM323.585 99.7219C323.287 100.009 323.278 100.484 323.565 100.782C323.853 101.081 324.328 101.089 324.626 100.802L323.585 99.7219ZM326.572 98.9391C326.872 98.6536 326.884 98.1789 326.599 97.8788C326.313 97.5786 325.839 97.5666 325.538 97.8521L326.572 98.9391ZM327.503 95.9959C327.201 96.2793 327.186 96.754 327.469 97.056C327.753 97.3581 328.228 97.3733 328.53 97.0899L327.503 95.9959ZM330.502 95.2542C330.807 94.9734 330.826 94.4989 330.545 94.1944C330.264 93.8899 329.79 93.8707 329.485 94.1515L330.502 95.2542ZM331.491 92.3267C331.182 92.6026 331.156 93.0768 331.431 93.3857C331.707 93.6946 332.182 93.7213 332.49 93.4454L331.491 92.3267ZM334.479 91.7359C334.798 91.4714 334.842 90.9986 334.578 90.6798C334.313 90.361 333.841 90.3169 333.522 90.5813L334.479 91.7359ZM335.564 88.9122C335.242 89.1726 335.192 89.6449 335.452 89.967C335.713 90.2891 336.185 90.339 336.507 90.0786L335.564 88.9122ZM338.554 88.435C338.877 88.1765 338.93 87.7046 338.672 87.3809C338.414 87.0572 337.942 87.0043 337.618 87.2627L338.554 88.435ZM339.676 85.627C339.352 85.884 339.297 86.3557 339.554 86.6805C339.811 87.0053 340.282 87.0603 340.607 86.8033L339.676 85.627ZM342.668 85.1787C342.994 84.9229 343.051 84.4514 342.795 84.1256C342.539 83.7998 342.068 83.7431 341.742 83.9989L342.668 85.1787ZM343.815 82.3783C343.488 82.6328 343.429 83.104 343.684 83.4308C343.938 83.7576 344.409 83.8163 344.736 83.5618L343.815 82.3783ZM346.809 81.956C347.137 81.7033 347.198 81.2324 346.946 80.9042C346.693 80.576 346.222 80.5148 345.894 80.7675L346.809 81.956ZM347.992 79.1693C347.66 79.4177 347.593 79.8877 347.841 80.2192C348.089 80.5507 348.56 80.6181 348.891 80.3697L347.992 79.1693ZM350.452 79.3176C350.818 79.1242 350.959 78.6705 350.765 78.3042C350.572 77.9379 350.118 77.7977 349.752 77.9911L350.452 79.3176ZM351.025 77.3599C350.651 77.5377 350.492 77.9851 350.669 78.3592C350.847 78.7333 351.295 78.8925 351.669 78.7147L351.025 77.3599ZM353.52 77.8623C353.898 77.6926 354.067 77.2487 353.897 76.8709C353.727 76.493 353.284 76.3243 352.906 76.4941L353.52 77.8623ZM355.408 75.3933C355.028 75.5576 354.853 75.999 355.017 76.3793C355.181 76.7595 355.623 76.9346 356.003 76.7703L355.408 75.3933ZM358.5 75.708C358.882 75.548 359.062 75.1086 358.902 74.7265C358.742 74.3445 358.302 74.1645 357.92 74.3245L358.5 75.708ZM360.451 73.2863C360.067 73.4396 359.879 73.8758 360.032 74.2606C360.185 74.6454 360.621 74.8331 361.006 74.6799L360.451 73.2863ZM363.563 73.905C363.97 73.8241 364.233 73.4293 364.153 73.023C364.072 72.6168 363.677 72.353 363.271 72.4338L363.563 73.905ZM366.167 71.9089C365.759 71.9785 365.484 72.3659 365.554 72.7743C365.623 73.1826 366.011 73.4572 366.419 73.3876L366.167 71.9089ZM369.293 72.9138C369.702 72.8482 369.981 72.4634 369.915 72.0544C369.849 71.6454 369.465 71.3671 369.056 71.4327L369.293 72.9138ZM371.947 70.9782C371.537 71.0414 371.257 71.4244 371.32 71.8338C371.383 72.2431 371.766 72.5238 372.175 72.4607L371.947 70.9782ZM7.20061 158.512C7.55926 158.304 7.682 157.846 7.47477 157.487C7.26754 157.128 6.8088 157.006 6.45015 157.213L7.20061 158.512ZM9.10057 155.678C8.7423 155.886 8.62039 156.345 8.82827 156.703C9.03616 157.062 9.49512 157.184 9.85339 156.976L9.10057 155.678ZM12.5044 155.434C12.8622 155.225 12.9831 154.766 12.7744 154.408C12.5658 154.05 12.1066 153.929 11.7487 154.138L12.5044 155.434ZM14.3931 152.591C14.0358 152.801 13.9161 153.26 14.1258 153.618C14.3354 153.975 14.7949 154.095 15.1522 153.885L14.3931 152.591ZM17.795 152.328C18.1514 152.117 18.2694 151.657 18.0585 151.301C17.8475 150.944 17.3875 150.826 17.0311 151.037L17.795 152.328ZM19.662 149.471C19.3067 149.684 19.1913 150.145 19.4043 150.5C19.6172 150.855 20.0779 150.971 20.4331 150.758L19.662 149.471ZM23.0599 149.167C23.4129 148.951 23.5236 148.489 23.3071 148.136C23.0905 147.783 22.6287 147.672 22.2756 147.889L23.0599 149.167ZM24.8499 146.268C24.5038 146.496 24.4078 146.961 24.6353 147.307C24.8629 147.653 25.328 147.749 25.6741 147.521L24.8499 146.268ZM28.1384 145.436C28.4336 145.146 28.4374 144.671 28.1469 144.376C27.8564 144.08 27.3815 144.077 27.0863 144.367L28.1384 145.436ZM29.3335 142.161C29.0376 142.451 29.0328 142.926 29.3227 143.222C29.6126 143.517 30.0875 143.522 30.3833 143.232L29.3335 142.161ZM32.6359 141.028C32.9321 140.739 32.9376 140.264 32.6481 139.968C32.3586 139.671 31.8838 139.666 31.5875 139.955L32.6359 141.028ZM33.8411 137.756C33.5444 138.045 33.5384 138.52 33.8275 138.817C34.1166 139.113 34.5915 139.119 34.8881 138.83L33.8411 137.756ZM37.1454 136.633C37.4424 136.344 37.449 135.869 37.1603 135.572C36.8716 135.275 36.3968 135.268 36.0998 135.557L37.1454 136.633ZM38.3603 133.363C38.0629 133.651 38.0555 134.126 38.3438 134.423C38.6321 134.721 39.1069 134.728 39.4044 134.44L38.3603 133.363ZM41.6657 132.251C41.9636 131.963 41.9718 131.489 41.684 131.191C41.3962 130.893 40.9214 130.885 40.6235 131.172L41.6657 132.251ZM42.8909 128.986C42.5924 129.273 42.5833 129.748 42.8705 130.047C43.1576 130.345 43.6324 130.354 43.9309 130.067L42.8909 128.986ZM46.2017 127.888C46.5009 127.601 46.5113 127.126 46.2249 126.827C45.9385 126.528 45.4637 126.518 45.1645 126.804L46.2017 127.888ZM47.4463 124.627C47.1461 124.913 47.134 125.387 47.4194 125.688C47.7047 125.988 48.1794 126 48.4797 125.714L47.4463 124.627ZM50.7645 123.553C51.0662 123.27 51.0808 122.795 50.797 122.493C50.5132 122.192 50.0386 122.177 49.7368 122.461L50.7645 123.553ZM52.0468 120.306C51.7424 120.587 51.7233 121.062 52.0043 121.366C52.2852 121.671 52.7597 121.69 53.0641 121.409L52.0468 120.306ZM54.8824 119.754C55.1915 119.479 55.2185 119.004 54.9428 118.695C54.667 118.386 54.1929 118.359 53.8838 118.635L54.8824 119.754ZM55.2827 117.428C54.9617 117.689 54.9135 118.162 55.1753 118.483C55.437 118.804 55.9094 118.852 56.2304 118.59L55.2827 117.428ZM57.3549 118.63C57.7289 118.808 58.1764 118.649 58.3545 118.275C58.5326 117.901 58.3737 117.453 57.9998 117.275L57.3549 118.63ZM60.2882 118.448C59.9228 118.253 59.4685 118.391 59.2735 118.757C59.0785 119.122 59.2167 119.576 59.5822 119.771L60.2882 118.448ZM61.8064 120.978C62.1696 121.177 62.6255 121.044 62.8247 120.681C63.0239 120.318 62.891 119.862 62.5278 119.663L61.8064 120.978ZM64.7536 120.889C64.391 120.689 63.9347 120.82 63.7345 121.183C63.5342 121.546 63.6659 122.002 64.0285 122.202L64.7536 120.889ZM66.2563 123.428C66.6198 123.627 67.0754 123.493 67.274 123.129C67.4726 122.766 67.339 122.31 66.9755 122.112L66.2563 123.428ZM69.1981 123.3C68.8295 123.111 68.3775 123.256 68.1886 123.625C67.9997 123.993 68.1453 124.445 68.514 124.634L69.1981 123.3ZM71.3082 125.434C71.7212 125.466 72.0818 125.157 72.1136 124.744C72.1454 124.331 71.8364 123.97 71.4234 123.938L71.3082 125.434ZM74.1507 124.067C73.7367 124.055 73.3914 124.381 73.3794 124.795C73.3675 125.209 73.6935 125.555 74.1075 125.567L74.1507 124.067ZM76.8892 125.617C77.3034 125.621 77.6423 125.289 77.6461 124.874C77.6499 124.46 77.3173 124.121 76.9031 124.117L76.8892 125.617ZM79.6592 124.122C79.245 124.124 78.9112 124.462 78.9137 124.876C78.9161 125.29 79.2539 125.624 79.6681 125.622L79.6592 124.122ZM82.4481 125.583C82.8622 125.573 83.1901 125.23 83.1806 124.816C83.171 124.401 82.8276 124.073 82.4135 124.083L82.4481 125.583ZM85.1563 123.984C84.7427 124.006 84.4255 124.359 84.4478 124.773C84.4702 125.187 84.8236 125.504 85.2372 125.481L85.1563 123.984ZM86.8894 125.355C87.301 125.309 87.5974 124.938 87.5513 124.527C87.5052 124.115 87.1342 123.819 86.7225 123.865L86.8894 125.355ZM87.1445 123.807C86.7362 123.877 86.4615 124.264 86.5311 124.673C86.6006 125.081 86.988 125.356 87.3963 125.286L87.1445 123.807ZM89.0868 124.779C89.4755 124.636 89.6746 124.204 89.5315 123.816C89.3884 123.427 88.9573 123.228 88.5686 123.371L89.0868 124.779ZM91.2451 122.407C90.8468 122.521 90.6162 122.936 90.73 123.334C90.8438 123.733 91.259 123.963 91.6572 123.849L91.2451 122.407ZM88.3358 124.923C88.7349 124.812 88.9686 124.399 88.8578 124C88.7471 123.601 88.3337 123.367 87.9346 123.478L88.3358 124.923ZM91.0594 122.61C90.6603 122.721 90.4266 123.135 90.5374 123.534C90.6482 123.933 91.0615 124.167 91.4607 124.056L91.0594 122.61ZM92.9449 123.653C93.3582 123.681 93.7154 123.368 93.7427 122.954C93.77 122.541 93.4571 122.184 93.0438 122.157L92.9449 123.653ZM93.5022 122.223C93.0984 122.13 92.6961 122.382 92.6035 122.786C92.5108 123.19 92.7631 123.592 93.1668 123.685L93.5022 122.223ZM94.8794 124.713C95.2119 124.96 95.6817 124.891 95.9286 124.558C96.1756 124.226 96.1062 123.756 95.7736 123.509L94.8794 124.713ZM99.1085 126.356C98.811 126.068 98.3361 126.076 98.048 126.373C97.7598 126.671 97.7674 127.146 98.065 127.434L99.1085 126.356ZM100.238 130.171C100.479 130.508 100.948 130.586 101.285 130.345C101.622 130.104 101.699 129.635 101.458 129.298L100.238 130.171ZM103.242 131.754C102.997 131.42 102.528 131.348 102.194 131.592C101.859 131.837 101.787 132.307 102.032 132.641L103.242 131.754ZM103.835 135.09C104.082 135.423 104.551 135.493 104.884 135.247C105.217 135.001 105.288 134.531 105.041 134.198L103.835 135.09ZM106.848 136.634C106.601 136.302 106.131 136.233 105.799 136.48C105.466 136.727 105.397 137.197 105.644 137.529L106.848 136.634ZM107.46 139.966C107.708 140.298 108.178 140.366 108.51 140.118C108.842 139.87 108.91 139.4 108.662 139.068L107.46 139.966ZM110.481 141.498C110.233 141.167 109.763 141.1 109.431 141.348C109.1 141.597 109.033 142.067 109.282 142.398L110.481 141.498ZM111.107 144.825C111.356 145.156 111.827 145.222 112.157 144.973C112.488 144.723 112.554 144.253 112.305 143.922L111.107 144.825ZM114.135 146.343C113.885 146.013 113.414 145.948 113.084 146.199C112.754 146.449 112.689 146.919 112.94 147.249L114.135 146.343ZM114.78 149.669C115.032 149.998 115.502 150.061 115.831 149.81C116.161 149.559 116.224 149.088 115.972 148.759L114.78 149.669ZM117.818 151.165C117.565 150.837 117.094 150.776 116.766 151.029C116.438 151.282 116.377 151.753 116.63 152.081L117.818 151.165ZM118.497 154.483C118.752 154.809 119.224 154.866 119.55 154.61C119.875 154.354 119.932 153.883 119.677 153.557L118.497 154.483ZM121.567 155.917C121.303 155.599 120.83 155.554 120.511 155.819C120.192 156.083 120.148 156.556 120.413 156.875L121.567 155.917ZM122.188 158.432C122.559 158.616 123.009 158.465 123.194 158.094C123.378 157.723 123.226 157.273 122.856 157.089L122.188 158.432ZM123.897 157.6C123.524 157.419 123.075 157.575 122.894 157.947C122.713 158.32 122.869 158.769 123.242 158.95L123.897 157.6ZM124.03 159.53C124.049 159.512 124.079 159.484 124.124 159.446L123.158 158.299C123.092 158.355 123.027 158.412 122.97 158.47L124.03 159.53ZM124.385 159.243C124.43 159.211 124.477 159.176 124.528 159.14L123.661 157.916C123.604 157.957 123.549 157.996 123.496 158.035L124.385 159.243ZM123.771 159.205C124.047 159.337 124.332 159.471 124.619 159.604L125.25 158.243C124.969 158.113 124.69 157.981 124.418 157.851L123.771 159.205ZM126.348 160.366C126.677 160.501 126.989 160.62 127.263 160.712L127.737 159.288C127.506 159.212 127.229 159.106 126.916 158.978L126.348 160.366ZM127.263 160.712C127.55 160.807 127.915 161.029 128.363 161.37L129.271 160.176C128.794 159.813 128.268 159.465 127.737 159.288L127.263 160.712ZM130.729 163.324C131.206 163.687 131.732 164.035 132.263 164.212L132.737 162.788C132.45 162.693 132.085 162.471 131.637 162.13L130.729 163.324ZM132.263 164.212C132.628 164.333 133.177 164.392 133.753 164.426L133.841 162.929C133.256 162.894 132.892 162.84 132.737 162.788L132.263 164.212ZM136.437 164.468C137.308 164.457 138.223 164.432 139.085 164.402L139.033 162.903C138.177 162.933 137.275 162.958 136.42 162.968L136.437 164.468ZM141.721 164.296C142.373 164.268 142.823 164.25 143 164.25V162.75C142.781 162.75 142.287 162.771 141.657 162.798L141.721 164.296ZM143 164.25C143.17 164.25 143.342 164.203 143.451 164.171C143.583 164.131 143.737 164.077 143.902 164.014L143.366 162.613C143.218 162.67 143.105 162.709 143.024 162.733C142.984 162.745 142.959 162.751 142.947 162.753C142.93 162.757 142.953 162.75 143 162.75V164.25ZM145.162 163.482C145.355 163.396 145.559 163.303 145.773 163.206L145.149 161.842C144.939 161.938 144.739 162.028 144.551 162.112L145.162 163.482ZM145.773 163.206C146.237 162.994 146.745 162.756 147.282 162.502L146.641 161.146C146.108 161.398 145.605 161.633 145.149 161.842L145.773 163.206ZM150.278 161.069C151.293 160.58 152.314 160.088 153.264 159.636L152.619 158.282C151.665 158.736 150.641 159.229 149.627 159.718L150.278 161.069ZM156.251 158.254C156.649 158.08 156.975 157.945 157.219 157.855C157.342 157.809 157.434 157.779 157.498 157.761C157.582 157.737 157.566 157.75 157.5 157.75V156.25C157.343 156.25 157.189 156.29 157.091 156.317C156.973 156.351 156.84 156.396 156.698 156.448C156.414 156.553 156.057 156.702 155.65 156.88L156.251 158.254ZM157.5 157.75C157.452 157.75 157.417 157.745 157.4 157.742C157.382 157.738 157.37 157.735 157.367 157.734C157.362 157.733 157.37 157.735 157.396 157.745C157.448 157.766 157.529 157.803 157.643 157.861C157.87 157.976 158.183 158.15 158.574 158.378L159.33 157.082C158.929 156.849 158.587 156.658 158.321 156.523C158.189 156.456 158.064 156.397 157.954 156.353C157.881 156.324 157.698 156.25 157.5 156.25V157.75ZM161.364 160.078C162.214 160.609 163.152 161.201 164.142 161.829L164.945 160.562C163.954 159.934 163.012 159.339 162.158 158.806L161.364 160.078ZM166.913 163.59C167.833 164.175 168.767 164.769 169.689 165.353L170.492 164.086C169.571 163.503 168.638 162.91 167.718 162.325L166.913 163.59ZM172.475 167.107C173.47 167.729 174.418 168.315 175.282 168.838L176.059 167.555C175.203 167.036 174.262 166.454 173.27 165.835L172.475 167.107ZM178.153 170.508C178.543 170.719 178.885 170.892 179.164 171.015C179.303 171.077 179.437 171.13 179.56 171.17C179.668 171.205 179.829 171.25 180 171.25V169.75C180.071 169.75 180.092 169.766 180.021 169.743C179.965 169.725 179.883 169.693 179.77 169.643C179.545 169.543 179.242 169.391 178.867 169.188L178.153 170.508ZM180 171.25C180.367 171.25 181.01 171.117 181.718 170.948L181.37 169.489C180.61 169.671 180.155 169.75 180 169.75V171.25ZM184.786 170.138C185.28 170.001 185.789 169.857 186.303 169.711L185.893 168.268C185.381 168.413 184.874 168.556 184.383 168.693L184.786 170.138ZM186.303 169.711C186.918 169.536 187.54 169.358 188.148 169.184L187.735 167.742C187.127 167.916 186.507 168.093 185.893 168.268L186.303 169.711ZM191.828 168.148C192.306 168.019 192.708 167.916 193.014 167.846C193.167 167.81 193.29 167.785 193.383 167.768C193.488 167.75 193.516 167.75 193.5 167.75V166.25C193.289 166.25 192.974 166.316 192.677 166.384C192.345 166.461 191.922 166.569 191.439 166.699L191.828 168.148ZM193.5 167.75C193.5 167.75 193.5 167.75 193.5 167.75C193.5 167.75 193.5 167.75 193.5 167.75C193.5 167.75 193.5 167.75 193.5 167.75C193.5 167.75 193.501 167.75 193.501 167.75C193.501 167.75 193.502 167.75 193.503 167.75C193.506 167.75 193.509 167.75 193.513 167.751C193.522 167.751 193.533 167.752 193.548 167.754C193.578 167.757 193.616 167.762 193.665 167.77C193.762 167.787 193.884 167.812 194.031 167.847C194.325 167.916 194.692 168.016 195.108 168.136L195.525 166.696C195.1 166.573 194.705 166.464 194.375 166.387C194.068 166.314 193.745 166.25 193.5 166.25V167.75ZM198.681 169.219C199.424 169.438 200.115 169.628 200.574 169.707L200.827 168.228C200.468 168.167 199.86 168.003 199.106 167.78L198.681 169.219ZM200.574 169.707C200.604 169.712 200.634 169.717 200.664 169.721L200.885 168.238C200.868 168.235 200.848 168.232 200.827 168.228L200.574 169.707ZM200.869 169.745C200.911 169.748 200.955 169.75 201 169.75V168.25C200.999 168.25 200.993 168.25 200.98 168.249L200.869 169.745ZM201 169.75H202.75V168.25H201V169.75ZM206.25 169.75H208V168.25H206.25V169.75ZM208 169.75C207.996 169.75 208.022 169.75 208.093 169.76C208.159 169.768 208.245 169.782 208.354 169.801C208.571 169.84 208.857 169.898 209.206 169.975L209.527 168.509C209.169 168.431 208.862 168.368 208.617 168.325C208.394 168.285 208.166 168.25 208 168.25V169.75ZM211.9 170.612C212.719 170.814 213.628 171.044 214.601 171.293L214.973 169.84C213.998 169.59 213.084 169.359 212.26 169.156L211.9 170.612ZM217.303 171.993C218.181 172.222 219.086 172.46 219.999 172.702L220.383 171.252C219.468 171.01 218.562 170.771 217.682 170.541L217.303 171.993ZM222.695 173.419C223.605 173.663 224.509 173.905 225.39 174.143L225.78 172.694C224.899 172.457 223.994 172.214 223.082 171.97L222.695 173.419ZM228.083 174.872C229.046 175.133 229.953 175.381 230.777 175.607L231.173 174.16C230.348 173.934 229.44 173.686 228.476 173.424L228.083 174.872ZM233.462 176.347C234.034 176.506 234.487 176.633 234.794 176.721L235.206 175.279C234.894 175.19 234.437 175.061 233.864 174.902L233.462 176.347ZM234.794 176.721C234.883 176.747 234.969 176.759 235.046 176.766L235.165 175.27C235.163 175.27 235.179 175.271 235.206 175.279L234.794 176.721ZM235.395 176.759C235.443 176.754 235.49 176.748 235.538 176.741L235.316 175.258C235.29 175.262 235.266 175.264 235.246 175.267L235.395 176.759ZM235.538 176.741C236.024 176.668 236.676 176.459 237.387 176.192L236.859 174.788C236.156 175.052 235.632 175.21 235.316 175.258L235.538 176.741ZM240.704 174.786C241.776 174.301 242.89 173.779 243.936 173.287L243.298 171.93C242.252 172.421 241.146 172.94 240.085 173.42L240.704 174.786ZM247.145 171.801C247.567 171.614 247.916 171.467 248.179 171.368C248.312 171.318 248.412 171.284 248.483 171.264C248.573 171.238 248.562 171.25 248.5 171.25V169.75C248.337 169.75 248.176 169.792 248.069 169.822C247.943 169.858 247.801 169.908 247.65 169.965C247.347 170.079 246.968 170.239 246.537 170.43L247.145 171.801ZM248.5 171.25C248.74 171.25 249.213 171.208 249.78 171.146L249.617 169.655C249.03 169.719 248.643 169.75 248.5 169.75V171.25ZM252.191 170.845C252.977 170.738 253.806 170.616 254.591 170.491L254.354 169.01C253.582 169.133 252.764 169.253 251.988 169.359L252.191 170.845ZM256.999 170.057C257.533 169.943 258.047 169.815 258.335 169.671L257.665 168.329C257.579 168.372 257.264 168.466 256.686 168.59L256.999 170.057ZM258.335 169.671C258.59 169.544 259.003 169.252 259.451 168.924L258.564 167.714C258.082 168.068 257.781 168.271 257.665 168.329L258.335 169.671ZM261.406 167.451C262.042 166.969 262.709 166.464 263.345 165.998L262.458 164.788C261.812 165.262 261.135 165.773 260.499 166.256L261.406 167.451ZM265.301 164.645C265.544 164.495 265.741 164.384 265.89 164.314C265.964 164.279 266.015 164.259 266.046 164.25C266.084 164.237 266.061 164.25 266 164.25V162.75C265.718 162.75 265.437 162.869 265.249 162.958C265.027 163.063 264.776 163.206 264.511 163.37L265.301 164.645ZM266 164.25C266.258 164.25 266.769 164.289 267.449 164.339L267.559 162.843C266.922 162.797 266.329 162.75 266 162.75V164.25ZM270.534 164.469C270.874 164.462 271.204 164.442 271.496 164.402C271.776 164.363 272.08 164.298 272.335 164.171L271.665 162.829C271.63 162.847 271.518 162.885 271.291 162.916C271.077 162.946 270.811 162.963 270.503 162.969L270.534 164.469ZM272.335 164.171C272.577 164.05 272.995 163.775 273.498 163.419L272.632 162.195C272.116 162.559 271.789 162.767 271.665 162.829L272.335 164.171ZM275.567 161.871C276.187 161.386 276.864 160.841 277.567 160.254L276.605 159.103C275.915 159.679 275.251 160.214 274.643 160.689L275.567 161.871ZM279.513 158.572C280.148 158.004 280.783 157.415 281.401 156.815L280.355 155.739C279.754 156.323 279.134 156.898 278.513 157.454L279.513 158.572ZM283.209 154.961C283.508 154.636 283.797 154.31 284.072 153.985L282.928 153.015C282.667 153.323 282.391 153.634 282.105 153.946L283.209 154.961ZM284.072 153.985C284.379 153.624 284.688 153.257 284.999 152.884L283.848 151.922C283.539 152.292 283.232 152.656 282.928 153.015L284.072 153.985ZM286.841 150.649C287.439 149.914 288.042 149.163 288.65 148.4L287.476 147.466C286.872 148.225 286.272 148.972 285.678 149.702L286.841 150.649ZM290.438 146.131C291.026 145.378 291.617 144.615 292.208 143.846L291.019 142.932C290.43 143.698 289.842 144.458 289.256 145.207L290.438 146.131ZM293.96 141.55C294.539 140.786 295.118 140.016 295.695 139.244L294.494 138.346C293.918 139.115 293.341 139.882 292.764 140.645L293.96 141.55ZM297.418 136.928C297.991 136.153 298.562 135.377 299.128 134.604L297.917 133.718C297.353 134.489 296.784 135.263 296.212 136.036L297.418 136.928ZM300.826 132.272C301.396 131.486 301.959 130.705 302.516 129.93L301.298 129.055C300.742 129.828 300.18 130.608 299.612 131.391L300.826 132.272ZM304.196 127.583C304.761 126.789 305.318 126.005 305.863 125.234L304.638 124.368C304.094 125.138 303.539 125.92 302.974 126.713L304.196 127.583ZM307.527 122.872C308.093 122.065 308.645 121.275 309.18 120.507L307.95 119.65C307.415 120.417 306.864 121.205 306.299 122.011L307.527 122.872ZM310.825 118.139C311.396 117.313 311.943 116.52 312.462 115.766L311.225 114.916C310.708 115.669 310.162 116.461 309.591 117.286L310.825 118.139ZM314.094 113.381C314.692 112.506 315.234 111.708 315.714 111L314.472 110.159C313.993 110.865 313.452 111.662 312.855 112.536L314.094 113.381ZM317.327 108.607C317.753 107.973 318.025 107.564 318.124 107.416L316.876 106.584C316.778 106.731 316.506 107.139 316.082 107.771L317.327 108.607ZM318.124 107.416C318.216 107.278 318.478 106.968 318.923 106.49L317.824 105.469C317.393 105.932 317.047 106.328 316.876 106.584L318.124 107.416ZM320.784 104.57C321.363 103.988 322.008 103.35 322.694 102.678L321.644 101.607C320.955 102.282 320.306 102.924 319.721 103.512L320.784 104.57ZM324.626 100.802C325.266 100.185 325.92 99.5587 326.572 98.9391L325.538 97.8521C324.884 98.4739 324.228 99.1023 323.585 99.7219L324.626 100.802ZM328.53 97.0899C329.217 96.4452 329.881 95.8267 330.502 95.2542L329.485 94.1515C328.861 94.7273 328.193 95.3487 327.503 95.9959L328.53 97.0899ZM332.49 93.4454C332.869 93.1073 333.205 92.8125 333.488 92.5694L332.512 91.4306C332.218 91.6824 331.874 91.9844 331.491 92.3267L332.49 93.4454ZM333.488 92.5694C333.768 92.3295 334.102 92.0492 334.479 91.7359L333.522 90.5813C333.14 90.8979 332.8 91.1836 332.512 91.4306L333.488 92.5694ZM336.507 90.0786C337.148 89.5604 337.837 89.007 338.554 88.435L337.618 87.2627C336.899 87.8363 336.208 88.3917 335.564 88.9122L336.507 90.0786ZM340.607 86.8033C341.294 86.2596 341.987 85.7137 342.668 85.1787L341.742 83.9989C341.059 84.535 340.365 85.0821 339.676 85.627L340.607 86.8033ZM344.736 83.5618C345.474 82.9872 346.173 82.4453 346.809 81.956L345.894 80.7675C345.256 81.2587 344.554 81.8023 343.815 82.3783L344.736 83.5618ZM348.891 80.3697C349.39 79.996 349.74 79.7414 349.916 79.624L349.084 78.376C348.868 78.5197 348.486 78.7989 347.992 79.1693L348.891 80.3697ZM349.916 79.624C350.021 79.5541 350.198 79.4516 350.452 79.3176L349.752 77.9911C349.486 78.1313 349.254 78.2625 349.084 78.376L349.916 79.624ZM351.669 78.7147C351.866 78.6211 352.074 78.5235 352.291 78.4227L351.66 77.0619C351.439 77.1644 351.227 77.264 351.025 77.3599L351.669 78.7147ZM352.291 78.4227C352.676 78.2444 353.089 78.0563 353.52 77.8623L352.906 76.4941C352.47 76.69 352.051 76.8806 351.66 77.0619L352.291 78.4227ZM356.003 76.7703C356.854 76.4025 357.706 76.0403 358.5 75.708L357.92 74.3245C357.122 74.6589 356.264 75.0233 355.408 75.3933L356.003 76.7703ZM361.006 74.6799C361.593 74.4462 362.02 74.2839 362.237 74.2115L361.763 72.7885C361.499 72.8763 361.035 73.0539 360.451 73.2863L361.006 74.6799ZM362.237 74.2115C362.441 74.1436 362.897 74.0375 363.563 73.905L363.271 72.4338C362.62 72.5633 362.071 72.6859 361.763 72.7885L362.237 74.2115ZM366.419 73.3876C367.362 73.227 368.355 73.0643 369.293 72.9138L369.056 71.4327C368.114 71.5837 367.116 71.7473 366.167 71.9089L366.419 73.3876ZM372.175 72.4607C372.613 72.3932 372.973 72.3384 373.222 72.3005C373.347 72.2816 373.444 72.2669 373.51 72.2569C373.544 72.2519 373.569 72.2481 373.586 72.2455C373.594 72.2443 373.601 72.2433 373.605 72.2427C373.607 72.2423 373.609 72.2421 373.61 72.2419C373.61 72.2419 373.611 72.2418 373.611 72.2418C373.611 72.2417 373.611 72.2417 373.611 72.2417C373.611 72.2417 373.611 72.2417 373.611 72.2417C373.611 72.2417 373.611 72.2417 373.611 72.2417C373.611 72.2417 373.611 72.2417 373.5 71.5C373.389 70.7583 373.389 70.7583 373.389 70.7583C373.389 70.7583 373.389 70.7583 373.389 70.7583C373.389 70.7583 373.389 70.7583 373.389 70.7583C373.389 70.7583 373.388 70.7583 373.388 70.7584C373.388 70.7584 373.388 70.7585 373.387 70.7586C373.386 70.7587 373.384 70.759 373.382 70.7593C373.378 70.76 373.371 70.7609 373.363 70.7622C373.345 70.7648 373.32 70.7686 373.287 70.7737C373.22 70.7837 373.122 70.7985 372.997 70.8175C372.746 70.8556 372.386 70.9105 371.947 70.9782L372.175 72.4607ZM5.8747 159.277C6.29918 159.032 6.74229 158.776 7.20061 158.512L6.45015 157.213C5.99221 157.477 5.54947 157.733 5.12533 157.978L5.8747 159.277ZM9.85339 156.976C10.7164 156.475 11.6059 155.958 12.5044 155.434L11.7487 154.138C10.8513 154.661 9.96278 155.178 9.10057 155.678L9.85339 156.976ZM15.1522 153.885C16.0465 153.36 16.9331 152.838 17.795 152.328L17.0311 151.037C16.171 151.546 15.286 152.067 14.3931 152.591L15.1522 153.885ZM20.4331 150.758C21.3791 150.191 22.2645 149.655 23.0599 149.167L22.2756 147.889C21.4858 148.373 20.605 148.906 19.662 149.471L20.4331 150.758ZM25.6741 147.521C26.2953 147.113 26.8019 146.759 27.0303 146.53L25.9697 145.47C25.873 145.566 25.5139 145.831 24.8499 146.268L25.6741 147.521ZM27.0303 146.53C27.1724 146.388 27.5566 146.009 28.1384 145.436L27.0863 144.367C26.5057 144.938 26.1169 145.322 25.9697 145.47L27.0303 146.53ZM30.3833 143.232C31.0601 142.569 31.8173 141.828 32.6359 141.028L31.5875 139.955C30.7684 140.756 30.0108 141.497 29.3335 142.161L30.3833 143.232ZM34.8881 138.83C35.6149 138.122 36.3705 137.386 37.1454 136.633L36.0998 135.557C35.3244 136.311 34.5683 137.047 33.8411 137.756L34.8881 138.83ZM39.4044 134.44C40.1519 133.715 40.9082 132.983 41.6657 132.251L40.6235 131.172C39.8654 131.905 39.1084 132.637 38.3603 133.363L39.4044 134.44ZM43.9309 130.067C44.6974 129.33 45.457 128.6 46.2017 127.888L45.1645 126.804C44.4188 127.518 43.6582 128.248 42.8909 128.986L43.9309 130.067ZM48.4797 125.714C49.2753 124.958 50.0408 124.234 50.7645 123.553L49.7368 122.461C49.0109 123.143 48.2435 123.869 47.4463 124.627L48.4797 125.714ZM53.0641 121.409C53.4729 121.031 53.8569 120.68 54.2124 120.357L53.2048 119.246C52.8454 119.572 52.4582 119.927 52.0468 120.306L53.0641 121.409ZM54.2124 120.357C54.4488 120.143 54.6724 119.942 54.8824 119.754L53.8838 118.635C53.6703 118.825 53.4436 119.03 53.2048 119.246L54.2124 120.357ZM56.2304 118.59C56.4273 118.43 56.5744 118.318 56.6745 118.249C56.6986 118.232 56.7176 118.22 56.7322 118.211C56.7393 118.206 56.7449 118.203 56.7488 118.201C56.7528 118.198 56.7547 118.197 56.7544 118.198C56.7543 118.198 56.751 118.199 56.7448 118.202C56.7388 118.205 56.7277 118.21 56.7121 118.215C56.6921 118.222 56.6126 118.25 56.5 118.25V116.75C56.367 116.75 56.2617 116.783 56.2105 116.802C56.1505 116.823 56.0983 116.848 56.0584 116.869C55.9786 116.911 55.8984 116.962 55.8246 117.013C55.6745 117.116 55.4906 117.258 55.2827 117.428L56.2304 118.59ZM56.5 118.25C56.4339 118.25 56.4095 118.237 56.4633 118.252C56.5036 118.264 56.5658 118.285 56.6535 118.319C56.8281 118.387 57.0633 118.491 57.3549 118.63L57.9998 117.275C57.6944 117.13 57.4213 117.008 57.1968 116.921C57.0848 116.877 56.9747 116.838 56.8724 116.809C56.7837 116.784 56.6466 116.75 56.5 116.75V118.25ZM59.5822 119.771C60.2751 120.141 61.03 120.552 61.8064 120.978L62.5278 119.663C61.749 119.235 60.9884 118.822 60.2882 118.448L59.5822 119.771ZM64.0285 122.202C64.8025 122.63 65.5591 123.047 66.2563 123.428L66.9755 122.112C66.2817 121.733 65.5279 121.317 64.7536 120.889L64.0285 122.202ZM68.514 124.634C69.036 124.902 69.4876 125.12 69.7628 125.212L70.2372 123.788C70.0901 123.739 69.7428 123.579 69.1981 123.3L68.514 124.634ZM69.7628 125.212C70.0845 125.319 70.6626 125.384 71.3082 125.434L71.4234 123.938C70.7326 123.885 70.3504 123.826 70.2372 123.788L69.7628 125.212ZM74.1075 125.567C74.9716 125.592 75.9152 125.608 76.8892 125.617L76.9031 124.117C75.937 124.109 75.0034 124.092 74.1507 124.067L74.1075 125.567ZM79.6681 125.622C80.6218 125.616 81.563 125.603 82.4481 125.583L82.4135 124.083C81.5379 124.103 80.6054 124.116 79.6592 124.122L79.6681 125.622ZM85.2372 125.481C85.7709 125.453 86.2475 125.419 86.6449 125.381L86.5005 123.888C86.1315 123.923 85.6778 123.955 85.1563 123.984L85.2372 125.481ZM86.6449 125.381C86.7297 125.373 86.8113 125.364 86.8894 125.355L86.7225 123.865C86.6528 123.872 86.5787 123.88 86.5005 123.888L86.6449 125.381ZM87.3963 125.286C87.4969 125.269 87.5935 125.25 87.6819 125.228L87.3181 123.772C87.2778 123.782 87.2208 123.794 87.1445 123.807L87.3963 125.286ZM87.6819 125.228C88.1455 125.112 88.6222 124.95 89.0868 124.779L88.5686 123.371C88.1221 123.535 87.7041 123.676 87.3181 123.772L87.6819 125.228ZM91.6572 123.849C92.1153 123.719 92.5028 123.649 92.8212 123.649L92.8238 122.149C92.3051 122.148 91.7646 122.259 91.2451 122.407L91.6572 123.849ZM86.7733 125.357L88.3358 124.923L87.9346 123.478L86.3721 123.912L86.7733 125.357ZM91.4607 124.056L93.0231 123.622L92.6219 122.177L91.0594 122.61L91.4607 124.056ZM92.8212 123.649C92.8643 123.649 92.9055 123.651 92.9449 123.653L93.0438 122.157C92.9705 122.152 92.8971 122.15 92.8238 122.149L92.8212 123.649ZM93.1668 123.685C93.2009 123.693 93.2328 123.702 93.2628 123.712L93.7372 122.288C93.6594 122.263 93.5809 122.241 93.5022 122.223L93.1668 123.685ZM93.2628 123.712C93.5571 123.81 94.1297 124.157 94.8794 124.713L95.7736 123.509C95.038 122.963 94.2884 122.472 93.7372 122.288L93.2628 123.712ZM98.065 127.434C98.4152 127.773 98.7153 128.082 98.9428 128.339C99.1862 128.614 99.2999 128.777 99.3292 128.835L100.671 128.165C100.545 127.913 100.31 127.621 100.065 127.344C99.8043 127.05 99.4754 126.712 99.1085 126.356L98.065 127.434ZM99.3292 128.835C99.3858 128.949 99.5113 129.135 99.6424 129.326C99.7899 129.54 99.9912 129.826 100.238 130.171L101.458 129.298C101.213 128.956 101.018 128.679 100.878 128.476C100.722 128.249 100.67 128.162 100.671 128.165L99.3292 128.835ZM102.032 132.641C102.573 133.379 103.18 134.203 103.835 135.09L105.041 134.198C104.387 133.313 103.782 132.491 103.242 131.754L102.032 132.641ZM105.644 137.529C106.23 138.318 106.839 139.134 107.46 139.966L108.662 139.068C108.041 138.237 107.433 137.422 106.848 136.634L105.644 137.529ZM109.282 142.398C109.888 143.206 110.499 144.019 111.107 144.825L112.305 143.922C111.697 143.117 111.087 142.305 110.481 141.498L109.282 142.398ZM112.94 147.249C113.568 148.078 114.184 148.888 114.78 149.669L115.972 148.759C115.377 147.979 114.762 147.17 114.135 146.343L112.94 147.249ZM116.63 152.081C117.303 152.954 117.931 153.762 118.497 154.483L119.677 153.557C119.114 152.84 118.489 152.035 117.818 151.165L116.63 152.081ZM120.413 156.875C120.687 157.206 120.92 157.478 121.103 157.678C121.193 157.778 121.278 157.867 121.353 157.938C121.405 157.988 121.523 158.1 121.665 158.171L122.335 156.829C122.422 156.872 122.453 156.914 122.39 156.854C122.35 156.816 122.291 156.755 122.211 156.667C122.052 156.493 121.836 156.242 121.567 155.917L120.413 156.875ZM121.665 158.171C121.803 158.24 121.981 158.329 122.188 158.432L122.856 157.089C122.65 156.987 122.474 156.898 122.335 156.829L121.665 158.171ZM123.242 158.95C123.413 159.033 123.59 159.118 123.771 159.205L124.418 157.851C124.24 157.766 124.065 157.682 123.897 157.6L123.242 158.95Z" fill="url(#paint6_linear_15_91)"/>
</g>
<path d="M70 124.5L69.7628 125.212L70 124.5ZM87.5 124.5L87.6819 125.228L87.5 124.5ZM93.5 123L93.2628 123.712L93.5 123ZM127.5 160L127.737 159.288L127.5 160ZM235 176L234.794 176.721L235 176ZM283.5 153.5L284.072 153.985V153.985L283.5 153.5ZM317.5 107L318.124 107.416L317.5 107ZM349.5 79L349.084 78.376L349.5 79ZM362 73.5L362.237 74.2115L362 73.5ZM53.7086 119.802L53.2048 119.246L53.7086 119.802ZM86.5727 124.634L86.6449 125.381L86.5727 124.634ZM124.095 158.528L124.418 157.851L124.095 158.528ZM145.461 162.524L145.149 161.842L145.461 162.524ZM186.098 168.989L186.303 169.711L186.098 168.989ZM200.7 168.968L200.827 168.228L200.7 168.968ZM235.427 175.999L235.538 176.741L235.427 175.999ZM351.976 77.7423L351.66 77.0619L351.976 77.7423ZM5.12533 157.978C4.76651 158.185 4.64338 158.643 4.85031 159.002C5.05725 159.361 5.51588 159.484 5.8747 159.277L5.12533 157.978ZM124.124 159.446C124.441 159.18 124.481 158.707 124.215 158.39C123.948 158.073 123.475 158.032 123.158 158.299L124.124 159.446ZM123.496 158.035C123.163 158.28 123.091 158.75 123.336 159.084C123.582 159.417 124.051 159.489 124.385 159.243L123.496 158.035ZM124.619 159.604C124.994 159.778 125.44 159.615 125.615 159.239C125.789 158.863 125.625 158.417 125.25 158.243L124.619 159.604ZM126.916 158.978C126.533 158.821 126.095 159.005 125.938 159.388C125.781 159.772 125.965 160.21 126.348 160.366L126.916 158.978ZM128.363 161.37C128.692 161.621 129.163 161.557 129.414 161.227C129.665 160.898 129.601 160.427 129.271 160.176L128.363 161.37ZM131.637 162.13C131.308 161.879 130.837 161.943 130.586 162.273C130.335 162.602 130.399 163.073 130.729 163.324L131.637 162.13ZM133.753 164.426C134.166 164.451 134.521 164.136 134.546 163.722C134.57 163.309 134.255 162.954 133.841 162.929L133.753 164.426ZM136.42 162.968C136.005 162.972 135.674 163.312 135.678 163.726C135.683 164.14 136.023 164.472 136.437 164.468L136.42 162.968ZM139.085 164.402C139.499 164.388 139.823 164.041 139.809 163.627C139.794 163.213 139.447 162.889 139.033 162.903L139.085 164.402ZM141.657 162.798C141.243 162.816 140.922 163.165 140.939 163.579C140.957 163.993 141.307 164.314 141.721 164.296L141.657 162.798ZM143.902 164.014C144.289 163.866 144.482 163.432 144.334 163.045C144.187 162.659 143.753 162.465 143.366 162.613L143.902 164.014ZM144.551 162.112C144.172 162.281 144.002 162.724 144.171 163.103C144.34 163.481 144.783 163.651 145.162 163.482L144.551 162.112ZM147.282 162.502C147.656 162.325 147.816 161.878 147.639 161.504C147.462 161.129 147.015 160.969 146.641 161.146L147.282 162.502ZM149.627 159.718C149.254 159.897 149.097 160.345 149.276 160.719C149.456 161.092 149.904 161.249 150.278 161.069L149.627 159.718ZM153.264 159.636C153.638 159.458 153.797 159.011 153.619 158.637C153.441 158.263 152.993 158.104 152.619 158.282L153.264 159.636ZM155.65 156.88C155.271 157.046 155.098 157.488 155.264 157.868C155.43 158.247 155.872 158.42 156.251 158.254L155.65 156.88ZM158.574 158.378C158.932 158.587 159.391 158.465 159.6 158.108C159.809 157.75 159.687 157.291 159.33 157.082L158.574 158.378ZM162.158 158.806C161.807 158.586 161.344 158.693 161.125 159.045C160.905 159.396 161.012 159.859 161.364 160.078L162.158 158.806ZM164.142 161.829C164.491 162.051 164.955 161.947 165.177 161.597C165.398 161.247 165.295 160.784 164.945 160.562L164.142 161.829ZM167.718 162.325C167.369 162.102 166.905 162.205 166.683 162.555C166.461 162.904 166.564 163.368 166.913 163.59L167.718 162.325ZM169.689 165.353C170.039 165.575 170.503 165.47 170.724 165.12C170.946 164.771 170.842 164.307 170.492 164.086L169.689 165.353ZM173.27 165.835C172.918 165.615 172.456 165.722 172.236 166.073C172.017 166.424 172.124 166.887 172.475 167.107L173.27 165.835ZM175.282 168.838C175.636 169.052 176.097 168.939 176.312 168.585C176.526 168.23 176.413 167.769 176.059 167.555L175.282 168.838ZM178.867 169.188C178.502 168.991 178.047 169.127 177.85 169.491C177.653 169.856 177.789 170.311 178.153 170.508L178.867 169.188ZM181.718 170.948C182.121 170.852 182.37 170.448 182.273 170.045C182.177 169.642 181.773 169.393 181.37 169.489L181.718 170.948ZM184.383 168.693C183.984 168.804 183.751 169.218 183.862 169.617C183.973 170.016 184.387 170.249 184.786 170.138L184.383 168.693ZM188.148 169.184C188.546 169.07 188.777 168.655 188.663 168.256C188.549 167.858 188.133 167.628 187.735 167.742L188.148 169.184ZM191.439 166.699C191.039 166.807 190.802 167.218 190.909 167.618C191.017 168.018 191.428 168.255 191.828 168.148L191.439 166.699ZM195.108 168.136C195.506 168.252 195.922 168.022 196.037 167.625C196.152 167.227 195.923 166.811 195.525 166.696L195.108 168.136ZM199.106 167.78C198.709 167.663 198.292 167.89 198.175 168.287C198.057 168.684 198.284 169.101 198.681 169.219L199.106 167.78ZM200.664 169.721C201.074 169.782 201.456 169.5 201.517 169.09C201.578 168.68 201.295 168.299 200.885 168.238L200.664 169.721ZM200.98 168.249C200.567 168.218 200.207 168.528 200.177 168.941C200.146 169.354 200.456 169.714 200.869 169.745L200.98 168.249ZM202.75 169.75C203.164 169.75 203.5 169.414 203.5 169C203.5 168.586 203.164 168.25 202.75 168.25V169.75ZM206.25 168.25C205.836 168.25 205.5 168.586 205.5 169C205.5 169.414 205.836 169.75 206.25 169.75V168.25ZM209.206 169.975C209.611 170.063 210.011 169.807 210.099 169.402C210.188 168.998 209.932 168.598 209.527 168.509L209.206 169.975ZM212.26 169.156C211.858 169.056 211.451 169.302 211.352 169.704C211.253 170.106 211.498 170.513 211.9 170.612L212.26 169.156ZM214.601 171.293C215.002 171.396 215.411 171.154 215.514 170.753C215.616 170.351 215.374 169.943 214.973 169.84L214.601 171.293ZM217.682 170.541C217.281 170.437 216.871 170.677 216.767 171.077C216.662 171.478 216.902 171.888 217.303 171.993L217.682 170.541ZM219.999 172.702C220.399 172.808 220.81 172.569 220.916 172.169C221.022 171.768 220.783 171.358 220.383 171.252L219.999 172.702ZM223.082 171.97C222.682 171.863 222.271 172.101 222.164 172.501C222.057 172.901 222.294 173.312 222.695 173.419L223.082 171.97ZM225.39 174.143C225.79 174.251 226.201 174.014 226.309 173.614C226.417 173.214 226.18 172.802 225.78 172.694L225.39 174.143ZM228.476 173.424C228.076 173.315 227.664 173.551 227.556 173.951C227.447 174.351 227.683 174.763 228.083 174.872L228.476 173.424ZM230.777 175.607C231.176 175.716 231.589 175.481 231.698 175.082C231.808 174.682 231.573 174.269 231.173 174.16L230.777 175.607ZM233.864 174.902C233.465 174.791 233.052 175.025 232.941 175.424C232.83 175.823 233.063 176.236 233.462 176.347L233.864 174.902ZM235.046 176.766C235.459 176.798 235.821 176.49 235.854 176.077C235.886 175.664 235.578 175.303 235.165 175.27L235.046 176.766ZM235.246 175.267C234.834 175.308 234.533 175.675 234.574 176.088C234.616 176.5 234.983 176.8 235.395 176.759L235.246 175.267ZM237.387 176.192C237.775 176.046 237.971 175.614 237.825 175.226C237.68 174.838 237.247 174.642 236.859 174.788L237.387 176.192ZM240.085 173.42C239.708 173.591 239.541 174.035 239.712 174.413C239.882 174.79 240.327 174.957 240.704 174.786L240.085 173.42ZM243.936 173.287C244.311 173.111 244.472 172.664 244.296 172.29C244.12 171.915 243.673 171.754 243.298 171.93L243.936 173.287ZM246.537 170.43C246.159 170.598 245.988 171.041 246.155 171.419C246.323 171.798 246.766 171.969 247.145 171.801L246.537 170.43ZM249.78 171.146C250.191 171.101 250.489 170.731 250.444 170.319C250.399 169.908 250.029 169.61 249.617 169.655L249.78 171.146ZM251.988 169.359C251.577 169.415 251.29 169.793 251.346 170.204C251.402 170.614 251.781 170.901 252.191 170.845L251.988 169.359ZM254.591 170.491C255 170.426 255.278 170.041 255.213 169.632C255.148 169.223 254.763 168.944 254.354 169.01L254.591 170.491ZM256.686 168.59C256.281 168.676 256.022 169.074 256.109 169.479C256.195 169.885 256.594 170.143 256.999 170.057L256.686 168.59ZM259.451 168.924C259.785 168.679 259.857 168.209 259.612 167.875C259.367 167.541 258.897 167.469 258.564 167.714L259.451 168.924ZM260.499 166.256C260.169 166.507 260.104 166.977 260.355 167.307C260.605 167.637 261.076 167.702 261.406 167.451L260.499 166.256ZM263.345 165.998C263.679 165.753 263.752 165.284 263.507 164.95C263.262 164.616 262.793 164.543 262.458 164.788L263.345 165.998ZM264.511 163.37C264.159 163.589 264.05 164.051 264.269 164.403C264.487 164.755 264.949 164.864 265.301 164.645L264.511 163.37ZM267.449 164.339C267.863 164.37 268.222 164.059 268.252 163.646C268.282 163.233 267.972 162.874 267.559 162.843L267.449 164.339ZM270.503 162.969C270.089 162.978 269.76 163.321 269.768 163.735C269.777 164.149 270.119 164.478 270.534 164.469L270.503 162.969ZM273.498 163.419C273.837 163.18 273.917 162.712 273.678 162.374C273.438 162.036 272.97 161.955 272.632 162.195L273.498 163.419ZM274.643 160.689C274.317 160.944 274.259 161.415 274.514 161.742C274.769 162.068 275.24 162.126 275.567 161.871L274.643 160.689ZM277.567 160.254C277.885 159.988 277.927 159.515 277.662 159.197C277.396 158.879 276.923 158.837 276.605 159.103L277.567 160.254ZM278.513 157.454C278.204 157.73 278.178 158.204 278.454 158.513C278.731 158.822 279.205 158.848 279.513 158.572L278.513 157.454ZM281.401 156.815C281.698 156.526 281.705 156.051 281.416 155.754C281.127 155.457 280.652 155.45 280.355 155.739L281.401 156.815ZM282.105 153.946C281.824 154.251 281.845 154.726 282.15 155.006C282.455 155.286 282.929 155.266 283.209 154.961L282.105 153.946ZM284.999 152.884C285.264 152.566 285.222 152.093 284.904 151.828C284.586 151.562 284.113 151.605 283.848 151.922L284.999 152.884ZM285.678 149.702C285.416 150.023 285.465 150.496 285.786 150.757C286.107 151.018 286.58 150.97 286.841 150.649L285.678 149.702ZM288.65 148.4C288.908 148.076 288.854 147.604 288.53 147.346C288.206 147.088 287.734 147.142 287.476 147.466L288.65 148.4ZM289.256 145.207C289.001 145.534 289.059 146.005 289.386 146.26C289.712 146.515 290.184 146.457 290.438 146.131L289.256 145.207ZM292.208 143.846C292.461 143.517 292.399 143.046 292.071 142.794C291.742 142.542 291.271 142.603 291.019 142.932L292.208 143.846ZM292.764 140.645C292.514 140.975 292.579 141.445 292.909 141.695C293.239 141.945 293.709 141.88 293.96 141.55L292.764 140.645ZM295.695 139.244C295.943 138.913 295.876 138.443 295.544 138.194C295.212 137.946 294.742 138.014 294.494 138.346L295.695 139.244ZM296.212 136.036C295.966 136.369 296.036 136.839 296.369 137.085C296.702 137.331 297.172 137.261 297.418 136.928L296.212 136.036ZM299.128 134.604C299.373 134.269 299.3 133.8 298.966 133.555C298.631 133.311 298.162 133.383 297.917 133.718L299.128 134.604ZM299.612 131.391C299.369 131.727 299.443 132.196 299.779 132.439C300.114 132.682 300.583 132.607 300.826 132.272L299.612 131.391ZM302.516 129.93C302.758 129.594 302.681 129.125 302.345 128.883C302.008 128.642 301.54 128.719 301.298 129.055L302.516 129.93ZM302.974 126.713C302.734 127.05 302.812 127.518 303.15 127.759C303.487 127.999 303.955 127.92 304.196 127.583L302.974 126.713ZM305.863 125.234C306.102 124.895 306.022 124.427 305.684 124.188C305.346 123.949 304.878 124.029 304.638 124.368L305.863 125.234ZM306.299 122.011C306.061 122.35 306.143 122.817 306.482 123.055C306.821 123.293 307.289 123.211 307.527 122.872L306.299 122.011ZM309.18 120.507C309.417 120.168 309.334 119.7 308.994 119.463C308.654 119.227 308.186 119.31 307.95 119.65L309.18 120.507ZM309.591 117.286C309.356 117.626 309.441 118.094 309.781 118.329C310.122 118.565 310.589 118.48 310.825 118.139L309.591 117.286ZM312.462 115.766C312.696 115.424 312.61 114.958 312.268 114.723C311.927 114.488 311.46 114.575 311.225 114.916L312.462 115.766ZM312.855 112.536C312.622 112.878 312.71 113.345 313.052 113.578C313.394 113.811 313.861 113.723 314.094 113.381L312.855 112.536ZM315.714 111C315.946 110.657 315.856 110.19 315.513 109.958C315.17 109.726 314.704 109.816 314.472 110.159L315.714 111ZM316.082 107.771C315.851 108.115 315.943 108.581 316.287 108.812C316.63 109.043 317.096 108.951 317.327 108.607L316.082 107.771ZM318.923 106.49C319.204 106.186 319.187 105.712 318.884 105.43C318.58 105.148 318.105 105.165 317.824 105.469L318.923 106.49ZM319.721 103.512C319.429 103.805 319.43 104.28 319.723 104.573C320.017 104.865 320.492 104.864 320.784 104.57L319.721 103.512ZM322.694 102.678C322.989 102.389 322.994 101.914 322.705 101.618C322.415 101.322 321.94 101.317 321.644 101.607L322.694 102.678ZM323.585 99.7219C323.287 100.009 323.278 100.484 323.565 100.782C323.853 101.081 324.328 101.089 324.626 100.802L323.585 99.7219ZM326.572 98.9391C326.872 98.6536 326.884 98.1789 326.599 97.8788C326.313 97.5786 325.839 97.5666 325.538 97.8521L326.572 98.9391ZM327.503 95.9959C327.201 96.2793 327.186 96.754 327.469 97.056C327.753 97.3581 328.228 97.3733 328.53 97.0899L327.503 95.9959ZM330.502 95.2542C330.807 94.9734 330.826 94.4989 330.545 94.1944C330.264 93.8899 329.79 93.8707 329.485 94.1515L330.502 95.2542ZM331.491 92.3267C331.182 92.6026 331.156 93.0768 331.431 93.3857C331.707 93.6946 332.182 93.7213 332.49 93.4454L331.491 92.3267ZM334.479 91.7359C334.798 91.4714 334.842 90.9986 334.578 90.6798C334.313 90.361 333.841 90.3169 333.522 90.5813L334.479 91.7359ZM335.564 88.9122C335.242 89.1726 335.192 89.6449 335.452 89.967C335.713 90.2891 336.185 90.339 336.507 90.0786L335.564 88.9122ZM338.554 88.435C338.877 88.1765 338.93 87.7046 338.672 87.3809C338.414 87.0572 337.942 87.0043 337.618 87.2627L338.554 88.435ZM339.676 85.627C339.352 85.884 339.297 86.3557 339.554 86.6805C339.811 87.0053 340.282 87.0603 340.607 86.8033L339.676 85.627ZM342.668 85.1787C342.994 84.9229 343.051 84.4514 342.795 84.1256C342.539 83.7998 342.068 83.7431 341.742 83.9989L342.668 85.1787ZM343.815 82.3783C343.488 82.6328 343.429 83.104 343.684 83.4308C343.938 83.7576 344.409 83.8163 344.736 83.5618L343.815 82.3783ZM346.809 81.956C347.137 81.7033 347.198 81.2324 346.946 80.9042C346.693 80.576 346.222 80.5148 345.894 80.7675L346.809 81.956ZM347.992 79.1693C347.66 79.4177 347.593 79.8877 347.841 80.2192C348.089 80.5507 348.56 80.6181 348.891 80.3697L347.992 79.1693ZM350.452 79.3176C350.818 79.1242 350.959 78.6705 350.765 78.3042C350.572 77.9379 350.118 77.7977 349.752 77.9911L350.452 79.3176ZM351.025 77.3599C350.651 77.5377 350.492 77.9851 350.669 78.3592C350.847 78.7333 351.295 78.8925 351.669 78.7147L351.025 77.3599ZM353.52 77.8623C353.898 77.6926 354.067 77.2487 353.897 76.8709C353.727 76.493 353.284 76.3243 352.906 76.4941L353.52 77.8623ZM355.408 75.3933C355.028 75.5576 354.853 75.999 355.017 76.3793C355.181 76.7595 355.623 76.9346 356.003 76.7703L355.408 75.3933ZM358.5 75.708C358.882 75.548 359.062 75.1086 358.902 74.7265C358.742 74.3445 358.302 74.1645 357.92 74.3245L358.5 75.708ZM360.451 73.2863C360.067 73.4396 359.879 73.8758 360.032 74.2606C360.185 74.6454 360.621 74.8331 361.006 74.6799L360.451 73.2863ZM363.563 73.905C363.97 73.8241 364.233 73.4293 364.153 73.023C364.072 72.6168 363.677 72.353 363.271 72.4338L363.563 73.905ZM366.167 71.9089C365.759 71.9785 365.484 72.3659 365.554 72.7743C365.623 73.1826 366.011 73.4572 366.419 73.3876L366.167 71.9089ZM369.293 72.9138C369.702 72.8482 369.981 72.4634 369.915 72.0544C369.849 71.6454 369.465 71.3671 369.056 71.4327L369.293 72.9138ZM371.947 70.9782C371.537 71.0414 371.257 71.4244 371.32 71.8338C371.383 72.2431 371.766 72.5238 372.175 72.4607L371.947 70.9782ZM7.20061 158.512C7.55926 158.304 7.682 157.846 7.47477 157.487C7.26754 157.128 6.8088 157.006 6.45015 157.213L7.20061 158.512ZM9.10057 155.678C8.7423 155.886 8.62039 156.345 8.82827 156.703C9.03616 157.062 9.49512 157.184 9.85339 156.976L9.10057 155.678ZM12.5044 155.434C12.8622 155.225 12.9831 154.766 12.7744 154.408C12.5658 154.05 12.1066 153.929 11.7487 154.138L12.5044 155.434ZM14.3931 152.591C14.0358 152.801 13.9161 153.26 14.1258 153.618C14.3354 153.975 14.7949 154.095 15.1522 153.885L14.3931 152.591ZM17.795 152.328C18.1514 152.117 18.2694 151.657 18.0585 151.301C17.8475 150.944 17.3875 150.826 17.0311 151.037L17.795 152.328ZM19.662 149.471C19.3067 149.684 19.1913 150.145 19.4043 150.5C19.6172 150.855 20.0779 150.971 20.4331 150.758L19.662 149.471ZM23.0599 149.167C23.4129 148.951 23.5236 148.489 23.3071 148.136C23.0905 147.783 22.6287 147.672 22.2756 147.889L23.0599 149.167ZM24.8499 146.268C24.5038 146.496 24.4078 146.961 24.6353 147.307C24.8629 147.653 25.328 147.749 25.6741 147.521L24.8499 146.268ZM28.1384 145.436C28.4336 145.146 28.4374 144.671 28.1469 144.376C27.8564 144.08 27.3815 144.077 27.0863 144.367L28.1384 145.436ZM29.3335 142.161C29.0376 142.451 29.0328 142.926 29.3227 143.222C29.6126 143.517 30.0875 143.522 30.3833 143.232L29.3335 142.161ZM32.6359 141.028C32.9321 140.739 32.9376 140.264 32.6481 139.968C32.3586 139.671 31.8838 139.666 31.5875 139.955L32.6359 141.028ZM33.8411 137.756C33.5444 138.045 33.5384 138.52 33.8275 138.817C34.1166 139.113 34.5915 139.119 34.8881 138.83L33.8411 137.756ZM37.1454 136.633C37.4424 136.344 37.449 135.869 37.1603 135.572C36.8716 135.275 36.3968 135.268 36.0998 135.557L37.1454 136.633ZM38.3603 133.363C38.0629 133.651 38.0555 134.126 38.3438 134.423C38.6321 134.721 39.1069 134.728 39.4044 134.44L38.3603 133.363ZM41.6657 132.251C41.9636 131.963 41.9718 131.489 41.684 131.191C41.3962 130.893 40.9214 130.885 40.6235 131.172L41.6657 132.251ZM42.8909 128.986C42.5924 129.273 42.5833 129.748 42.8705 130.047C43.1576 130.345 43.6324 130.354 43.9309 130.067L42.8909 128.986ZM46.2017 127.888C46.5009 127.601 46.5113 127.126 46.2249 126.827C45.9385 126.528 45.4637 126.518 45.1645 126.804L46.2017 127.888ZM47.4463 124.627C47.1461 124.913 47.134 125.387 47.4194 125.688C47.7047 125.988 48.1794 126 48.4797 125.714L47.4463 124.627ZM50.7645 123.553C51.0662 123.27 51.0808 122.795 50.797 122.493C50.5132 122.192 50.0386 122.177 49.7368 122.461L50.7645 123.553ZM52.0468 120.306C51.7424 120.587 51.7233 121.062 52.0043 121.366C52.2852 121.671 52.7597 121.69 53.0641 121.409L52.0468 120.306ZM54.8824 119.754C55.1915 119.479 55.2185 119.004 54.9428 118.695C54.667 118.386 54.1929 118.359 53.8838 118.635L54.8824 119.754ZM55.2827 117.428C54.9617 117.689 54.9135 118.162 55.1753 118.483C55.437 118.804 55.9094 118.852 56.2304 118.59L55.2827 117.428ZM57.3549 118.63C57.7289 118.808 58.1764 118.649 58.3545 118.275C58.5326 117.901 58.3737 117.453 57.9998 117.275L57.3549 118.63ZM60.2882 118.448C59.9228 118.253 59.4685 118.391 59.2735 118.757C59.0785 119.122 59.2167 119.576 59.5822 119.771L60.2882 118.448ZM61.8064 120.978C62.1696 121.177 62.6255 121.044 62.8247 120.681C63.0239 120.318 62.891 119.862 62.5278 119.663L61.8064 120.978ZM64.7536 120.889C64.391 120.689 63.9347 120.82 63.7345 121.183C63.5342 121.546 63.6659 122.002 64.0285 122.202L64.7536 120.889ZM66.2563 123.428C66.6198 123.627 67.0754 123.493 67.274 123.129C67.4726 122.766 67.339 122.31 66.9755 122.112L66.2563 123.428ZM69.1981 123.3C68.8295 123.111 68.3775 123.256 68.1886 123.625C67.9997 123.993 68.1453 124.445 68.514 124.634L69.1981 123.3ZM71.3082 125.434C71.7212 125.466 72.0818 125.157 72.1136 124.744C72.1454 124.331 71.8364 123.97 71.4234 123.938L71.3082 125.434ZM74.1507 124.067C73.7367 124.055 73.3914 124.381 73.3794 124.795C73.3675 125.209 73.6935 125.555 74.1075 125.567L74.1507 124.067ZM76.8892 125.617C77.3034 125.621 77.6423 125.289 77.6461 124.874C77.6499 124.46 77.3173 124.121 76.9031 124.117L76.8892 125.617ZM79.6592 124.122C79.245 124.124 78.9112 124.462 78.9137 124.876C78.9161 125.29 79.2539 125.624 79.6681 125.622L79.6592 124.122ZM82.4481 125.583C82.8622 125.573 83.1901 125.23 83.1806 124.816C83.171 124.401 82.8276 124.073 82.4135 124.083L82.4481 125.583ZM85.1563 123.984C84.7427 124.006 84.4255 124.359 84.4478 124.773C84.4702 125.187 84.8236 125.504 85.2372 125.481L85.1563 123.984ZM86.8894 125.355C87.301 125.309 87.5974 124.938 87.5513 124.527C87.5052 124.115 87.1342 123.819 86.7225 123.865L86.8894 125.355ZM87.1445 123.807C86.7362 123.877 86.4615 124.264 86.5311 124.673C86.6006 125.081 86.988 125.356 87.3963 125.286L87.1445 123.807ZM89.0868 124.779C89.4755 124.636 89.6746 124.204 89.5315 123.816C89.3884 123.427 88.9573 123.228 88.5686 123.371L89.0868 124.779ZM91.2451 122.407C90.8468 122.521 90.6162 122.936 90.73 123.334C90.8438 123.733 91.259 123.963 91.6572 123.849L91.2451 122.407ZM88.3358 124.923C88.7349 124.812 88.9686 124.399 88.8578 124C88.7471 123.601 88.3337 123.367 87.9346 123.478L88.3358 124.923ZM91.0594 122.61C90.6603 122.721 90.4266 123.135 90.5374 123.534C90.6482 123.933 91.0615 124.167 91.4607 124.056L91.0594 122.61ZM92.9449 123.653C93.3582 123.681 93.7154 123.368 93.7427 122.954C93.77 122.541 93.4571 122.184 93.0438 122.157L92.9449 123.653ZM93.5022 122.223C93.0984 122.13 92.6961 122.382 92.6035 122.786C92.5108 123.19 92.7631 123.592 93.1668 123.685L93.5022 122.223ZM94.8794 124.713C95.2119 124.96 95.6817 124.891 95.9286 124.558C96.1756 124.226 96.1062 123.756 95.7736 123.509L94.8794 124.713ZM99.1085 126.356C98.811 126.068 98.3361 126.076 98.048 126.373C97.7598 126.671 97.7674 127.146 98.065 127.434L99.1085 126.356ZM100.238 130.171C100.479 130.508 100.948 130.586 101.285 130.345C101.622 130.104 101.699 129.635 101.458 129.298L100.238 130.171ZM103.242 131.754C102.997 131.42 102.528 131.348 102.194 131.592C101.859 131.837 101.787 132.307 102.032 132.641L103.242 131.754ZM103.835 135.09C104.082 135.423 104.551 135.493 104.884 135.247C105.217 135.001 105.288 134.531 105.041 134.198L103.835 135.09ZM106.848 136.634C106.601 136.302 106.131 136.233 105.799 136.48C105.466 136.727 105.397 137.197 105.644 137.529L106.848 136.634ZM107.46 139.966C107.708 140.298 108.178 140.366 108.51 140.118C108.842 139.87 108.91 139.4 108.662 139.068L107.46 139.966ZM110.481 141.498C110.233 141.167 109.763 141.1 109.431 141.348C109.1 141.597 109.033 142.067 109.282 142.398L110.481 141.498ZM111.107 144.825C111.356 145.156 111.827 145.222 112.157 144.973C112.488 144.723 112.554 144.253 112.305 143.922L111.107 144.825ZM114.135 146.343C113.885 146.013 113.414 145.948 113.084 146.199C112.754 146.449 112.689 146.919 112.94 147.249L114.135 146.343ZM114.78 149.669C115.032 149.998 115.502 150.061 115.831 149.81C116.161 149.559 116.224 149.088 115.972 148.759L114.78 149.669ZM117.818 151.165C117.565 150.837 117.094 150.776 116.766 151.029C116.438 151.282 116.377 151.753 116.63 152.081L117.818 151.165ZM118.497 154.483C118.752 154.809 119.224 154.866 119.55 154.61C119.875 154.354 119.932 153.883 119.677 153.557L118.497 154.483ZM121.567 155.917C121.303 155.599 120.83 155.554 120.511 155.819C120.192 156.083 120.148 156.556 120.413 156.875L121.567 155.917ZM122.188 158.432C122.559 158.616 123.009 158.465 123.194 158.094C123.378 157.723 123.226 157.273 122.856 157.089L122.188 158.432ZM123.897 157.6C123.524 157.419 123.075 157.575 122.894 157.947C122.713 158.32 122.869 158.769 123.242 158.95L123.897 157.6ZM124.03 159.53C124.049 159.512 124.079 159.484 124.124 159.446L123.158 158.299C123.092 158.355 123.027 158.412 122.97 158.47L124.03 159.53ZM124.385 159.243C124.43 159.211 124.477 159.176 124.528 159.14L123.661 157.916C123.604 157.957 123.549 157.996 123.496 158.035L124.385 159.243ZM123.771 159.205C124.047 159.337 124.332 159.471 124.619 159.604L125.25 158.243C124.969 158.113 124.69 157.981 124.418 157.851L123.771 159.205ZM126.348 160.366C126.677 160.501 126.989 160.62 127.263 160.712L127.737 159.288C127.506 159.212 127.229 159.106 126.916 158.978L126.348 160.366ZM127.263 160.712C127.55 160.807 127.915 161.029 128.363 161.37L129.271 160.176C128.794 159.813 128.268 159.465 127.737 159.288L127.263 160.712ZM130.729 163.324C131.206 163.687 131.732 164.035 132.263 164.212L132.737 162.788C132.45 162.693 132.085 162.471 131.637 162.13L130.729 163.324ZM132.263 164.212C132.628 164.333 133.177 164.392 133.753 164.426L133.841 162.929C133.256 162.894 132.892 162.84 132.737 162.788L132.263 164.212ZM136.437 164.468C137.308 164.457 138.223 164.432 139.085 164.402L139.033 162.903C138.177 162.933 137.275 162.958 136.42 162.968L136.437 164.468ZM141.721 164.296C142.373 164.268 142.823 164.25 143 164.25V162.75C142.781 162.75 142.287 162.771 141.657 162.798L141.721 164.296ZM143 164.25C143.17 164.25 143.342 164.203 143.451 164.171C143.583 164.131 143.737 164.077 143.902 164.014L143.366 162.613C143.218 162.67 143.105 162.709 143.024 162.733C142.984 162.745 142.959 162.751 142.947 162.753C142.93 162.757 142.953 162.75 143 162.75V164.25ZM145.162 163.482C145.355 163.396 145.559 163.303 145.773 163.206L145.149 161.842C144.939 161.938 144.739 162.028 144.551 162.112L145.162 163.482ZM145.773 163.206C146.237 162.994 146.745 162.756 147.282 162.502L146.641 161.146C146.108 161.398 145.605 161.633 145.149 161.842L145.773 163.206ZM150.278 161.069C151.293 160.58 152.314 160.088 153.264 159.636L152.619 158.282C151.665 158.736 150.641 159.229 149.627 159.718L150.278 161.069ZM156.251 158.254C156.649 158.08 156.975 157.945 157.219 157.855C157.342 157.809 157.434 157.779 157.498 157.761C157.582 157.737 157.566 157.75 157.5 157.75V156.25C157.343 156.25 157.189 156.29 157.091 156.317C156.973 156.351 156.84 156.396 156.698 156.448C156.414 156.553 156.057 156.702 155.65 156.88L156.251 158.254ZM157.5 157.75C157.452 157.75 157.417 157.745 157.4 157.742C157.382 157.738 157.37 157.735 157.367 157.734C157.362 157.733 157.37 157.735 157.396 157.745C157.448 157.766 157.529 157.803 157.643 157.861C157.87 157.976 158.183 158.15 158.574 158.378L159.33 157.082C158.929 156.849 158.587 156.658 158.321 156.523C158.189 156.456 158.064 156.397 157.954 156.353C157.881 156.324 157.698 156.25 157.5 156.25V157.75ZM161.364 160.078C162.214 160.609 163.152 161.201 164.142 161.829L164.945 160.562C163.954 159.934 163.012 159.339 162.158 158.806L161.364 160.078ZM166.913 163.59C167.833 164.175 168.767 164.769 169.689 165.353L170.492 164.086C169.571 163.503 168.638 162.91 167.718 162.325L166.913 163.59ZM172.475 167.107C173.47 167.729 174.418 168.315 175.282 168.838L176.059 167.555C175.203 167.036 174.262 166.454 173.27 165.835L172.475 167.107ZM178.153 170.508C178.543 170.719 178.885 170.892 179.164 171.015C179.303 171.077 179.437 171.13 179.56 171.17C179.668 171.205 179.829 171.25 180 171.25V169.75C180.071 169.75 180.092 169.766 180.021 169.743C179.965 169.725 179.883 169.693 179.77 169.643C179.545 169.543 179.242 169.391 178.867 169.188L178.153 170.508ZM180 171.25C180.367 171.25 181.01 171.117 181.718 170.948L181.37 169.489C180.61 169.671 180.155 169.75 180 169.75V171.25ZM184.786 170.138C185.28 170.001 185.789 169.857 186.303 169.711L185.893 168.268C185.381 168.413 184.874 168.556 184.383 168.693L184.786 170.138ZM186.303 169.711C186.918 169.536 187.54 169.358 188.148 169.184L187.735 167.742C187.127 167.916 186.507 168.093 185.893 168.268L186.303 169.711ZM191.828 168.148C192.306 168.019 192.708 167.916 193.014 167.846C193.167 167.81 193.29 167.785 193.383 167.768C193.488 167.75 193.516 167.75 193.5 167.75V166.25C193.289 166.25 192.974 166.316 192.677 166.384C192.345 166.461 191.922 166.569 191.439 166.699L191.828 168.148ZM193.5 167.75C193.5 167.75 193.5 167.75 193.5 167.75C193.5 167.75 193.5 167.75 193.5 167.75C193.5 167.75 193.5 167.75 193.5 167.75C193.5 167.75 193.501 167.75 193.501 167.75C193.501 167.75 193.502 167.75 193.503 167.75C193.506 167.75 193.509 167.75 193.513 167.751C193.522 167.751 193.533 167.752 193.548 167.754C193.578 167.757 193.616 167.762 193.665 167.77C193.762 167.787 193.884 167.812 194.031 167.847C194.325 167.916 194.692 168.016 195.108 168.136L195.525 166.696C195.1 166.573 194.705 166.464 194.375 166.387C194.068 166.314 193.745 166.25 193.5 166.25V167.75ZM198.681 169.219C199.424 169.438 200.115 169.628 200.574 169.707L200.827 168.228C200.468 168.167 199.86 168.003 199.106 167.78L198.681 169.219ZM200.574 169.707C200.604 169.712 200.634 169.717 200.664 169.721L200.885 168.238C200.868 168.235 200.848 168.232 200.827 168.228L200.574 169.707ZM200.869 169.745C200.911 169.748 200.955 169.75 201 169.75V168.25C200.999 168.25 200.993 168.25 200.98 168.249L200.869 169.745ZM201 169.75H202.75V168.25H201V169.75ZM206.25 169.75H208V168.25H206.25V169.75ZM208 169.75C207.996 169.75 208.022 169.75 208.093 169.76C208.159 169.768 208.245 169.782 208.354 169.801C208.571 169.84 208.857 169.898 209.206 169.975L209.527 168.509C209.169 168.431 208.862 168.368 208.617 168.325C208.394 168.285 208.166 168.25 208 168.25V169.75ZM211.9 170.612C212.719 170.814 213.628 171.044 214.601 171.293L214.973 169.84C213.998 169.59 213.084 169.359 212.26 169.156L211.9 170.612ZM217.303 171.993C218.181 172.222 219.086 172.46 219.999 172.702L220.383 171.252C219.468 171.01 218.562 170.771 217.682 170.541L217.303 171.993ZM222.695 173.419C223.605 173.663 224.509 173.905 225.39 174.143L225.78 172.694C224.899 172.457 223.994 172.214 223.082 171.97L222.695 173.419ZM228.083 174.872C229.046 175.133 229.953 175.381 230.777 175.607L231.173 174.16C230.348 173.934 229.44 173.686 228.476 173.424L228.083 174.872ZM233.462 176.347C234.034 176.506 234.487 176.633 234.794 176.721L235.206 175.279C234.894 175.19 234.437 175.061 233.864 174.902L233.462 176.347ZM234.794 176.721C234.883 176.747 234.969 176.759 235.046 176.766L235.165 175.27C235.163 175.27 235.179 175.271 235.206 175.279L234.794 176.721ZM235.395 176.759C235.443 176.754 235.49 176.748 235.538 176.741L235.316 175.258C235.29 175.262 235.266 175.264 235.246 175.267L235.395 176.759ZM235.538 176.741C236.024 176.668 236.676 176.459 237.387 176.192L236.859 174.788C236.156 175.052 235.632 175.21 235.316 175.258L235.538 176.741ZM240.704 174.786C241.776 174.301 242.89 173.779 243.936 173.287L243.298 171.93C242.252 172.421 241.146 172.94 240.085 173.42L240.704 174.786ZM247.145 171.801C247.567 171.614 247.916 171.467 248.179 171.368C248.312 171.318 248.412 171.284 248.483 171.264C248.573 171.238 248.562 171.25 248.5 171.25V169.75C248.337 169.75 248.176 169.792 248.069 169.822C247.943 169.858 247.801 169.908 247.65 169.965C247.347 170.079 246.968 170.239 246.537 170.43L247.145 171.801ZM248.5 171.25C248.74 171.25 249.213 171.208 249.78 171.146L249.617 169.655C249.03 169.719 248.643 169.75 248.5 169.75V171.25ZM252.191 170.845C252.977 170.738 253.806 170.616 254.591 170.491L254.354 169.01C253.582 169.133 252.764 169.253 251.988 169.359L252.191 170.845ZM256.999 170.057C257.533 169.943 258.047 169.815 258.335 169.671L257.665 168.329C257.579 168.372 257.264 168.466 256.686 168.59L256.999 170.057ZM258.335 169.671C258.59 169.544 259.003 169.252 259.451 168.924L258.564 167.714C258.082 168.068 257.781 168.271 257.665 168.329L258.335 169.671ZM261.406 167.451C262.042 166.969 262.709 166.464 263.345 165.998L262.458 164.788C261.812 165.262 261.135 165.773 260.499 166.256L261.406 167.451ZM265.301 164.645C265.544 164.495 265.741 164.384 265.89 164.314C265.964 164.279 266.015 164.259 266.046 164.25C266.084 164.237 266.061 164.25 266 164.25V162.75C265.718 162.75 265.437 162.869 265.249 162.958C265.027 163.063 264.776 163.206 264.511 163.37L265.301 164.645ZM266 164.25C266.258 164.25 266.769 164.289 267.449 164.339L267.559 162.843C266.922 162.797 266.329 162.75 266 162.75V164.25ZM270.534 164.469C270.874 164.462 271.204 164.442 271.496 164.402C271.776 164.363 272.08 164.298 272.335 164.171L271.665 162.829C271.63 162.847 271.518 162.885 271.291 162.916C271.077 162.946 270.811 162.963 270.503 162.969L270.534 164.469ZM272.335 164.171C272.577 164.05 272.995 163.775 273.498 163.419L272.632 162.195C272.116 162.559 271.789 162.767 271.665 162.829L272.335 164.171ZM275.567 161.871C276.187 161.386 276.864 160.841 277.567 160.254L276.605 159.103C275.915 159.679 275.251 160.214 274.643 160.689L275.567 161.871ZM279.513 158.572C280.148 158.004 280.783 157.415 281.401 156.815L280.355 155.739C279.754 156.323 279.134 156.898 278.513 157.454L279.513 158.572ZM283.209 154.961C283.508 154.636 283.797 154.31 284.072 153.985L282.928 153.015C282.667 153.323 282.391 153.634 282.105 153.946L283.209 154.961ZM284.072 153.985C284.379 153.624 284.688 153.257 284.999 152.884L283.848 151.922C283.539 152.292 283.232 152.656 282.928 153.015L284.072 153.985ZM286.841 150.649C287.439 149.914 288.042 149.163 288.65 148.4L287.476 147.466C286.872 148.225 286.272 148.972 285.678 149.702L286.841 150.649ZM290.438 146.131C291.026 145.378 291.617 144.615 292.208 143.846L291.019 142.932C290.43 143.698 289.842 144.458 289.256 145.207L290.438 146.131ZM293.96 141.55C294.539 140.786 295.118 140.016 295.695 139.244L294.494 138.346C293.918 139.115 293.341 139.882 292.764 140.645L293.96 141.55ZM297.418 136.928C297.991 136.153 298.562 135.377 299.128 134.604L297.917 133.718C297.353 134.489 296.784 135.263 296.212 136.036L297.418 136.928ZM300.826 132.272C301.396 131.486 301.959 130.705 302.516 129.93L301.298 129.055C300.742 129.828 300.18 130.608 299.612 131.391L300.826 132.272ZM304.196 127.583C304.761 126.789 305.318 126.005 305.863 125.234L304.638 124.368C304.094 125.138 303.539 125.92 302.974 126.713L304.196 127.583ZM307.527 122.872C308.093 122.065 308.645 121.275 309.18 120.507L307.95 119.65C307.415 120.417 306.864 121.205 306.299 122.011L307.527 122.872ZM310.825 118.139C311.396 117.313 311.943 116.52 312.462 115.766L311.225 114.916C310.708 115.669 310.162 116.461 309.591 117.286L310.825 118.139ZM314.094 113.381C314.692 112.506 315.234 111.708 315.714 111L314.472 110.159C313.993 110.865 313.452 111.662 312.855 112.536L314.094 113.381ZM317.327 108.607C317.753 107.973 318.025 107.564 318.124 107.416L316.876 106.584C316.778 106.731 316.506 107.139 316.082 107.771L317.327 108.607ZM318.124 107.416C318.216 107.278 318.478 106.968 318.923 106.49L317.824 105.469C317.393 105.932 317.047 106.328 316.876 106.584L318.124 107.416ZM320.784 104.57C321.363 103.988 322.008 103.35 322.694 102.678L321.644 101.607C320.955 102.282 320.306 102.924 319.721 103.512L320.784 104.57ZM324.626 100.802C325.266 100.185 325.92 99.5587 326.572 98.9391L325.538 97.8521C324.884 98.4739 324.228 99.1023 323.585 99.7219L324.626 100.802ZM328.53 97.0899C329.217 96.4452 329.881 95.8267 330.502 95.2542L329.485 94.1515C328.861 94.7273 328.193 95.3487 327.503 95.9959L328.53 97.0899ZM332.49 93.4454C332.869 93.1073 333.205 92.8125 333.488 92.5694L332.512 91.4306C332.218 91.6824 331.874 91.9844 331.491 92.3267L332.49 93.4454ZM333.488 92.5694C333.768 92.3295 334.102 92.0492 334.479 91.7359L333.522 90.5813C333.14 90.8979 332.8 91.1836 332.512 91.4306L333.488 92.5694ZM336.507 90.0786C337.148 89.5604 337.837 89.007 338.554 88.435L337.618 87.2627C336.899 87.8363 336.208 88.3917 335.564 88.9122L336.507 90.0786ZM340.607 86.8033C341.294 86.2596 341.987 85.7137 342.668 85.1787L341.742 83.9989C341.059 84.535 340.365 85.0821 339.676 85.627L340.607 86.8033ZM344.736 83.5618C345.474 82.9872 346.173 82.4453 346.809 81.956L345.894 80.7675C345.256 81.2587 344.554 81.8023 343.815 82.3783L344.736 83.5618ZM348.891 80.3697C349.39 79.996 349.74 79.7414 349.916 79.624L349.084 78.376C348.868 78.5197 348.486 78.7989 347.992 79.1693L348.891 80.3697ZM349.916 79.624C350.021 79.5541 350.198 79.4516 350.452 79.3176L349.752 77.9911C349.486 78.1313 349.254 78.2625 349.084 78.376L349.916 79.624ZM351.669 78.7147C351.866 78.6211 352.074 78.5235 352.291 78.4227L351.66 77.0619C351.439 77.1644 351.227 77.264 351.025 77.3599L351.669 78.7147ZM352.291 78.4227C352.676 78.2444 353.089 78.0563 353.52 77.8623L352.906 76.4941C352.47 76.69 352.051 76.8806 351.66 77.0619L352.291 78.4227ZM356.003 76.7703C356.854 76.4025 357.706 76.0403 358.5 75.708L357.92 74.3245C357.122 74.6589 356.264 75.0233 355.408 75.3933L356.003 76.7703ZM361.006 74.6799C361.593 74.4462 362.02 74.2839 362.237 74.2115L361.763 72.7885C361.499 72.8763 361.035 73.0539 360.451 73.2863L361.006 74.6799ZM362.237 74.2115C362.441 74.1436 362.897 74.0375 363.563 73.905L363.271 72.4338C362.62 72.5633 362.071 72.6859 361.763 72.7885L362.237 74.2115ZM366.419 73.3876C367.362 73.227 368.355 73.0643 369.293 72.9138L369.056 71.4327C368.114 71.5837 367.116 71.7473 366.167 71.9089L366.419 73.3876ZM372.175 72.4607C372.613 72.3932 372.973 72.3384 373.222 72.3005C373.347 72.2816 373.444 72.2669 373.51 72.2569C373.544 72.2519 373.569 72.2481 373.586 72.2455C373.594 72.2443 373.601 72.2433 373.605 72.2427C373.607 72.2423 373.609 72.2421 373.61 72.2419C373.61 72.2419 373.611 72.2418 373.611 72.2418C373.611 72.2417 373.611 72.2417 373.611 72.2417C373.611 72.2417 373.611 72.2417 373.611 72.2417C373.611 72.2417 373.611 72.2417 373.611 72.2417C373.611 72.2417 373.611 72.2417 373.5 71.5C373.389 70.7583 373.389 70.7583 373.389 70.7583C373.389 70.7583 373.389 70.7583 373.389 70.7583C373.389 70.7583 373.389 70.7583 373.389 70.7583C373.389 70.7583 373.388 70.7583 373.388 70.7584C373.388 70.7584 373.388 70.7585 373.387 70.7586C373.386 70.7587 373.384 70.759 373.382 70.7593C373.378 70.76 373.371 70.7609 373.363 70.7622C373.345 70.7648 373.32 70.7686 373.287 70.7737C373.22 70.7837 373.122 70.7985 372.997 70.8175C372.746 70.8556 372.386 70.9105 371.947 70.9782L372.175 72.4607ZM5.8747 159.277C6.29918 159.032 6.74229 158.776 7.20061 158.512L6.45015 157.213C5.99221 157.477 5.54947 157.733 5.12533 157.978L5.8747 159.277ZM9.85339 156.976C10.7164 156.475 11.6059 155.958 12.5044 155.434L11.7487 154.138C10.8513 154.661 9.96278 155.178 9.10057 155.678L9.85339 156.976ZM15.1522 153.885C16.0465 153.36 16.9331 152.838 17.795 152.328L17.0311 151.037C16.171 151.546 15.286 152.067 14.3931 152.591L15.1522 153.885ZM20.4331 150.758C21.3791 150.191 22.2645 149.655 23.0599 149.167L22.2756 147.889C21.4858 148.373 20.605 148.906 19.662 149.471L20.4331 150.758ZM25.6741 147.521C26.2953 147.113 26.8019 146.759 27.0303 146.53L25.9697 145.47C25.873 145.566 25.5139 145.831 24.8499 146.268L25.6741 147.521ZM27.0303 146.53C27.1724 146.388 27.5566 146.009 28.1384 145.436L27.0863 144.367C26.5057 144.938 26.1169 145.322 25.9697 145.47L27.0303 146.53ZM30.3833 143.232C31.0601 142.569 31.8173 141.828 32.6359 141.028L31.5875 139.955C30.7684 140.756 30.0108 141.497 29.3335 142.161L30.3833 143.232ZM34.8881 138.83C35.6149 138.122 36.3705 137.386 37.1454 136.633L36.0998 135.557C35.3244 136.311 34.5683 137.047 33.8411 137.756L34.8881 138.83ZM39.4044 134.44C40.1519 133.715 40.9082 132.983 41.6657 132.251L40.6235 131.172C39.8654 131.905 39.1084 132.637 38.3603 133.363L39.4044 134.44ZM43.9309 130.067C44.6974 129.33 45.457 128.6 46.2017 127.888L45.1645 126.804C44.4188 127.518 43.6582 128.248 42.8909 128.986L43.9309 130.067ZM48.4797 125.714C49.2753 124.958 50.0408 124.234 50.7645 123.553L49.7368 122.461C49.0109 123.143 48.2435 123.869 47.4463 124.627L48.4797 125.714ZM53.0641 121.409C53.4729 121.031 53.8569 120.68 54.2124 120.357L53.2048 119.246C52.8454 119.572 52.4582 119.927 52.0468 120.306L53.0641 121.409ZM54.2124 120.357C54.4488 120.143 54.6724 119.942 54.8824 119.754L53.8838 118.635C53.6703 118.825 53.4436 119.03 53.2048 119.246L54.2124 120.357ZM56.2304 118.59C56.4273 118.43 56.5744 118.318 56.6745 118.249C56.6986 118.232 56.7176 118.22 56.7322 118.211C56.7393 118.206 56.7449 118.203 56.7488 118.201C56.7528 118.198 56.7547 118.197 56.7544 118.198C56.7543 118.198 56.751 118.199 56.7448 118.202C56.7388 118.205 56.7277 118.21 56.7121 118.215C56.6921 118.222 56.6126 118.25 56.5 118.25V116.75C56.367 116.75 56.2617 116.783 56.2105 116.802C56.1505 116.823 56.0983 116.848 56.0584 116.869C55.9786 116.911 55.8984 116.962 55.8246 117.013C55.6745 117.116 55.4906 117.258 55.2827 117.428L56.2304 118.59ZM56.5 118.25C56.4339 118.25 56.4095 118.237 56.4633 118.252C56.5036 118.264 56.5658 118.285 56.6535 118.319C56.8281 118.387 57.0633 118.491 57.3549 118.63L57.9998 117.275C57.6944 117.13 57.4213 117.008 57.1968 116.921C57.0848 116.877 56.9747 116.838 56.8724 116.809C56.7837 116.784 56.6466 116.75 56.5 116.75V118.25ZM59.5822 119.771C60.2751 120.141 61.03 120.552 61.8064 120.978L62.5278 119.663C61.749 119.235 60.9884 118.822 60.2882 118.448L59.5822 119.771ZM64.0285 122.202C64.8025 122.63 65.5591 123.047 66.2563 123.428L66.9755 122.112C66.2817 121.733 65.5279 121.317 64.7536 120.889L64.0285 122.202ZM68.514 124.634C69.036 124.902 69.4876 125.12 69.7628 125.212L70.2372 123.788C70.0901 123.739 69.7428 123.579 69.1981 123.3L68.514 124.634ZM69.7628 125.212C70.0845 125.319 70.6626 125.384 71.3082 125.434L71.4234 123.938C70.7326 123.885 70.3504 123.826 70.2372 123.788L69.7628 125.212ZM74.1075 125.567C74.9716 125.592 75.9152 125.608 76.8892 125.617L76.9031 124.117C75.937 124.109 75.0034 124.092 74.1507 124.067L74.1075 125.567ZM79.6681 125.622C80.6218 125.616 81.563 125.603 82.4481 125.583L82.4135 124.083C81.5379 124.103 80.6054 124.116 79.6592 124.122L79.6681 125.622ZM85.2372 125.481C85.7709 125.453 86.2475 125.419 86.6449 125.381L86.5005 123.888C86.1315 123.923 85.6778 123.955 85.1563 123.984L85.2372 125.481ZM86.6449 125.381C86.7297 125.373 86.8113 125.364 86.8894 125.355L86.7225 123.865C86.6528 123.872 86.5787 123.88 86.5005 123.888L86.6449 125.381ZM87.3963 125.286C87.4969 125.269 87.5935 125.25 87.6819 125.228L87.3181 123.772C87.2778 123.782 87.2208 123.794 87.1445 123.807L87.3963 125.286ZM87.6819 125.228C88.1455 125.112 88.6222 124.95 89.0868 124.779L88.5686 123.371C88.1221 123.535 87.7041 123.676 87.3181 123.772L87.6819 125.228ZM91.6572 123.849C92.1153 123.719 92.5028 123.649 92.8212 123.649L92.8238 122.149C92.3051 122.148 91.7646 122.259 91.2451 122.407L91.6572 123.849ZM86.7733 125.357L88.3358 124.923L87.9346 123.478L86.3721 123.912L86.7733 125.357ZM91.4607 124.056L93.0231 123.622L92.6219 122.177L91.0594 122.61L91.4607 124.056ZM92.8212 123.649C92.8643 123.649 92.9055 123.651 92.9449 123.653L93.0438 122.157C92.9705 122.152 92.8971 122.15 92.8238 122.149L92.8212 123.649ZM93.1668 123.685C93.2009 123.693 93.2328 123.702 93.2628 123.712L93.7372 122.288C93.6594 122.263 93.5809 122.241 93.5022 122.223L93.1668 123.685ZM93.2628 123.712C93.5571 123.81 94.1297 124.157 94.8794 124.713L95.7736 123.509C95.038 122.963 94.2884 122.472 93.7372 122.288L93.2628 123.712ZM98.065 127.434C98.4152 127.773 98.7153 128.082 98.9428 128.339C99.1862 128.614 99.2999 128.777 99.3292 128.835L100.671 128.165C100.545 127.913 100.31 127.621 100.065 127.344C99.8043 127.05 99.4754 126.712 99.1085 126.356L98.065 127.434ZM99.3292 128.835C99.3858 128.949 99.5113 129.135 99.6424 129.326C99.7899 129.54 99.9912 129.826 100.238 130.171L101.458 129.298C101.213 128.956 101.018 128.679 100.878 128.476C100.722 128.249 100.67 128.162 100.671 128.165L99.3292 128.835ZM102.032 132.641C102.573 133.379 103.18 134.203 103.835 135.09L105.041 134.198C104.387 133.313 103.782 132.491 103.242 131.754L102.032 132.641ZM105.644 137.529C106.23 138.318 106.839 139.134 107.46 139.966L108.662 139.068C108.041 138.237 107.433 137.422 106.848 136.634L105.644 137.529ZM109.282 142.398C109.888 143.206 110.499 144.019 111.107 144.825L112.305 143.922C111.697 143.117 111.087 142.305 110.481 141.498L109.282 142.398ZM112.94 147.249C113.568 148.078 114.184 148.888 114.78 149.669L115.972 148.759C115.377 147.979 114.762 147.17 114.135 146.343L112.94 147.249ZM116.63 152.081C117.303 152.954 117.931 153.762 118.497 154.483L119.677 153.557C119.114 152.84 118.489 152.035 117.818 151.165L116.63 152.081ZM120.413 156.875C120.687 157.206 120.92 157.478 121.103 157.678C121.193 157.778 121.278 157.867 121.353 157.938C121.405 157.988 121.523 158.1 121.665 158.171L122.335 156.829C122.422 156.872 122.453 156.914 122.39 156.854C122.35 156.816 122.291 156.755 122.211 156.667C122.052 156.493 121.836 156.242 121.567 155.917L120.413 156.875ZM121.665 158.171C121.803 158.24 121.981 158.329 122.188 158.432L122.856 157.089C122.65 156.987 122.474 156.898 122.335 156.829L121.665 158.171ZM123.242 158.95C123.413 159.033 123.59 159.118 123.771 159.205L124.418 157.851C124.24 157.766 124.065 157.682 123.897 157.6L123.242 158.95Z" fill="url(#paint7_linear_15_91)"/>
<defs>
<filter id="filter0_f_15_91" x="1.70049" y="17.1049" width="354.025" height="162.666" filterUnits="userSpaceOnUse" color-interpolation-filters="sRGB">
<feFlood flood-opacity="0" result="BackgroundImageFix"/>
<feBlend mode="normal" in="SourceGraphic" in2="BackgroundImageFix" result="shape"/>
<feGaussianBlur stdDeviation="1.5" result="effect1_foregroundBlur_15_91"/>
</filter>
<filter id="filter1_f_15_91" x="49.9586" y="70.7499" width="317.792" height="157.527" filterUnits="userSpaceOnUse" color-interpolation-filters="sRGB">
<feFlood flood-opacity="0" result="BackgroundImageFix"/>
<feBlend mode="normal" in="SourceGraphic" in2="BackgroundImageFix" result="shape"/>
<feGaussianBlur stdDeviation="1.5" result="effect1_foregroundBlur_15_91"/>
</filter>
<filter id="filter2_f_15_91" x="1.74989" y="67.7583" width="374.861" height="112.01" filterUnits="userSpaceOnUse" color-interpolation-filters="sRGB">
<feFlood flood-opacity="0" result="BackgroundImageFix"/>
<feBlend mode="normal" in="SourceGraphic" in2="BackgroundImageFix" result="shape"/>
<feGaussianBlur stdDeviation="1.5" result="effect1_foregroundBlur_15_91"/>
</filter>
<linearGradient id="paint0_linear_15_91" x1="1.75" y1="-2.18557e-08" x2="1.75002" y2="241" gradientUnits="userSpaceOnUse">
<stop stop-color="#313131" stop-opacity="0"/>
<stop offset="0.505" stop-color="#979797"/>
</linearGradient>
<linearGradient id="paint1_linear_15_91" x1="365" y1="241.5" x2="2.00002" y2="241.5" gradientUnits="userSpaceOnUse">
<stop stop-color="#313131" stop-opacity="0"/>
<stop offset="0.525" stop-color="#979797"/>
</linearGradient>
<linearGradient id="paint2_linear_15_91" x1="5.00002" y1="130.5" x2="426" y2="125" gradientUnits="userSpaceOnUse">
<stop stop-color="#81C58B"/>
<stop offset="1" stop-color="#3E5F43" stop-opacity="0"/>
</linearGradient>
<linearGradient id="paint3_linear_15_91" x1="5.00002" y1="130.5" x2="426" y2="125" gradientUnits="userSpaceOnUse">
<stop stop-color="#81C58B"/>
<stop offset="1" stop-color="#3E5F43" stop-opacity="0"/>
</linearGradient>
<linearGradient id="paint4_linear_15_91" x1="9.00001" y1="134" x2="424.5" y2="133" gradientUnits="userSpaceOnUse">
<stop stop-color="#FF8989"/>
<stop offset="1" stop-color="#995252" stop-opacity="0"/>
</linearGradient>
<linearGradient id="paint5_linear_15_91" x1="9.00001" y1="134" x2="424.5" y2="133" gradientUnits="userSpaceOnUse">
<stop stop-color="#FF8989"/>
<stop offset="1" stop-color="#995252" stop-opacity="0"/>
</linearGradient>
<linearGradient id="paint6_linear_15_91" x1="5.50002" y1="123.76" x2="426.5" y2="128" gradientUnits="userSpaceOnUse">
<stop stop-color="#FFD582"/>
<stop offset="1" stop-color="#99804E" stop-opacity="0"/>
</linearGradient>
<linearGradient id="paint7_linear_15_91" x1="5.50002" y1="123.76" x2="426.5" y2="128" gradientUnits="userSpaceOnUse">
<stop stop-color="#FFD582"/>
<stop offset="1" stop-color="#99804E" stop-opacity="0"/>
</linearGradient>
</defs>
</svg>
