<svg width="395" height="257" viewBox="0 0 395 257" fill="none" xmlns="http://www.w3.org/2000/svg">
<mask id="path-1-inside-1_40_74" fill="white">
<path fill-rule="evenodd" clip-rule="evenodd" d="M223.213 6.01489C229.833 6.01489 235.249 6.17894 235.249 6.45234C235.249 6.67106 237.164 7.10851 239.462 7.49128C241.814 7.81936 246.793 9.1317 250.568 10.3894C254.343 11.5923 260.087 13.9983 263.425 15.6934C266.762 17.3338 270.92 19.7398 272.725 20.9428C274.53 22.2004 278.087 24.9891 280.658 27.1217C283.229 29.2543 286.184 31.9883 287.223 33.1366C288.262 34.2849 290.287 36.6362 291.654 38.2766C293.022 39.917 295.375 43.0338 296.797 45.1117C298.274 47.1896 300.736 51.5094 302.377 54.6809C303.964 57.8523 306.152 63.1564 307.192 66.4372C308.231 69.7181 309.599 74.9128 310.256 77.9202C311.186 82.24 311.459 85.4115 311.459 92.9575C311.514 98.2068 311.24 104.331 310.857 106.518C310.256 110.073 310.31 110.619 311.186 112.205C311.733 113.189 313.374 116.251 314.851 118.931C316.274 121.61 317.641 124.071 317.86 124.399C318.079 124.727 319.666 127.625 321.416 130.961C323.167 134.296 325.355 138.179 326.231 139.71C327.161 141.186 327.872 143.209 327.872 144.084C327.872 145.068 327.434 145.998 326.832 146.435C326.231 146.763 323.823 147.857 321.416 148.787C319.009 149.716 315.07 151.193 312.663 152.122C310.256 152.997 307.301 154.145 306.098 154.637C304.894 155.13 303.581 155.786 303.198 156.059C302.651 156.551 302.487 161.309 302.487 178.806C302.542 191.82 302.323 201.28 301.994 201.772C301.557 202.483 298.821 202.593 266.434 202.866V226.379L268.895 226.652C270.537 226.816 272.123 227.527 273.655 228.73C274.968 229.714 276.555 231.519 277.211 232.722C277.868 233.87 278.579 235.839 278.798 237.042C279.017 238.518 278.798 240.213 278.141 242.236C277.485 244.259 276.445 246.009 274.804 247.54C273.491 248.853 272.069 249.891 271.631 249.891C271.193 249.891 270.81 250.11 270.81 250.438C270.81 250.821 254.233 250.985 222.119 250.985C190.005 250.985 173.428 250.821 173.428 250.438C173.428 250.11 173.045 249.891 172.607 249.891C172.17 249.891 170.693 248.798 169.325 247.431C167.465 245.572 166.644 244.205 165.988 241.799C165.276 239.338 165.222 238.19 165.714 236.331C166.042 235.073 166.918 233.104 167.684 231.956C168.449 230.863 170.145 229.222 171.404 228.402C172.662 227.582 174.632 226.707 177.805 226.105V170.057L175.726 168.854C174.632 168.198 171.732 166.175 169.325 164.316C166.918 162.457 163.033 158.903 156.468 152.013L138.25 151.958C128.293 151.958 119.649 151.794 119.157 151.575C118.664 151.357 116.147 148.24 113.631 144.631C111.114 141.022 106.902 134.952 104.166 131.125C101.485 127.297 97.2181 121.063 89.9965 110.51H79.8753C70.5201 110.455 69.6447 110.401 68.4958 109.362C67.7299 108.651 67.3469 107.776 67.4017 106.792C67.5111 105.807 68.0582 105.042 68.9335 104.604C69.8636 104.112 73.4744 103.894 80.696 103.894C88.3005 103.894 91.3096 104.058 91.9661 104.55C92.4584 104.933 96.0692 109.963 100.008 115.65C103.947 121.337 110.348 130.578 121.29 146.271L224.034 146.599L224.855 144.795C225.292 143.811 226.113 142.444 226.605 141.787C227.152 141.077 228.52 140.038 229.614 139.491C230.763 138.944 232.569 138.397 233.608 138.343C234.648 138.233 236.289 138.233 237.164 138.233C238.039 138.288 239.9 139.053 241.267 139.928C242.635 140.803 244.276 142.498 244.933 143.647C245.589 144.795 246.301 146.709 246.519 147.912C246.738 149.333 246.574 151.029 246.027 152.833C245.425 154.637 244.44 156.223 243.073 157.426C241.924 158.465 240.173 159.613 239.188 160.051C238.258 160.434 236.398 160.762 235.085 160.762C233.772 160.762 231.748 160.27 230.325 159.559C228.958 158.848 227.152 157.317 226.222 156.114C225.292 154.911 224.417 153.599 224.307 153.216C224.089 152.669 220.97 152.56 196.515 152.833L214.186 179.299L228.958 179.353L230.325 176.838C231.091 175.471 232.569 173.721 233.608 173.01C234.757 172.19 236.726 171.534 238.532 171.315C240.72 171.042 242.252 171.206 244.112 171.862C245.918 172.518 247.34 173.557 248.653 175.143C249.693 176.4 250.841 178.533 251.17 179.9C251.607 181.704 251.553 183.017 251.06 184.821C250.732 186.188 249.966 188.047 249.364 188.922C248.762 189.797 247.395 191.164 246.246 191.875C244.988 192.75 243.237 193.297 241.267 193.461C239.626 193.625 237.383 193.461 236.343 193.133C235.304 192.805 233.553 191.711 232.514 190.727C231.474 189.743 230.216 188.102 228.958 185.368H220.478C214.46 185.368 211.724 185.204 211.123 184.712C210.685 184.329 208.661 181.54 206.691 178.533C204.722 175.526 200.017 168.308 189.294 152.013L164.401 152.067L168.34 155.731C170.474 157.754 174.686 160.98 183.221 166.503L183.276 226.379H259.868V212.162C259.868 199.968 259.978 197.835 260.744 197.124C261.455 196.414 264.3 196.304 296.524 196.304V174.323C296.469 154.091 296.578 152.231 297.399 151.466C297.946 151.029 302.596 149.005 307.684 146.982C312.827 144.904 317.313 143.264 317.587 143.264C317.86 143.264 318.626 142.936 319.228 142.553C320.322 141.787 320.267 141.733 318.353 138.288C317.258 136.374 315.562 133.312 314.578 131.507C313.593 129.703 312.225 127.242 311.569 126.039C310.912 124.836 308.888 121.173 303.636 111.822L304.456 106.081C304.894 102.909 305.277 97.8787 305.222 94.8713C305.222 91.8638 304.894 86.9426 304.511 83.9351C304.073 80.9277 303.362 76.8813 302.815 74.9128C302.323 72.9443 301.283 69.6087 300.572 67.5309C299.806 65.453 298.329 61.844 297.289 59.6021C296.195 57.3602 294.335 53.9153 293.132 51.9468C291.873 49.9783 289.357 46.424 287.497 44.0181C285.636 41.6121 281.916 37.5657 279.235 35.0504C276.555 32.5898 272.506 29.1996 270.263 27.6138C268.02 26.0828 264.573 23.8955 262.604 22.8019C260.634 21.7083 257.188 20.0679 254.945 19.1383C252.702 18.2087 249.364 16.9511 247.559 16.3496C245.753 15.7481 241.814 14.7638 238.805 14.1623C235.742 13.5062 230.052 12.9047 225.949 12.7406C221.463 12.5219 216.758 12.686 213.913 13.0687C211.341 13.4515 207.512 14.053 205.433 14.4904C203.299 14.9279 199.36 16.0215 196.679 16.9511C193.944 17.8806 189.512 19.7398 186.832 21.0521C184.096 22.3645 180.485 24.3877 178.735 25.536C176.984 26.6843 175.726 27.7779 175.999 27.9966C176.218 28.2153 182.729 28.434 204.339 28.7621L212.271 32.3711C216.648 34.3396 220.806 36.0894 221.572 36.3081C222.611 36.6362 223.268 36.4174 224.307 35.3785C225.073 34.613 226.222 33.7381 226.879 33.41C227.59 33.0819 229.669 32.8085 231.529 32.8085C234.538 32.8085 235.304 33.0272 237.602 34.5583C239.462 35.816 240.666 37.183 241.596 39.0968C242.361 40.6279 242.909 42.7604 242.909 44.0181C242.909 45.2211 242.416 47.2443 241.814 48.5566C241.213 49.8143 239.954 51.5094 239.024 52.3843C238.094 53.2045 236.562 54.134 235.632 54.5168C234.648 54.8449 232.787 55.173 231.42 55.173C229.888 55.2277 228.082 54.7902 226.551 54.0247C225.183 53.3138 223.377 51.8921 222.557 50.8532C221.572 49.6502 220.751 47.7364 219.657 42.1043L203.244 34.7223H123.424L116.421 45.6585C112.537 51.6734 107.832 59.0006 105.972 61.9534C104.111 64.9062 101.212 69.3353 96.5616 76.2798L82.9938 76.4438C70.1371 76.5532 69.4259 76.4985 68.3864 75.4596C67.7846 74.8581 67.2922 73.8192 67.2922 73.163C67.2922 72.4521 67.7299 71.4679 68.277 70.9211C69.0976 70.0462 70.4107 69.9368 93.5526 69.9915L95.3033 67.1481C96.2334 65.5623 98.0388 62.6643 99.2971 60.6957C100.555 58.7272 103.017 54.9543 104.713 52.2202C106.464 49.5409 110.567 43.0885 113.85 38.0032C117.187 32.9179 120.196 28.5434 120.524 28.3247C120.907 28.106 131.138 27.8872 165.495 27.8872L167.684 25.864C168.887 24.7704 172.06 22.4191 174.796 20.6147C177.476 18.8102 181.908 16.2949 184.643 14.9279C187.324 13.6155 191.263 11.9751 193.397 11.2643C195.53 10.4987 199.087 9.45979 201.33 8.80362C203.573 8.20213 206.746 7.49128 208.332 7.27255C209.919 7.05383 211.177 6.67106 211.177 6.45234C211.177 6.17894 216.593 6.01489 223.213 6.01489ZM226.441 42.1589C226.277 42.8698 226.386 44.2368 226.769 45.1117C227.098 46.0413 227.973 47.1896 228.739 47.7364C229.45 48.2285 230.599 48.666 231.256 48.666C231.967 48.666 233.28 48.2832 234.155 47.8457C235.195 47.3536 236.015 46.3694 236.343 45.2757C236.726 44.0728 236.726 42.9245 236.398 41.8309C236.07 40.956 235.249 39.753 234.483 39.2609C233.663 38.714 232.35 38.2766 231.474 38.2766C230.599 38.2766 229.177 38.8781 228.301 39.5343C227.481 40.2451 226.605 41.4481 226.441 42.1589ZM230.982 146.326C230.49 147.31 230.38 148.568 230.599 149.552C230.763 150.427 231.474 151.739 232.131 152.45C233.006 153.325 233.936 153.653 235.523 153.653C236.726 153.653 238.094 153.325 238.587 152.942C239.079 152.56 239.735 151.739 240.064 151.083C240.447 150.372 240.72 149.06 240.72 148.185C240.72 147.091 240.173 145.998 239.079 144.904C238.039 143.865 236.891 143.264 235.906 143.264C235.085 143.319 233.827 143.647 233.061 144.029C232.295 144.412 231.365 145.451 230.982 146.326ZM235.195 181.322C235.195 182.033 235.632 183.4 236.07 184.274C236.617 185.423 237.547 186.079 238.915 186.516C240.501 186.954 241.377 186.954 242.58 186.352C243.456 185.97 244.495 185.149 244.933 184.548C245.316 183.946 245.644 182.798 245.644 181.978C245.644 181.103 245.37 179.9 244.988 179.244C244.659 178.533 244.003 177.713 243.51 177.33C243.018 176.947 241.596 176.619 240.337 176.619C238.477 176.619 237.821 176.893 236.617 178.314C235.796 179.244 235.14 180.556 235.195 181.322ZM172.443 235.237C171.787 236.221 171.24 237.698 171.24 238.573C171.24 239.393 171.623 240.814 172.06 241.689C172.498 242.564 173.647 243.713 174.522 244.15C175.945 244.861 182.291 244.97 221.572 244.97C260.853 244.97 267.199 244.861 268.622 244.15C269.497 243.713 270.646 242.564 271.084 241.689C271.521 240.814 271.904 239.447 271.904 238.682C271.904 237.916 271.521 236.549 271.084 235.674C270.646 234.745 269.278 233.542 268.075 232.94C265.941 231.847 264.792 231.847 221.408 231.847C184.479 231.902 176.711 232.011 175.288 232.667C174.413 233.104 173.1 234.253 172.443 235.237ZM233.882 21.7083C234.757 21.8723 237.492 22.4738 239.9 23.0206C242.307 23.6221 246.136 24.7157 248.38 25.536C250.623 26.3015 252.92 27.3404 253.467 27.8326C254.015 28.3247 254.452 29.3089 254.398 30.0745C254.398 30.84 254.124 31.7696 253.741 32.0977C253.358 32.4804 252.373 32.8085 251.553 32.8085C250.732 32.8085 249.911 32.6445 249.802 32.3711C249.693 32.1523 248.051 31.3868 246.136 30.676C244.222 29.9651 241.377 29.0902 239.9 28.6528C238.368 28.27 235.796 27.7779 234.155 27.5592C232.514 27.2857 230.708 26.7389 230.107 26.2468C229.286 25.5906 229.177 25.0985 229.505 23.8955C229.778 23.0753 230.49 22.1457 231.091 21.927C231.748 21.6536 233.006 21.5443 233.882 21.7083ZM260.306 31.0587C260.798 31.2228 263.096 32.6445 265.285 34.1209C267.528 35.6519 270.756 38.1126 272.397 39.6436C274.038 41.12 276.172 43.1979 277.102 44.2368C277.977 45.2757 279.454 46.8615 280.275 47.7911C281.15 48.7206 283.229 51.564 284.925 54.134C286.621 56.704 288.919 60.7504 290.013 63.1564C291.162 65.5623 292.694 69.4994 293.46 71.9053C294.28 74.3113 295.375 78.7951 295.976 81.8572C296.578 84.974 297.071 89.4579 297.071 91.8638C297.071 96.1836 297.071 96.2383 295.429 97.0585C294.062 97.7147 293.569 97.7694 292.42 97.1679C291.49 96.7304 290.943 95.9649 290.779 94.8713C290.67 93.9417 290.396 90.9889 290.177 88.3096C290.013 85.6302 289.357 81.5292 288.755 79.2872C288.208 77.0453 287.278 73.8192 286.676 72.1787C286.129 70.5383 284.925 67.5855 284.05 65.617C283.12 63.6485 280.877 59.7115 278.962 56.8681C276.883 53.6419 273.491 49.5955 270.044 46.2053C266.981 43.1979 262.713 39.5343 260.525 38.1126C256.859 35.7066 256.586 35.4332 256.695 33.7928C256.805 32.5898 257.242 31.8243 258.118 31.3868C258.829 31.004 259.814 30.84 260.306 31.0587ZM180.814 46.6428C183.166 46.7521 184.643 47.1896 186.011 48.1192C187.051 48.8847 188.364 49.9783 188.911 50.5798C189.403 51.1813 190.224 52.5483 190.661 53.5872C191.154 54.6262 191.482 56.5947 191.482 57.9617C191.482 59.3287 190.99 61.4066 190.497 62.6096C189.95 63.8126 188.418 65.6717 187.105 66.7106C184.807 68.5698 184.479 68.6245 180.212 68.6245C175.999 68.6245 175.562 68.5151 173.592 66.9294C172.443 65.9998 171.021 64.3594 169.325 61.2426H151.818C134.366 61.2972 134.311 61.2972 133.436 62.5002C132.998 63.1564 131.466 65.2889 130.153 67.2575C128.785 69.226 125.175 74.4206 122.111 78.8498C119.047 83.3336 116.53 87.1613 116.53 87.4894C116.53 87.8721 124.19 88.0362 160.298 88.0362L161.064 86.2317C161.501 85.3021 162.65 83.7164 163.69 82.7321C164.675 81.7479 166.425 80.5996 167.519 80.1621C168.668 79.67 170.474 79.2872 171.513 79.2872C172.553 79.2872 174.358 79.67 175.452 80.1075C176.601 80.5996 178.461 81.9119 179.61 83.0055C180.868 84.2632 182.017 86.1223 182.51 87.7628C183.111 89.5126 183.276 91.153 183.002 92.4106C182.783 93.4496 182.236 95.0353 181.798 95.9649C181.306 96.8945 180.376 98.1521 179.665 98.8083C178.954 99.5191 177.695 100.394 176.82 100.831C175.999 101.214 174.577 101.706 173.702 101.925C172.826 102.144 170.966 102.144 169.598 101.925C168.176 101.652 166.206 100.777 164.948 99.7926C163.744 98.863 162.213 97.0585 160.298 93.5043H138.414C124.19 93.5043 116.53 93.6683 116.53 94.0511C116.53 94.3792 117.953 96.6211 119.649 99.0817C121.345 101.597 124.026 105.479 125.612 107.721C127.199 109.963 129.825 113.736 134.311 120.298H187.379L190.825 115.267C192.74 112.479 195.53 108.432 197.008 106.354C198.539 104.276 201.603 99.8472 203.901 96.5117C206.199 93.1762 208.442 90.1687 208.934 89.786C209.536 89.2938 212.217 89.1298 226.769 89.1845L227.426 87.6534C227.809 86.8332 228.794 85.3568 229.614 84.4272C230.49 83.4977 231.912 82.3494 232.787 81.8572C233.663 81.4198 235.304 80.873 236.343 80.6543C237.383 80.4355 239.243 80.5449 240.447 80.873C241.65 81.1464 243.51 81.9666 244.55 82.6775C245.699 83.443 247.066 85.1381 247.997 86.9426C248.817 88.6377 249.474 90.8249 249.474 91.9732C249.474 93.1215 249.145 94.8713 248.762 95.8008C248.325 96.7851 247.285 98.4255 246.41 99.4645C245.535 100.503 243.839 101.816 242.635 102.308C241.431 102.855 239.407 103.347 238.094 103.347C236.836 103.347 234.757 102.909 233.444 102.363C232.186 101.761 230.544 100.613 229.778 99.7379C229.012 98.863 228.028 97.3319 226.769 94.5432L212.545 94.5979L203.682 107.831C198.813 115.158 194.765 121.282 194.765 121.556C194.765 121.774 206.472 121.938 246.738 121.938L247.285 120.134C247.559 119.204 248.598 117.619 249.583 116.634C250.568 115.65 252.319 114.502 253.413 114.064C254.562 113.572 256.476 113.189 257.68 113.189C258.884 113.189 260.908 113.681 262.166 114.228C263.479 114.83 265.066 115.869 265.668 116.58C266.324 117.236 267.309 118.548 267.856 119.478C268.512 120.571 268.841 122.157 268.841 124.399C268.841 126.367 268.458 128.391 267.911 129.43C267.418 130.414 266.434 131.836 265.722 132.546C265.066 133.257 263.425 134.406 262.057 135.007C260.689 135.609 258.72 136.155 257.68 136.155C256.641 136.155 254.507 135.554 253.03 134.898C251.498 134.187 249.638 132.765 248.872 131.726C248.051 130.687 247.285 129.32 246.738 127.406H189.403C143.994 127.406 131.958 127.297 131.193 126.75C130.7 126.367 128.129 122.977 125.503 119.204C122.877 115.431 119.813 111.111 118.774 109.58C117.679 107.995 114.616 103.566 111.88 99.7379C108.269 94.4885 107.011 92.2466 107.066 91.0436C107.066 89.8406 109.473 85.9583 116.038 76.6626C120.962 69.6087 125.995 62.5002 127.199 60.7504C128.402 59.0553 129.825 57.0321 131.302 54.9543L169.051 54.6809L170.091 52.6577C170.638 51.5094 171.732 50.033 172.443 49.3768C173.1 48.7206 174.577 47.7911 175.616 47.2989C176.875 46.7521 178.625 46.5334 180.814 46.6428ZM175.124 57.6336C175.069 59.11 175.452 59.9849 176.711 61.2426C177.914 62.4455 178.844 62.883 180.321 62.883C181.744 62.883 182.674 62.4455 183.877 61.2426C185.026 60.0396 185.464 59.0553 185.464 57.6883C185.464 56.2666 185.026 55.337 183.823 54.134C182.619 52.9311 181.689 52.4936 180.212 52.4936C178.789 52.4936 177.859 52.9311 176.711 54.0794C175.616 55.2277 175.124 56.2666 175.124 57.6336ZM166.37 89.8953C166.316 90.6609 166.699 92.0279 167.136 92.9575C167.684 94.1058 168.614 94.7619 170.036 95.1994C171.568 95.6368 172.443 95.6368 173.647 95.0353C174.522 94.6526 175.562 93.8323 175.999 93.2309C176.382 92.6294 176.711 91.2623 176.711 90.2234C176.765 88.8564 176.328 87.8721 175.233 86.7785C174.084 85.6302 173.209 85.2475 171.623 85.3021C170.036 85.3021 169.106 85.6849 167.957 86.8879C167.082 87.7628 166.37 89.1298 166.37 89.8953ZM234.046 87.1613C233.499 87.7628 233.061 89.1298 233.061 90.114C233.061 91.317 233.553 92.4106 234.648 93.6683C235.961 95.09 236.672 95.4181 238.422 95.4181C240.009 95.4181 241.048 95.0353 242.033 94.0511C243.127 93.0121 243.51 92.1372 243.51 90.4968C243.51 88.9111 243.127 87.8721 242.088 86.8332C241.048 85.6302 240.228 85.3021 238.696 85.3568C237.547 85.3568 236.234 85.5209 235.796 85.6849C235.359 85.8489 234.538 86.5051 234.046 87.1613ZM252.264 122.704C252.209 123.469 252.483 124.672 252.811 125.383C253.139 126.039 253.96 127.024 254.616 127.516C255.218 128.063 256.641 128.5 257.735 128.5C259.212 128.5 260.087 128.117 261.181 127.024C262.276 125.875 262.659 124.946 262.659 123.305C262.604 121.665 262.276 120.735 261.127 119.642C259.978 118.548 259.048 118.111 257.516 118.111C255.875 118.111 255.054 118.493 253.85 119.696C252.975 120.571 252.264 121.938 252.264 122.704ZM92.2943 86.9426C97.6558 86.9426 99.5706 87.1066 100.501 87.7628C101.321 88.3096 101.759 89.1298 101.759 90.114C101.759 90.9343 101.485 91.9732 101.212 92.4106C100.829 93.0668 99.133 93.2855 93.1697 93.3949C87.0969 93.5043 85.401 93.3949 84.3615 92.684C83.6503 92.1919 83.1579 91.317 83.1579 90.4968C83.1579 89.7313 83.6503 88.6377 84.2521 88.0362C85.2368 87.0519 86.0575 86.9426 92.2943 86.9426ZM122.548 156.934C128.785 156.934 130.098 157.098 130.919 157.918C131.466 158.41 131.904 159.285 131.849 159.832C131.849 160.324 132.123 161.801 132.396 163.113C132.943 165.246 133.217 165.519 139.782 168.417L142.627 166.503C144.323 165.355 146.183 164.589 147.168 164.589C148.535 164.589 149.63 165.464 153.842 170.057C156.632 173.12 158.985 176.018 159.094 176.51C159.149 177.002 158.274 178.916 154.991 184.001L157.836 191.383L160.845 191.984C162.486 192.313 164.401 192.914 165.057 193.352C166.261 194.062 166.316 194.445 166.316 201.772C166.316 207.842 166.152 209.592 165.495 210.248C165.057 210.685 163.744 211.287 162.596 211.56C161.501 211.834 160.079 212.162 159.477 212.271C158.711 212.38 157.945 213.583 155.319 220.09L157.234 222.989C158.328 224.52 159.204 226.433 159.204 227.199C159.204 228.183 157.726 230.097 153.842 234.034C150.56 237.424 148.098 239.502 147.441 239.502C146.839 239.502 145.034 238.627 143.447 237.588C141.916 236.549 140.438 235.674 140.165 235.674C139.946 235.674 138.305 236.276 133.217 238.299L132.56 242.072C132.123 244.423 131.521 246.064 130.919 246.501C130.262 246.939 127.691 247.157 122.822 247.157C116.695 247.212 115.6 247.048 114.78 246.228C114.287 245.681 113.576 243.658 113.139 241.744C112.537 238.737 112.208 238.19 110.786 237.588C109.856 237.26 108.269 236.604 107.23 236.221C105.425 235.565 105.151 235.62 102.306 237.534C100.665 238.627 98.8047 239.502 98.2029 239.502C97.5464 239.502 95.0845 237.37 91.7472 233.925C88.6288 230.589 86.4404 227.855 86.4404 227.199C86.4404 226.597 87.3158 224.738 90.3795 220.09L87.8082 212.709L84.7992 211.888C83.1579 211.451 81.1884 210.74 80.4224 210.357C79.0547 209.646 79.0547 209.592 78.8906 201.608C78.7812 193.789 78.8359 193.57 79.9848 192.805C80.696 192.367 82.2278 191.875 83.4314 191.656C84.635 191.438 86.0028 191.164 86.4404 191.055C86.8781 190.946 87.8629 189.196 89.8871 183.454L87.8629 180.173C86.4951 178.041 85.8933 176.51 86.1122 175.799C86.2763 175.197 88.7382 172.299 91.5284 169.401C95.2486 165.41 96.9446 164.043 97.9294 164.043C98.6953 164.043 100.501 164.863 102.033 165.956C103.51 166.995 105.096 167.87 105.425 167.87C105.807 167.87 106.573 167.652 107.066 167.323C107.613 167.05 108.981 166.449 110.075 165.956C112.044 165.191 112.208 164.917 112.974 161.473C113.412 159.504 114.069 157.645 114.452 157.426C114.834 157.153 118.5 156.934 122.548 156.934ZM118.5 163.66C118.336 165.191 117.734 167.105 117.187 167.87C116.585 168.636 115.327 169.456 114.287 169.675C113.248 169.893 110.677 170.932 108.598 171.971L104.768 173.83C99.8989 170.932 98.3123 170.057 98.0388 170.112C97.8199 170.167 96.6163 171.37 95.3033 172.846L93.0055 175.526C95.5222 179.791 96.2881 181.54 96.2881 182.251C96.2881 182.907 95.2486 186.134 93.9356 189.36C91.6378 195.211 91.6378 195.265 89.4494 195.812C88.2458 196.14 86.6593 196.578 85.8933 196.742C84.5803 197.124 84.5256 197.343 84.5256 201.226V205.272C87.9176 205.983 89.6136 206.475 90.4342 206.858C91.5284 207.295 92.2396 208.225 92.8414 209.974C93.3338 211.342 94.4827 214.13 95.4127 216.208C96.9993 219.762 97.054 220.036 96.2334 221.403C95.741 222.168 94.8109 223.699 94.1544 224.738L93.0055 226.652L98.2029 232.448C102.416 229.441 103.893 228.566 104.221 228.566C104.494 228.566 106.245 229.277 108.051 230.152C109.856 231.027 112.537 232.23 114.069 232.776C116.038 233.487 116.913 234.198 117.187 235.128C117.461 235.893 117.843 237.534 118.172 238.846L118.719 241.143L126.05 240.869C127.418 234.307 127.636 233.979 129.497 233.159C130.645 232.667 133.271 231.409 135.405 230.425C137.484 229.441 139.454 228.566 139.782 228.566C140.055 228.566 141.697 229.386 143.338 230.48L146.347 232.394C151.544 226.926 151.544 226.926 150.614 225.449C150.122 224.574 149.411 223.426 148.973 222.824C148.59 222.223 148.262 221.075 148.262 220.254C148.262 219.38 148.864 217.575 149.52 216.153C150.231 214.677 151.161 212.326 151.599 210.849C152.037 209.373 152.693 207.897 153.131 207.569C153.569 207.24 155.429 206.694 157.234 206.42L160.571 205.873L160.845 197.945C156.413 197.015 154.608 196.414 154.006 196.086C153.404 195.703 152.474 194.062 151.927 192.422C151.435 190.781 150.286 188.047 149.465 186.298L147.988 183.071L152.091 175.526L146.73 169.784L140.329 173.83C135.241 171.206 132.615 170.112 131.138 169.729C129.715 169.292 128.348 168.526 128.129 168.034C127.855 167.487 127.363 165.628 127.035 163.933L126.378 160.762H118.828L118.5 163.66ZM122.275 181.048C124.354 181.048 127.308 181.431 128.84 181.869C130.317 182.306 132.779 183.673 134.311 184.821C135.788 186.024 137.539 187.665 138.195 188.485C138.797 189.36 139.837 191.055 140.493 192.258C141.095 193.406 141.861 196.031 142.244 197.999C142.736 200.679 142.736 202.374 142.244 205.108C141.861 207.022 141.095 209.646 140.493 210.849C139.837 211.998 138.688 213.857 137.867 214.95C137.046 215.989 134.913 217.794 133.162 218.997C130.864 220.528 128.895 221.348 126.378 221.84C123.916 222.278 121.837 222.332 119.649 222.004C117.953 221.731 115.382 220.911 113.904 220.145C112.482 219.434 110.239 217.794 108.981 216.481C107.668 215.169 105.807 212.49 104.877 210.576C103.236 207.295 103.127 206.584 103.127 201.554C103.127 196.578 103.291 195.757 104.768 192.805C105.643 190.946 107.23 188.54 108.269 187.391C109.364 186.188 111.224 184.603 112.427 183.892C113.631 183.126 115.491 182.197 116.53 181.814C117.57 181.431 120.141 181.103 122.275 181.048ZM113.303 190.891C112.263 191.93 110.95 193.789 110.348 194.992C109.747 196.14 109.145 198.492 109.035 200.187C108.871 201.827 108.981 204.178 109.309 205.381C109.637 206.53 110.731 208.771 111.716 210.248C113.029 212.216 114.342 213.419 116.53 214.513C118.664 215.607 120.305 216.044 122.275 216.044C123.752 216.044 125.94 215.771 127.035 215.443C128.184 215.169 130.153 213.966 131.411 212.818C132.724 211.67 134.366 209.373 135.077 207.733C136.062 205.655 136.445 203.85 136.445 201.554C136.445 199.202 136.062 197.343 135.077 195.265C134.366 193.625 132.779 191.438 131.521 190.344C130.317 189.305 128.348 188.102 127.144 187.719C125.995 187.337 123.752 187.063 122.275 187.063C120.743 187.063 118.555 187.501 117.351 188.047C116.147 188.594 114.342 189.907 113.303 190.891Z"/>
</mask>
<path fill-rule="evenodd" clip-rule="evenodd" d="M223.213 6.01489C229.833 6.01489 235.249 6.17894 235.249 6.45234C235.249 6.67106 237.164 7.10851 239.462 7.49128C241.814 7.81936 246.793 9.1317 250.568 10.3894C254.343 11.5923 260.087 13.9983 263.425 15.6934C266.762 17.3338 270.92 19.7398 272.725 20.9428C274.53 22.2004 278.087 24.9891 280.658 27.1217C283.229 29.2543 286.184 31.9883 287.223 33.1366C288.262 34.2849 290.287 36.6362 291.654 38.2766C293.022 39.917 295.375 43.0338 296.797 45.1117C298.274 47.1896 300.736 51.5094 302.377 54.6809C303.964 57.8523 306.152 63.1564 307.192 66.4372C308.231 69.7181 309.599 74.9128 310.256 77.9202C311.186 82.24 311.459 85.4115 311.459 92.9575C311.514 98.2068 311.24 104.331 310.857 106.518C310.256 110.073 310.31 110.619 311.186 112.205C311.733 113.189 313.374 116.251 314.851 118.931C316.274 121.61 317.641 124.071 317.86 124.399C318.079 124.727 319.666 127.625 321.416 130.961C323.167 134.296 325.355 138.179 326.231 139.71C327.161 141.186 327.872 143.209 327.872 144.084C327.872 145.068 327.434 145.998 326.832 146.435C326.231 146.763 323.823 147.857 321.416 148.787C319.009 149.716 315.07 151.193 312.663 152.122C310.256 152.997 307.301 154.145 306.098 154.637C304.894 155.13 303.581 155.786 303.198 156.059C302.651 156.551 302.487 161.309 302.487 178.806C302.542 191.82 302.323 201.28 301.994 201.772C301.557 202.483 298.821 202.593 266.434 202.866V226.379L268.895 226.652C270.537 226.816 272.123 227.527 273.655 228.73C274.968 229.714 276.555 231.519 277.211 232.722C277.868 233.87 278.579 235.839 278.798 237.042C279.017 238.518 278.798 240.213 278.141 242.236C277.485 244.259 276.445 246.009 274.804 247.54C273.491 248.853 272.069 249.891 271.631 249.891C271.193 249.891 270.81 250.11 270.81 250.438C270.81 250.821 254.233 250.985 222.119 250.985C190.005 250.985 173.428 250.821 173.428 250.438C173.428 250.11 173.045 249.891 172.607 249.891C172.17 249.891 170.693 248.798 169.325 247.431C167.465 245.572 166.644 244.205 165.988 241.799C165.276 239.338 165.222 238.19 165.714 236.331C166.042 235.073 166.918 233.104 167.684 231.956C168.449 230.863 170.145 229.222 171.404 228.402C172.662 227.582 174.632 226.707 177.805 226.105V170.057L175.726 168.854C174.632 168.198 171.732 166.175 169.325 164.316C166.918 162.457 163.033 158.903 156.468 152.013L138.25 151.958C128.293 151.958 119.649 151.794 119.157 151.575C118.664 151.357 116.147 148.24 113.631 144.631C111.114 141.022 106.902 134.952 104.166 131.125C101.485 127.297 97.2181 121.063 89.9965 110.51H79.8753C70.5201 110.455 69.6447 110.401 68.4958 109.362C67.7299 108.651 67.3469 107.776 67.4017 106.792C67.5111 105.807 68.0582 105.042 68.9335 104.604C69.8636 104.112 73.4744 103.894 80.696 103.894C88.3005 103.894 91.3096 104.058 91.9661 104.55C92.4584 104.933 96.0692 109.963 100.008 115.65C103.947 121.337 110.348 130.578 121.29 146.271L224.034 146.599L224.855 144.795C225.292 143.811 226.113 142.444 226.605 141.787C227.152 141.077 228.52 140.038 229.614 139.491C230.763 138.944 232.569 138.397 233.608 138.343C234.648 138.233 236.289 138.233 237.164 138.233C238.039 138.288 239.9 139.053 241.267 139.928C242.635 140.803 244.276 142.498 244.933 143.647C245.589 144.795 246.301 146.709 246.519 147.912C246.738 149.333 246.574 151.029 246.027 152.833C245.425 154.637 244.44 156.223 243.073 157.426C241.924 158.465 240.173 159.613 239.188 160.051C238.258 160.434 236.398 160.762 235.085 160.762C233.772 160.762 231.748 160.27 230.325 159.559C228.958 158.848 227.152 157.317 226.222 156.114C225.292 154.911 224.417 153.599 224.307 153.216C224.089 152.669 220.97 152.56 196.515 152.833L214.186 179.299L228.958 179.353L230.325 176.838C231.091 175.471 232.569 173.721 233.608 173.01C234.757 172.19 236.726 171.534 238.532 171.315C240.72 171.042 242.252 171.206 244.112 171.862C245.918 172.518 247.34 173.557 248.653 175.143C249.693 176.4 250.841 178.533 251.17 179.9C251.607 181.704 251.553 183.017 251.06 184.821C250.732 186.188 249.966 188.047 249.364 188.922C248.762 189.797 247.395 191.164 246.246 191.875C244.988 192.75 243.237 193.297 241.267 193.461C239.626 193.625 237.383 193.461 236.343 193.133C235.304 192.805 233.553 191.711 232.514 190.727C231.474 189.743 230.216 188.102 228.958 185.368H220.478C214.46 185.368 211.724 185.204 211.123 184.712C210.685 184.329 208.661 181.54 206.691 178.533C204.722 175.526 200.017 168.308 189.294 152.013L164.401 152.067L168.34 155.731C170.474 157.754 174.686 160.98 183.221 166.503L183.276 226.379H259.868V212.162C259.868 199.968 259.978 197.835 260.744 197.124C261.455 196.414 264.3 196.304 296.524 196.304V174.323C296.469 154.091 296.578 152.231 297.399 151.466C297.946 151.029 302.596 149.005 307.684 146.982C312.827 144.904 317.313 143.264 317.587 143.264C317.86 143.264 318.626 142.936 319.228 142.553C320.322 141.787 320.267 141.733 318.353 138.288C317.258 136.374 315.562 133.312 314.578 131.507C313.593 129.703 312.225 127.242 311.569 126.039C310.912 124.836 308.888 121.173 303.636 111.822L304.456 106.081C304.894 102.909 305.277 97.8787 305.222 94.8713C305.222 91.8638 304.894 86.9426 304.511 83.9351C304.073 80.9277 303.362 76.8813 302.815 74.9128C302.323 72.9443 301.283 69.6087 300.572 67.5309C299.806 65.453 298.329 61.844 297.289 59.6021C296.195 57.3602 294.335 53.9153 293.132 51.9468C291.873 49.9783 289.357 46.424 287.497 44.0181C285.636 41.6121 281.916 37.5657 279.235 35.0504C276.555 32.5898 272.506 29.1996 270.263 27.6138C268.02 26.0828 264.573 23.8955 262.604 22.8019C260.634 21.7083 257.188 20.0679 254.945 19.1383C252.702 18.2087 249.364 16.9511 247.559 16.3496C245.753 15.7481 241.814 14.7638 238.805 14.1623C235.742 13.5062 230.052 12.9047 225.949 12.7406C221.463 12.5219 216.758 12.686 213.913 13.0687C211.341 13.4515 207.512 14.053 205.433 14.4904C203.299 14.9279 199.36 16.0215 196.679 16.9511C193.944 17.8806 189.512 19.7398 186.832 21.0521C184.096 22.3645 180.485 24.3877 178.735 25.536C176.984 26.6843 175.726 27.7779 175.999 27.9966C176.218 28.2153 182.729 28.434 204.339 28.7621L212.271 32.3711C216.648 34.3396 220.806 36.0894 221.572 36.3081C222.611 36.6362 223.268 36.4174 224.307 35.3785C225.073 34.613 226.222 33.7381 226.879 33.41C227.59 33.0819 229.669 32.8085 231.529 32.8085C234.538 32.8085 235.304 33.0272 237.602 34.5583C239.462 35.816 240.666 37.183 241.596 39.0968C242.361 40.6279 242.909 42.7604 242.909 44.0181C242.909 45.2211 242.416 47.2443 241.814 48.5566C241.213 49.8143 239.954 51.5094 239.024 52.3843C238.094 53.2045 236.562 54.134 235.632 54.5168C234.648 54.8449 232.787 55.173 231.42 55.173C229.888 55.2277 228.082 54.7902 226.551 54.0247C225.183 53.3138 223.377 51.8921 222.557 50.8532C221.572 49.6502 220.751 47.7364 219.657 42.1043L203.244 34.7223H123.424L116.421 45.6585C112.537 51.6734 107.832 59.0006 105.972 61.9534C104.111 64.9062 101.212 69.3353 96.5616 76.2798L82.9938 76.4438C70.1371 76.5532 69.4259 76.4985 68.3864 75.4596C67.7846 74.8581 67.2922 73.8192 67.2922 73.163C67.2922 72.4521 67.7299 71.4679 68.277 70.9211C69.0976 70.0462 70.4107 69.9368 93.5526 69.9915L95.3033 67.1481C96.2334 65.5623 98.0388 62.6643 99.2971 60.6957C100.555 58.7272 103.017 54.9543 104.713 52.2202C106.464 49.5409 110.567 43.0885 113.85 38.0032C117.187 32.9179 120.196 28.5434 120.524 28.3247C120.907 28.106 131.138 27.8872 165.495 27.8872L167.684 25.864C168.887 24.7704 172.06 22.4191 174.796 20.6147C177.476 18.8102 181.908 16.2949 184.643 14.9279C187.324 13.6155 191.263 11.9751 193.397 11.2643C195.53 10.4987 199.087 9.45979 201.33 8.80362C203.573 8.20213 206.746 7.49128 208.332 7.27255C209.919 7.05383 211.177 6.67106 211.177 6.45234C211.177 6.17894 216.593 6.01489 223.213 6.01489ZM226.441 42.1589C226.277 42.8698 226.386 44.2368 226.769 45.1117C227.098 46.0413 227.973 47.1896 228.739 47.7364C229.45 48.2285 230.599 48.666 231.256 48.666C231.967 48.666 233.28 48.2832 234.155 47.8457C235.195 47.3536 236.015 46.3694 236.343 45.2757C236.726 44.0728 236.726 42.9245 236.398 41.8309C236.07 40.956 235.249 39.753 234.483 39.2609C233.663 38.714 232.35 38.2766 231.474 38.2766C230.599 38.2766 229.177 38.8781 228.301 39.5343C227.481 40.2451 226.605 41.4481 226.441 42.1589ZM230.982 146.326C230.49 147.31 230.38 148.568 230.599 149.552C230.763 150.427 231.474 151.739 232.131 152.45C233.006 153.325 233.936 153.653 235.523 153.653C236.726 153.653 238.094 153.325 238.587 152.942C239.079 152.56 239.735 151.739 240.064 151.083C240.447 150.372 240.72 149.06 240.72 148.185C240.72 147.091 240.173 145.998 239.079 144.904C238.039 143.865 236.891 143.264 235.906 143.264C235.085 143.319 233.827 143.647 233.061 144.029C232.295 144.412 231.365 145.451 230.982 146.326ZM235.195 181.322C235.195 182.033 235.632 183.4 236.07 184.274C236.617 185.423 237.547 186.079 238.915 186.516C240.501 186.954 241.377 186.954 242.58 186.352C243.456 185.97 244.495 185.149 244.933 184.548C245.316 183.946 245.644 182.798 245.644 181.978C245.644 181.103 245.37 179.9 244.988 179.244C244.659 178.533 244.003 177.713 243.51 177.33C243.018 176.947 241.596 176.619 240.337 176.619C238.477 176.619 237.821 176.893 236.617 178.314C235.796 179.244 235.14 180.556 235.195 181.322ZM172.443 235.237C171.787 236.221 171.24 237.698 171.24 238.573C171.24 239.393 171.623 240.814 172.06 241.689C172.498 242.564 173.647 243.713 174.522 244.15C175.945 244.861 182.291 244.97 221.572 244.97C260.853 244.97 267.199 244.861 268.622 244.15C269.497 243.713 270.646 242.564 271.084 241.689C271.521 240.814 271.904 239.447 271.904 238.682C271.904 237.916 271.521 236.549 271.084 235.674C270.646 234.745 269.278 233.542 268.075 232.94C265.941 231.847 264.792 231.847 221.408 231.847C184.479 231.902 176.711 232.011 175.288 232.667C174.413 233.104 173.1 234.253 172.443 235.237ZM233.882 21.7083C234.757 21.8723 237.492 22.4738 239.9 23.0206C242.307 23.6221 246.136 24.7157 248.38 25.536C250.623 26.3015 252.92 27.3404 253.467 27.8326C254.015 28.3247 254.452 29.3089 254.398 30.0745C254.398 30.84 254.124 31.7696 253.741 32.0977C253.358 32.4804 252.373 32.8085 251.553 32.8085C250.732 32.8085 249.911 32.6445 249.802 32.3711C249.693 32.1523 248.051 31.3868 246.136 30.676C244.222 29.9651 241.377 29.0902 239.9 28.6528C238.368 28.27 235.796 27.7779 234.155 27.5592C232.514 27.2857 230.708 26.7389 230.107 26.2468C229.286 25.5906 229.177 25.0985 229.505 23.8955C229.778 23.0753 230.49 22.1457 231.091 21.927C231.748 21.6536 233.006 21.5443 233.882 21.7083ZM260.306 31.0587C260.798 31.2228 263.096 32.6445 265.285 34.1209C267.528 35.6519 270.756 38.1126 272.397 39.6436C274.038 41.12 276.172 43.1979 277.102 44.2368C277.977 45.2757 279.454 46.8615 280.275 47.7911C281.15 48.7206 283.229 51.564 284.925 54.134C286.621 56.704 288.919 60.7504 290.013 63.1564C291.162 65.5623 292.694 69.4994 293.46 71.9053C294.28 74.3113 295.375 78.7951 295.976 81.8572C296.578 84.974 297.071 89.4579 297.071 91.8638C297.071 96.1836 297.071 96.2383 295.429 97.0585C294.062 97.7147 293.569 97.7694 292.42 97.1679C291.49 96.7304 290.943 95.9649 290.779 94.8713C290.67 93.9417 290.396 90.9889 290.177 88.3096C290.013 85.6302 289.357 81.5292 288.755 79.2872C288.208 77.0453 287.278 73.8192 286.676 72.1787C286.129 70.5383 284.925 67.5855 284.05 65.617C283.12 63.6485 280.877 59.7115 278.962 56.8681C276.883 53.6419 273.491 49.5955 270.044 46.2053C266.981 43.1979 262.713 39.5343 260.525 38.1126C256.859 35.7066 256.586 35.4332 256.695 33.7928C256.805 32.5898 257.242 31.8243 258.118 31.3868C258.829 31.004 259.814 30.84 260.306 31.0587ZM180.814 46.6428C183.166 46.7521 184.643 47.1896 186.011 48.1192C187.051 48.8847 188.364 49.9783 188.911 50.5798C189.403 51.1813 190.224 52.5483 190.661 53.5872C191.154 54.6262 191.482 56.5947 191.482 57.9617C191.482 59.3287 190.99 61.4066 190.497 62.6096C189.95 63.8126 188.418 65.6717 187.105 66.7106C184.807 68.5698 184.479 68.6245 180.212 68.6245C175.999 68.6245 175.562 68.5151 173.592 66.9294C172.443 65.9998 171.021 64.3594 169.325 61.2426H151.818C134.366 61.2972 134.311 61.2972 133.436 62.5002C132.998 63.1564 131.466 65.2889 130.153 67.2575C128.785 69.226 125.175 74.4206 122.111 78.8498C119.047 83.3336 116.53 87.1613 116.53 87.4894C116.53 87.8721 124.19 88.0362 160.298 88.0362L161.064 86.2317C161.501 85.3021 162.65 83.7164 163.69 82.7321C164.675 81.7479 166.425 80.5996 167.519 80.1621C168.668 79.67 170.474 79.2872 171.513 79.2872C172.553 79.2872 174.358 79.67 175.452 80.1075C176.601 80.5996 178.461 81.9119 179.61 83.0055C180.868 84.2632 182.017 86.1223 182.51 87.7628C183.111 89.5126 183.276 91.153 183.002 92.4106C182.783 93.4496 182.236 95.0353 181.798 95.9649C181.306 96.8945 180.376 98.1521 179.665 98.8083C178.954 99.5191 177.695 100.394 176.82 100.831C175.999 101.214 174.577 101.706 173.702 101.925C172.826 102.144 170.966 102.144 169.598 101.925C168.176 101.652 166.206 100.777 164.948 99.7926C163.744 98.863 162.213 97.0585 160.298 93.5043H138.414C124.19 93.5043 116.53 93.6683 116.53 94.0511C116.53 94.3792 117.953 96.6211 119.649 99.0817C121.345 101.597 124.026 105.479 125.612 107.721C127.199 109.963 129.825 113.736 134.311 120.298H187.379L190.825 115.267C192.74 112.479 195.53 108.432 197.008 106.354C198.539 104.276 201.603 99.8472 203.901 96.5117C206.199 93.1762 208.442 90.1687 208.934 89.786C209.536 89.2938 212.217 89.1298 226.769 89.1845L227.426 87.6534C227.809 86.8332 228.794 85.3568 229.614 84.4272C230.49 83.4977 231.912 82.3494 232.787 81.8572C233.663 81.4198 235.304 80.873 236.343 80.6543C237.383 80.4355 239.243 80.5449 240.447 80.873C241.65 81.1464 243.51 81.9666 244.55 82.6775C245.699 83.443 247.066 85.1381 247.997 86.9426C248.817 88.6377 249.474 90.8249 249.474 91.9732C249.474 93.1215 249.145 94.8713 248.762 95.8008C248.325 96.7851 247.285 98.4255 246.41 99.4645C245.535 100.503 243.839 101.816 242.635 102.308C241.431 102.855 239.407 103.347 238.094 103.347C236.836 103.347 234.757 102.909 233.444 102.363C232.186 101.761 230.544 100.613 229.778 99.7379C229.012 98.863 228.028 97.3319 226.769 94.5432L212.545 94.5979L203.682 107.831C198.813 115.158 194.765 121.282 194.765 121.556C194.765 121.774 206.472 121.938 246.738 121.938L247.285 120.134C247.559 119.204 248.598 117.619 249.583 116.634C250.568 115.65 252.319 114.502 253.413 114.064C254.562 113.572 256.476 113.189 257.68 113.189C258.884 113.189 260.908 113.681 262.166 114.228C263.479 114.83 265.066 115.869 265.668 116.58C266.324 117.236 267.309 118.548 267.856 119.478C268.512 120.571 268.841 122.157 268.841 124.399C268.841 126.367 268.458 128.391 267.911 129.43C267.418 130.414 266.434 131.836 265.722 132.546C265.066 133.257 263.425 134.406 262.057 135.007C260.689 135.609 258.72 136.155 257.68 136.155C256.641 136.155 254.507 135.554 253.03 134.898C251.498 134.187 249.638 132.765 248.872 131.726C248.051 130.687 247.285 129.32 246.738 127.406H189.403C143.994 127.406 131.958 127.297 131.193 126.75C130.7 126.367 128.129 122.977 125.503 119.204C122.877 115.431 119.813 111.111 118.774 109.58C117.679 107.995 114.616 103.566 111.88 99.7379C108.269 94.4885 107.011 92.2466 107.066 91.0436C107.066 89.8406 109.473 85.9583 116.038 76.6626C120.962 69.6087 125.995 62.5002 127.199 60.7504C128.402 59.0553 129.825 57.0321 131.302 54.9543L169.051 54.6809L170.091 52.6577C170.638 51.5094 171.732 50.033 172.443 49.3768C173.1 48.7206 174.577 47.7911 175.616 47.2989C176.875 46.7521 178.625 46.5334 180.814 46.6428ZM175.124 57.6336C175.069 59.11 175.452 59.9849 176.711 61.2426C177.914 62.4455 178.844 62.883 180.321 62.883C181.744 62.883 182.674 62.4455 183.877 61.2426C185.026 60.0396 185.464 59.0553 185.464 57.6883C185.464 56.2666 185.026 55.337 183.823 54.134C182.619 52.9311 181.689 52.4936 180.212 52.4936C178.789 52.4936 177.859 52.9311 176.711 54.0794C175.616 55.2277 175.124 56.2666 175.124 57.6336ZM166.37 89.8953C166.316 90.6609 166.699 92.0279 167.136 92.9575C167.684 94.1058 168.614 94.7619 170.036 95.1994C171.568 95.6368 172.443 95.6368 173.647 95.0353C174.522 94.6526 175.562 93.8323 175.999 93.2309C176.382 92.6294 176.711 91.2623 176.711 90.2234C176.765 88.8564 176.328 87.8721 175.233 86.7785C174.084 85.6302 173.209 85.2475 171.623 85.3021C170.036 85.3021 169.106 85.6849 167.957 86.8879C167.082 87.7628 166.37 89.1298 166.37 89.8953ZM234.046 87.1613C233.499 87.7628 233.061 89.1298 233.061 90.114C233.061 91.317 233.553 92.4106 234.648 93.6683C235.961 95.09 236.672 95.4181 238.422 95.4181C240.009 95.4181 241.048 95.0353 242.033 94.0511C243.127 93.0121 243.51 92.1372 243.51 90.4968C243.51 88.9111 243.127 87.8721 242.088 86.8332C241.048 85.6302 240.228 85.3021 238.696 85.3568C237.547 85.3568 236.234 85.5209 235.796 85.6849C235.359 85.8489 234.538 86.5051 234.046 87.1613ZM252.264 122.704C252.209 123.469 252.483 124.672 252.811 125.383C253.139 126.039 253.96 127.024 254.616 127.516C255.218 128.063 256.641 128.5 257.735 128.5C259.212 128.5 260.087 128.117 261.181 127.024C262.276 125.875 262.659 124.946 262.659 123.305C262.604 121.665 262.276 120.735 261.127 119.642C259.978 118.548 259.048 118.111 257.516 118.111C255.875 118.111 255.054 118.493 253.85 119.696C252.975 120.571 252.264 121.938 252.264 122.704ZM92.2943 86.9426C97.6558 86.9426 99.5706 87.1066 100.501 87.7628C101.321 88.3096 101.759 89.1298 101.759 90.114C101.759 90.9343 101.485 91.9732 101.212 92.4106C100.829 93.0668 99.133 93.2855 93.1697 93.3949C87.0969 93.5043 85.401 93.3949 84.3615 92.684C83.6503 92.1919 83.1579 91.317 83.1579 90.4968C83.1579 89.7313 83.6503 88.6377 84.2521 88.0362C85.2368 87.0519 86.0575 86.9426 92.2943 86.9426ZM122.548 156.934C128.785 156.934 130.098 157.098 130.919 157.918C131.466 158.41 131.904 159.285 131.849 159.832C131.849 160.324 132.123 161.801 132.396 163.113C132.943 165.246 133.217 165.519 139.782 168.417L142.627 166.503C144.323 165.355 146.183 164.589 147.168 164.589C148.535 164.589 149.63 165.464 153.842 170.057C156.632 173.12 158.985 176.018 159.094 176.51C159.149 177.002 158.274 178.916 154.991 184.001L157.836 191.383L160.845 191.984C162.486 192.313 164.401 192.914 165.057 193.352C166.261 194.062 166.316 194.445 166.316 201.772C166.316 207.842 166.152 209.592 165.495 210.248C165.057 210.685 163.744 211.287 162.596 211.56C161.501 211.834 160.079 212.162 159.477 212.271C158.711 212.38 157.945 213.583 155.319 220.09L157.234 222.989C158.328 224.52 159.204 226.433 159.204 227.199C159.204 228.183 157.726 230.097 153.842 234.034C150.56 237.424 148.098 239.502 147.441 239.502C146.839 239.502 145.034 238.627 143.447 237.588C141.916 236.549 140.438 235.674 140.165 235.674C139.946 235.674 138.305 236.276 133.217 238.299L132.56 242.072C132.123 244.423 131.521 246.064 130.919 246.501C130.262 246.939 127.691 247.157 122.822 247.157C116.695 247.212 115.6 247.048 114.78 246.228C114.287 245.681 113.576 243.658 113.139 241.744C112.537 238.737 112.208 238.19 110.786 237.588C109.856 237.26 108.269 236.604 107.23 236.221C105.425 235.565 105.151 235.62 102.306 237.534C100.665 238.627 98.8047 239.502 98.2029 239.502C97.5464 239.502 95.0845 237.37 91.7472 233.925C88.6288 230.589 86.4404 227.855 86.4404 227.199C86.4404 226.597 87.3158 224.738 90.3795 220.09L87.8082 212.709L84.7992 211.888C83.1579 211.451 81.1884 210.74 80.4224 210.357C79.0547 209.646 79.0547 209.592 78.8906 201.608C78.7812 193.789 78.8359 193.57 79.9848 192.805C80.696 192.367 82.2278 191.875 83.4314 191.656C84.635 191.438 86.0028 191.164 86.4404 191.055C86.8781 190.946 87.8629 189.196 89.8871 183.454L87.8629 180.173C86.4951 178.041 85.8933 176.51 86.1122 175.799C86.2763 175.197 88.7382 172.299 91.5284 169.401C95.2486 165.41 96.9446 164.043 97.9294 164.043C98.6953 164.043 100.501 164.863 102.033 165.956C103.51 166.995 105.096 167.87 105.425 167.87C105.807 167.87 106.573 167.652 107.066 167.323C107.613 167.05 108.981 166.449 110.075 165.956C112.044 165.191 112.208 164.917 112.974 161.473C113.412 159.504 114.069 157.645 114.452 157.426C114.834 157.153 118.5 156.934 122.548 156.934ZM118.5 163.66C118.336 165.191 117.734 167.105 117.187 167.87C116.585 168.636 115.327 169.456 114.287 169.675C113.248 169.893 110.677 170.932 108.598 171.971L104.768 173.83C99.8989 170.932 98.3123 170.057 98.0388 170.112C97.8199 170.167 96.6163 171.37 95.3033 172.846L93.0055 175.526C95.5222 179.791 96.2881 181.54 96.2881 182.251C96.2881 182.907 95.2486 186.134 93.9356 189.36C91.6378 195.211 91.6378 195.265 89.4494 195.812C88.2458 196.14 86.6593 196.578 85.8933 196.742C84.5803 197.124 84.5256 197.343 84.5256 201.226V205.272C87.9176 205.983 89.6136 206.475 90.4342 206.858C91.5284 207.295 92.2396 208.225 92.8414 209.974C93.3338 211.342 94.4827 214.13 95.4127 216.208C96.9993 219.762 97.054 220.036 96.2334 221.403C95.741 222.168 94.8109 223.699 94.1544 224.738L93.0055 226.652L98.2029 232.448C102.416 229.441 103.893 228.566 104.221 228.566C104.494 228.566 106.245 229.277 108.051 230.152C109.856 231.027 112.537 232.23 114.069 232.776C116.038 233.487 116.913 234.198 117.187 235.128C117.461 235.893 117.843 237.534 118.172 238.846L118.719 241.143L126.05 240.869C127.418 234.307 127.636 233.979 129.497 233.159C130.645 232.667 133.271 231.409 135.405 230.425C137.484 229.441 139.454 228.566 139.782 228.566C140.055 228.566 141.697 229.386 143.338 230.48L146.347 232.394C151.544 226.926 151.544 226.926 150.614 225.449C150.122 224.574 149.411 223.426 148.973 222.824C148.59 222.223 148.262 221.075 148.262 220.254C148.262 219.38 148.864 217.575 149.52 216.153C150.231 214.677 151.161 212.326 151.599 210.849C152.037 209.373 152.693 207.897 153.131 207.569C153.569 207.24 155.429 206.694 157.234 206.42L160.571 205.873L160.845 197.945C156.413 197.015 154.608 196.414 154.006 196.086C153.404 195.703 152.474 194.062 151.927 192.422C151.435 190.781 150.286 188.047 149.465 186.298L147.988 183.071L152.091 175.526L146.73 169.784L140.329 173.83C135.241 171.206 132.615 170.112 131.138 169.729C129.715 169.292 128.348 168.526 128.129 168.034C127.855 167.487 127.363 165.628 127.035 163.933L126.378 160.762H118.828L118.5 163.66ZM122.275 181.048C124.354 181.048 127.308 181.431 128.84 181.869C130.317 182.306 132.779 183.673 134.311 184.821C135.788 186.024 137.539 187.665 138.195 188.485C138.797 189.36 139.837 191.055 140.493 192.258C141.095 193.406 141.861 196.031 142.244 197.999C142.736 200.679 142.736 202.374 142.244 205.108C141.861 207.022 141.095 209.646 140.493 210.849C139.837 211.998 138.688 213.857 137.867 214.95C137.046 215.989 134.913 217.794 133.162 218.997C130.864 220.528 128.895 221.348 126.378 221.84C123.916 222.278 121.837 222.332 119.649 222.004C117.953 221.731 115.382 220.911 113.904 220.145C112.482 219.434 110.239 217.794 108.981 216.481C107.668 215.169 105.807 212.49 104.877 210.576C103.236 207.295 103.127 206.584 103.127 201.554C103.127 196.578 103.291 195.757 104.768 192.805C105.643 190.946 107.23 188.54 108.269 187.391C109.364 186.188 111.224 184.603 112.427 183.892C113.631 183.126 115.491 182.197 116.53 181.814C117.57 181.431 120.141 181.103 122.275 181.048ZM113.303 190.891C112.263 191.93 110.95 193.789 110.348 194.992C109.747 196.14 109.145 198.492 109.035 200.187C108.871 201.827 108.981 204.178 109.309 205.381C109.637 206.53 110.731 208.771 111.716 210.248C113.029 212.216 114.342 213.419 116.53 214.513C118.664 215.607 120.305 216.044 122.275 216.044C123.752 216.044 125.94 215.771 127.035 215.443C128.184 215.169 130.153 213.966 131.411 212.818C132.724 211.67 134.366 209.373 135.077 207.733C136.062 205.655 136.445 203.85 136.445 201.554C136.445 199.202 136.062 197.343 135.077 195.265C134.366 193.625 132.779 191.438 131.521 190.344C130.317 189.305 128.348 188.102 127.144 187.719C125.995 187.337 123.752 187.063 122.275 187.063C120.743 187.063 118.555 187.501 117.351 188.047C116.147 188.594 114.342 189.907 113.303 190.891Z" fill="url(#paint0_radial_40_74)" stroke="url(#paint1_radial_40_74)" stroke-width="3" mask="url(#path-1-inside-1_40_74)"/>
<defs>
<radialGradient id="paint0_radial_40_74" cx="0" cy="0" r="1" gradientUnits="userSpaceOnUse" gradientTransform="translate(197.582 128.5) rotate(89.8325) scale(143.001 152.113)">
<stop stop-color="#8FFFE4" stop-opacity="0.5"/>
<stop offset="1" stop-color="#8FFFE4" stop-opacity="0"/>
</radialGradient>
<radialGradient id="paint1_radial_40_74" cx="0" cy="0" r="1" gradientUnits="userSpaceOnUse" gradientTransform="translate(197.582 128.5) rotate(89.8596) scale(170.501 181.365)">
<stop stop-color="#8FFFE4"/>
<stop offset="1" stop-color="#A3F4FF" stop-opacity="0"/>
</radialGradient>
</defs>
</svg>
